<?xml version="1.0" encoding="utf-8"?>
<!-- Generator: Adobe Illustrator 20.1.0, SVG Export Plug-In . SVG Version: 6.00 Build 0)  -->
<svg version="1.1" xmlns="http://www.w3.org/2000/svg" xmlns:xlink="http://www.w3.org/1999/xlink" x="0px" y="0px"
	 viewBox="0 0 750 1334" style="enable-background:new 0 0 750 1334;" xml:space="preserve">
<g id="background">
	<rect x="0.861" style="fill:#E5E5E5;" width="749.139" height="1334"/>
</g>
<g id="halfway" style="display:none;">
	
		<line style="display:inline;stroke:#FFFFFF;stroke-width:8;stroke-miterlimit:10;" x1="373.41" y1="-45.588" x2="375.431" y2="1556"/>
</g>
<g id="stuff">
	<rect x="0" y="0" style="fill:#1A5436;" width="750" height="175.271"/>
	<rect x="30.977" y="298.685" style="fill:#FFFFFF;stroke:#C4C4C4;stroke-miterlimit:10;" width="687.981" height="629.307"/>
	<path id="path2651_1_" style="fill:#FFFFFF;" d="M332.484,144.758h85.893V72.53h-85.893V144.758z M388.867,129.134h-20.009V95.235
		h10.051v27.902h9.663c6.672,0,9.477-4.361,9.477-15.543c0-11.268-3.192-14.539-9.958-14.539h-22.037v36.079h-9.958V93.055h-14.596
		v-6.003h49.681c11.988,0,17.69,5.815,17.69,20.452C408.872,126.77,400.365,129.134,388.867,129.134"/>
	<g>
		<path style="fill:#1A5436;" d="M200.711,684.234l-9.802,16.301v10.283h-6.856v-9.962l-9.962-16.622h7.806l5.731,10.255
			l5.542-10.255H200.711z"/>
		<path style="fill:#1A5436;" d="M223.745,700.803c0,3.297-0.961,5.895-2.883,7.793s-4.621,2.848-8.097,2.848
			s-6.175-0.949-8.097-2.848c-1.922-1.898-2.883-4.496-2.883-7.793c0-3.321,0.967-5.928,2.901-7.82s4.627-2.839,8.079-2.839
			c3.5,0,6.204,0.952,8.115,2.856C222.79,694.905,223.745,697.506,223.745,700.803z M215.836,705.677
			c0.417-0.512,0.729-1.128,0.938-1.848c0.208-0.721,0.312-1.717,0.312-2.991c0-1.178-0.107-2.166-0.321-2.963
			c-0.214-0.798-0.512-1.435-0.893-1.911c-0.381-0.487-0.839-0.833-1.375-1.035s-1.113-0.304-1.732-0.304
			c-0.619,0-1.169,0.084-1.651,0.25c-0.482,0.167-0.943,0.5-1.384,1c-0.393,0.464-0.705,1.101-0.938,1.91
			c-0.232,0.81-0.348,1.827-0.348,3.053c0,1.096,0.101,2.045,0.304,2.848c0.202,0.804,0.5,1.449,0.893,1.938
			c0.381,0.464,0.836,0.804,1.366,1.018c0.53,0.215,1.134,0.321,1.812,0.321c0.583,0,1.14-0.098,1.669-0.294
			C215.018,706.471,215.467,706.141,215.836,705.677z"/>
		<path style="fill:#1A5436;" d="M247.672,710.818h-6.445v-2.214c-1.189,0.905-2.276,1.593-3.263,2.062
			c-0.986,0.47-2.163,0.705-3.53,0.705c-2.211,0-3.914-0.637-5.108-1.91c-1.195-1.273-1.792-3.154-1.792-5.642v-13.052h6.445v9.944
			c0,1.013,0.033,1.854,0.098,2.526c0.065,0.673,0.217,1.229,0.455,1.67c0.226,0.44,0.568,0.762,1.027,0.964
			c0.458,0.202,1.098,0.304,1.919,0.304c0.547,0,1.154-0.102,1.821-0.304s1.309-0.5,1.928-0.893v-14.212h6.445V710.818z"/>
		<path style="fill:#1A5436;" d="M267.618,696.893h-0.57c-0.273-0.095-0.713-0.167-1.319-0.214c-0.605-0.048-1.11-0.072-1.514-0.072
			c-0.914,0-1.722,0.061-2.423,0.179c-0.701,0.119-1.455,0.321-2.262,0.607v13.426h-6.445v-20.05h6.445v2.946
			c1.413-1.214,2.643-2.021,3.688-2.42c1.045-0.398,2.007-0.598,2.886-0.598c0.225,0,0.481,0.006,0.766,0.018
			c0.285,0.013,0.535,0.03,0.749,0.054V696.893z"/>
		<path style="fill:#1A5436;" d="M292.885,711.354c-1.75,0-3.347-0.209-4.793-0.625c-1.446-0.417-2.705-1.06-3.776-1.929
			c-1.06-0.868-1.881-1.964-2.464-3.285s-0.875-2.868-0.875-4.642c0-1.868,0.312-3.481,0.937-4.839
			c0.625-1.356,1.497-2.481,2.616-3.374c1.083-0.845,2.333-1.464,3.75-1.856c1.416-0.394,2.886-0.59,4.41-0.59
			c1.369,0,2.63,0.149,3.785,0.446c1.154,0.298,2.232,0.685,3.231,1.161v5.48h-0.909c-0.25-0.214-0.55-0.464-0.9-0.749
			c-0.351-0.286-0.781-0.565-1.292-0.84c-0.487-0.262-1.022-0.479-1.604-0.651s-1.26-0.259-2.032-0.259
			c-1.711,0-3.028,0.545-3.949,1.634c-0.921,1.089-1.382,2.568-1.382,4.437c0,1.928,0.473,3.393,1.417,4.392
			c0.945,1,2.285,1.5,4.02,1.5c0.808,0,1.536-0.092,2.184-0.276c0.648-0.185,1.186-0.402,1.614-0.652
			c0.404-0.237,0.76-0.487,1.069-0.749s0.594-0.519,0.856-0.769h0.909v5.481c-1.012,0.477-2.068,0.854-3.169,1.134
			C295.436,711.214,294.218,711.354,292.885,711.354z"/>
		<path style="fill:#1A5436;" d="M323.793,700.803c0,3.297-0.961,5.895-2.883,7.793s-4.621,2.848-8.097,2.848
			s-6.175-0.949-8.097-2.848c-1.922-1.898-2.883-4.496-2.883-7.793c0-3.321,0.967-5.928,2.901-7.82s4.627-2.839,8.079-2.839
			c3.5,0,6.204,0.952,8.115,2.856C322.838,694.905,323.793,697.506,323.793,700.803z M315.884,705.677
			c0.417-0.512,0.729-1.128,0.938-1.848c0.208-0.721,0.312-1.717,0.312-2.991c0-1.178-0.107-2.166-0.321-2.963
			c-0.214-0.798-0.512-1.435-0.893-1.911c-0.381-0.487-0.839-0.833-1.375-1.035s-1.113-0.304-1.732-0.304
			c-0.619,0-1.169,0.084-1.651,0.25c-0.482,0.167-0.943,0.5-1.384,1c-0.393,0.464-0.705,1.101-0.938,1.91
			c-0.232,0.81-0.348,1.827-0.348,3.053c0,1.096,0.101,2.045,0.304,2.848c0.202,0.804,0.5,1.449,0.893,1.938
			c0.381,0.464,0.836,0.804,1.366,1.018c0.53,0.215,1.134,0.321,1.812,0.321c0.583,0,1.14-0.098,1.669-0.294
			C315.065,706.471,315.515,706.141,315.884,705.677z"/>
		<path style="fill:#1A5436;" d="M340.739,687.751h-0.48c-0.285-0.083-0.656-0.178-1.113-0.285s-0.947-0.161-1.469-0.161
			c-1.258,0-2.11,0.227-2.555,0.679c-0.445,0.452-0.668,1.327-0.668,2.625v0.16h4.946v4.356h-4.731v15.693h-6.445v-15.693h-2.75
			v-4.356h2.75v-0.554c0-2.451,0.652-4.29,1.955-5.517c1.303-1.226,3.276-1.839,5.918-1.839c0.952,0,1.815,0.033,2.589,0.099
			s1.458,0.151,2.053,0.259V687.751z"/>
		<path style="fill:#1A5436;" d="M355.524,687.751h-0.48c-0.285-0.083-0.656-0.178-1.113-0.285s-0.947-0.161-1.469-0.161
			c-1.258,0-2.11,0.227-2.555,0.679c-0.445,0.452-0.668,1.327-0.668,2.625v0.16h4.946v4.356h-4.731v15.693h-6.445v-15.693h-2.75
			v-4.356h2.75v-0.554c0-2.451,0.652-4.29,1.955-5.517c1.303-1.226,3.276-1.839,5.918-1.839c0.952,0,1.815,0.033,2.589,0.099
			s1.458,0.151,2.053,0.259V687.751z"/>
		<path style="fill:#1A5436;" d="M377.059,701.98h-14.712c0.095,1.571,0.693,2.774,1.794,3.607c1.101,0.833,2.723,1.249,4.865,1.249
			c1.357,0,2.672-0.243,3.946-0.731c1.273-0.488,2.279-1.012,3.017-1.571h0.714v5.159c-1.452,0.584-2.821,1.007-4.106,1.269
			c-1.286,0.261-2.708,0.393-4.267,0.393c-4.023,0-7.106-0.904-9.249-2.714c-2.142-1.81-3.213-4.386-3.213-7.73
			c0-3.31,1.015-5.931,3.044-7.865c2.029-1.934,4.812-2.901,8.347-2.901c3.261,0,5.713,0.824,7.356,2.473
			c1.643,1.649,2.464,4.021,2.464,7.115V701.98z M370.667,698.214c-0.036-1.345-0.369-2.356-1-3.035s-1.613-1.018-2.946-1.018
			c-1.238,0-2.256,0.321-3.053,0.964s-1.244,1.673-1.339,3.089H370.667z"/>
		<path style="fill:#1A5436;" d="M400.682,701.98H385.97c0.095,1.571,0.693,2.774,1.794,3.607s2.723,1.249,4.865,1.249
			c1.357,0,2.672-0.243,3.946-0.731c1.273-0.488,2.279-1.012,3.017-1.571h0.715v5.159c-1.452,0.584-2.821,1.007-4.106,1.269
			c-1.286,0.261-2.708,0.393-4.268,0.393c-4.023,0-7.105-0.904-9.248-2.714s-3.214-4.386-3.214-7.73c0-3.31,1.015-5.931,3.044-7.865
			c2.029-1.934,4.812-2.901,8.347-2.901c3.262,0,5.714,0.824,7.356,2.473c1.643,1.649,2.464,4.021,2.464,7.115V701.98z
			 M394.289,698.214c-0.035-1.345-0.368-2.356-0.999-3.035s-1.613-1.018-2.946-1.018c-1.238,0-2.256,0.321-3.053,0.964
			c-0.798,0.643-1.244,1.673-1.339,3.089H394.289z"/>
		<path style="fill:#1A5436;" d="M423.021,687.912h-6.803v-4.874h6.803V687.912z M422.843,710.818h-6.445v-20.05h6.445V710.818z"/>
		<path style="fill:#1A5436;" d="M445.662,704.463c0,2.07-0.928,3.74-2.785,5.008c-1.856,1.268-4.397,1.901-7.623,1.901
			c-1.785,0-3.404-0.167-4.856-0.5s-2.619-0.702-3.499-1.106v-5.285h0.589c0.321,0.227,0.693,0.473,1.116,0.741
			c0.422,0.268,1.021,0.557,1.794,0.865c0.666,0.274,1.422,0.509,2.268,0.706c0.845,0.196,1.749,0.294,2.714,0.294
			c1.261,0,2.195-0.14,2.803-0.419c0.607-0.28,0.91-0.693,0.91-1.241c0-0.488-0.178-0.842-0.535-1.062
			c-0.357-0.22-1.035-0.431-2.035-0.634c-0.477-0.107-1.122-0.223-1.938-0.348s-1.557-0.277-2.223-0.456
			c-1.821-0.476-3.172-1.217-4.053-2.223s-1.321-2.258-1.321-3.758c0-1.929,0.913-3.532,2.74-4.812s4.324-1.92,7.49-1.92
			c1.5,0,2.937,0.152,4.312,0.456c1.375,0.303,2.449,0.628,3.223,0.973v5.07h-0.554c-0.952-0.654-2.038-1.188-3.258-1.598
			c-1.221-0.411-2.455-0.616-3.705-0.616c-1.035,0-1.907,0.143-2.615,0.429c-0.709,0.285-1.062,0.69-1.062,1.214
			c0,0.477,0.16,0.839,0.482,1.089c0.321,0.25,1.076,0.5,2.267,0.75c0.655,0.131,1.36,0.259,2.116,0.384s1.515,0.283,2.276,0.474
			c1.689,0.44,2.939,1.134,3.749,2.08S445.662,703.046,445.662,704.463z"/>
		<path style="fill:#1A5436;" d="M475.645,696.893h-0.57c-0.273-0.095-0.713-0.167-1.318-0.214c-0.605-0.048-1.11-0.072-1.515-0.072
			c-0.914,0-1.722,0.061-2.423,0.179c-0.7,0.119-1.455,0.321-2.262,0.607v13.426h-6.445v-20.05h6.445v2.946
			c1.413-1.214,2.643-2.021,3.688-2.42c1.045-0.398,2.007-0.598,2.886-0.598c0.226,0,0.481,0.006,0.766,0.018
			c0.285,0.013,0.535,0.03,0.749,0.054V696.893z"/>
		<path style="fill:#1A5436;" d="M498.375,701.98h-14.712c0.095,1.571,0.693,2.774,1.794,3.607s2.723,1.249,4.865,1.249
			c1.357,0,2.672-0.243,3.946-0.731c1.273-0.488,2.279-1.012,3.017-1.571H498v5.159c-1.452,0.584-2.821,1.007-4.106,1.269
			c-1.286,0.261-2.708,0.393-4.268,0.393c-4.023,0-7.105-0.904-9.248-2.714s-3.214-4.386-3.214-7.73c0-3.31,1.015-5.931,3.044-7.865
			c2.029-1.934,4.812-2.901,8.347-2.901c3.262,0,5.714,0.824,7.356,2.473c1.643,1.649,2.464,4.021,2.464,7.115V701.98z
			 M491.982,698.214c-0.035-1.345-0.368-2.356-0.999-3.035s-1.613-1.018-2.946-1.018c-1.238,0-2.256,0.321-3.053,0.964
			c-0.798,0.643-1.244,1.673-1.339,3.089H491.982z"/>
		<path style="fill:#1A5436;" d="M514.392,708.694c-0.345,0.262-0.773,0.577-1.285,0.946s-0.994,0.66-1.446,0.874
			c-0.631,0.286-1.285,0.497-1.964,0.634s-1.423,0.206-2.231,0.206c-1.904,0-3.5-0.59-4.785-1.768
			c-1.285-1.179-1.928-2.685-1.928-4.518c0-1.464,0.327-2.66,0.981-3.588c0.654-0.929,1.583-1.661,2.785-2.196
			c1.19-0.536,2.666-0.917,4.428-1.143c1.762-0.227,3.589-0.393,5.481-0.5v-0.107c0-1.106-0.452-1.871-1.357-2.294
			c-0.904-0.423-2.237-0.634-3.999-0.634c-1.06,0-2.19,0.188-3.393,0.562s-2.064,0.663-2.588,0.865h-0.59v-4.838
			c0.679-0.179,1.782-0.39,3.312-0.634c1.529-0.244,3.062-0.366,4.597-0.366c3.654,0,6.294,0.562,7.919,1.688
			c1.624,1.125,2.437,2.89,2.437,5.293v13.641h-6.374V708.694z M514.392,705.574v-4.165c-0.869,0.072-1.81,0.17-2.82,0.294
			c-1.012,0.125-1.78,0.27-2.304,0.437c-0.643,0.201-1.134,0.495-1.473,0.881s-0.509,0.893-0.509,1.521
			c0,0.415,0.035,0.753,0.107,1.015c0.071,0.261,0.25,0.51,0.535,0.747c0.273,0.237,0.601,0.412,0.982,0.525
			c0.381,0.112,0.976,0.169,1.785,0.169c0.643,0,1.294-0.131,1.955-0.392C513.312,706.346,513.892,706.001,514.392,705.574z"/>
		<path style="fill:#1A5436;" d="M545.514,710.818h-6.445v-2.089c-1.105,0.905-2.14,1.571-3.103,2s-2.074,0.643-3.335,0.643
			c-2.437,0-4.387-0.94-5.849-2.821c-1.462-1.88-2.193-4.415-2.193-7.605c0-1.702,0.247-3.211,0.74-4.526
			c0.493-1.314,1.168-2.442,2.024-3.383c0.808-0.893,1.788-1.586,2.941-2.08s2.307-0.741,3.46-0.741c1.2,0,2.185,0.128,2.951,0.384
			c0.767,0.257,1.554,0.581,2.362,0.974v-8.534h6.445V710.818z M539.068,705.3v-9.853c-0.451-0.19-0.926-0.328-1.425-0.411
			c-0.499-0.084-0.956-0.125-1.372-0.125c-1.687,0-2.951,0.527-3.794,1.582c-0.843,1.056-1.265,2.519-1.265,4.39
			c0,1.968,0.338,3.395,1.015,4.283c0.677,0.888,1.764,1.332,3.261,1.332c0.582,0,1.199-0.11,1.853-0.331
			S538.569,705.657,539.068,705.3z"/>
		<path style="fill:#1A5436;" d="M559.969,703.729l4.575-12.961h6.61l-11.141,27.406h-6.977l3.188-7.51l-7.798-19.896h6.75
			L559.969,703.729z"/>
		<path style="fill:#1A5436;" d="M582.119,684.234l-0.821,18.925h-5.82l-0.821-18.925H582.119z M581.994,710.818h-7.213v-4.713
			h7.213V710.818z"/>
	</g>
	<line style="fill:#FFFFFF;stroke:#7F7E7E;stroke-miterlimit:10;" x1="30.616" y1="927.991" x2="719.319" y2="927.991"/>
	<g>
		<path style="fill:#1A5436;" d="M66.35,243.312l-5.833,22.442h-3.361l-4.717-18.629l-4.612,18.629h-3.286l-5.938-22.442h3.06
			l4.717,18.659l4.642-18.659h3.029l4.688,18.84l4.688-18.84H66.35z"/>
		<path style="fill:#1A5436;" d="M84.046,265.753h-2.833v-9.585c0-0.774-0.045-1.5-0.136-2.178c-0.09-0.678-0.256-1.208-0.497-1.59
			c-0.251-0.422-0.613-0.736-1.085-0.942s-1.085-0.309-1.838-0.309c-0.774,0-1.583,0.191-2.427,0.573s-1.653,0.869-2.427,1.462
			v12.57h-2.833v-23.452h2.833v8.485c0.884-0.733,1.799-1.306,2.743-1.718c0.944-0.412,1.914-0.618,2.909-0.618
			c1.819,0,3.206,0.548,4.16,1.643c0.954,1.095,1.432,2.673,1.432,4.732V265.753z"/>
		<path style="fill:#1A5436;" d="M91.992,246.1h-3.195v-2.939h3.195V246.1z M91.811,265.753h-2.833v-16.835h2.833V265.753z"/>
		<path style="fill:#1A5436;" d="M99.725,265.753h-2.833v-23.452h2.833V265.753z"/>
		<path style="fill:#1A5436;" d="M118.868,257.63h-12.404c0,1.035,0.156,1.937,0.467,2.705c0.312,0.769,0.739,1.399,1.281,1.892
			c0.522,0.482,1.143,0.844,1.861,1.085c0.718,0.241,1.51,0.361,2.374,0.361c1.146,0,2.298-0.228,3.459-0.686
			c1.16-0.457,1.987-0.907,2.479-1.349h0.151v3.09c-0.955,0.402-1.929,0.739-2.924,1.01c-0.995,0.271-2.04,0.407-3.135,0.407
			c-2.793,0-4.974-0.756-6.541-2.269s-2.351-3.66-2.351-6.443c0-2.753,0.751-4.938,2.253-6.556c1.502-1.618,3.479-2.426,5.931-2.426
			c2.271,0,4.021,0.663,5.252,1.989c1.23,1.326,1.846,3.21,1.846,5.652V257.63z M116.11,255.459
			c-0.01-1.487-0.384-2.638-1.123-3.452c-0.739-0.813-1.861-1.221-3.369-1.221c-1.517,0-2.726,0.447-3.625,1.341
			c-0.899,0.895-1.409,2.005-1.53,3.331H116.11z"/>
		<path style="fill:#1A5436;" d="M147.464,248.918l-9.827,23.044h-3.03l3.135-7.023l-6.707-16.021h3.075l5.169,12.479l5.215-12.479
			H147.464z"/>
		<path style="fill:#1A5436;" d="M164.693,257.343c0,2.743-0.704,4.909-2.11,6.496c-1.407,1.588-3.291,2.381-5.652,2.381
			c-2.381,0-4.273-0.793-5.674-2.381c-1.402-1.587-2.103-3.753-2.103-6.496s0.701-4.911,2.103-6.503
			c1.401-1.592,3.293-2.389,5.674-2.389c2.361,0,4.245,0.796,5.652,2.389C163.989,252.433,164.693,254.6,164.693,257.343z
			 M161.769,257.343c0-2.18-0.427-3.8-1.281-4.86s-2.04-1.59-3.557-1.59c-1.537,0-2.73,0.53-3.58,1.59s-1.273,2.68-1.273,4.86
			c0,2.11,0.427,3.71,1.281,4.8c0.854,1.09,2.044,1.635,3.572,1.635c1.507,0,2.69-0.54,3.549-1.62
			C161.339,261.079,161.769,259.474,161.769,257.343z"/>
		<path style="fill:#1A5436;" d="M182.479,265.753h-2.833v-1.869c-0.955,0.754-1.869,1.332-2.743,1.733
			c-0.874,0.402-1.838,0.603-2.894,0.603c-1.769,0-3.145-0.54-4.13-1.62s-1.477-2.665-1.477-4.755v-10.927h2.833v9.585
			c0,0.854,0.04,1.585,0.121,2.193s0.251,1.128,0.513,1.56c0.271,0.442,0.623,0.764,1.055,0.964c0.432,0.201,1.06,0.302,1.884,0.302
			c0.733,0,1.535-0.191,2.404-0.573s1.681-0.869,2.434-1.462v-12.57h2.833V265.753z"/>
		<path style="fill:#1A5436;" d="M210.879,265.753h-2.818v-1.793c-0.251,0.171-0.59,0.41-1.018,0.716
			c-0.427,0.307-0.841,0.55-1.243,0.731c-0.473,0.231-1.015,0.424-1.628,0.58s-1.332,0.234-2.155,0.234
			c-1.517,0-2.803-0.502-3.858-1.507c-1.055-1.004-1.583-2.286-1.583-3.843c0-1.276,0.274-2.308,0.821-3.097
			c0.548-0.789,1.329-1.409,2.344-1.861c1.025-0.452,2.256-0.759,3.693-0.919c1.437-0.161,2.979-0.281,4.627-0.362v-0.437
			c0-0.643-0.113-1.176-0.339-1.598s-0.55-0.753-0.972-0.995c-0.402-0.231-0.884-0.387-1.447-0.467
			c-0.563-0.08-1.15-0.121-1.763-0.121c-0.744,0-1.573,0.098-2.487,0.294c-0.915,0.196-1.859,0.48-2.833,0.852h-0.151v-2.879
			c0.552-0.15,1.351-0.316,2.396-0.497c1.045-0.181,2.075-0.271,3.09-0.271c1.185,0,2.218,0.098,3.097,0.294
			c0.879,0.196,1.64,0.53,2.283,1.002c0.633,0.462,1.115,1.06,1.447,1.793s0.498,1.643,0.498,2.728V265.753z M208.061,261.609
			v-4.688c-0.864,0.05-1.882,0.126-3.052,0.226c-1.17,0.101-2.098,0.246-2.781,0.437c-0.814,0.231-1.472,0.59-1.974,1.078
			c-0.503,0.487-0.754,1.158-0.754,2.012c0,0.964,0.292,1.69,0.875,2.178c0.583,0.487,1.472,0.731,2.667,0.731
			c0.995,0,1.904-0.193,2.728-0.58C206.593,262.616,207.357,262.151,208.061,261.609z"/>
		<path style="fill:#1A5436;" d="M226.284,252.008h-0.151c-0.422-0.1-0.832-0.173-1.229-0.218c-0.397-0.045-0.867-0.068-1.409-0.068
			c-0.874,0-1.718,0.193-2.532,0.58c-0.814,0.387-1.598,0.887-2.352,1.5v11.952h-2.833v-16.835h2.833v2.487
			c1.125-0.904,2.118-1.545,2.977-1.922c0.859-0.377,1.735-0.565,2.63-0.565c0.492,0,0.849,0.013,1.07,0.038
			c0.221,0.025,0.553,0.073,0.995,0.143V252.008z"/>
		<path style="fill:#1A5436;" d="M242.488,257.63h-12.404c0,1.035,0.156,1.937,0.467,2.705c0.312,0.769,0.739,1.399,1.281,1.892
			c0.522,0.482,1.143,0.844,1.861,1.085c0.718,0.241,1.51,0.361,2.374,0.361c1.146,0,2.298-0.228,3.459-0.686
			c1.16-0.457,1.987-0.907,2.479-1.349h0.151v3.09c-0.955,0.402-1.929,0.739-2.924,1.01c-0.995,0.271-2.04,0.407-3.135,0.407
			c-2.793,0-4.974-0.756-6.541-2.269s-2.351-3.66-2.351-6.443c0-2.753,0.751-4.938,2.253-6.556c1.502-1.618,3.479-2.426,5.931-2.426
			c2.271,0,4.021,0.663,5.252,1.989c1.23,1.326,1.846,3.21,1.846,5.652V257.63z M239.73,255.459
			c-0.01-1.487-0.384-2.638-1.123-3.452c-0.739-0.813-1.861-1.221-3.369-1.221c-1.517,0-2.726,0.447-3.625,1.341
			c-0.899,0.895-1.409,2.005-1.53,3.331H239.73z"/>
		<path style="fill:#1A5436;" d="M277.7,248.918l-4.386,16.835h-2.623l-4.325-12.977l-4.296,12.977h-2.607l-4.431-16.835h2.954
			l3.09,13.037l4.205-13.037h2.336l4.311,13.037l2.924-13.037H277.7z"/>
		<path style="fill:#1A5436;" d="M294.01,265.753h-2.818v-1.793c-0.251,0.171-0.59,0.41-1.018,0.716
			c-0.427,0.307-0.841,0.55-1.243,0.731c-0.473,0.231-1.015,0.424-1.628,0.58s-1.332,0.234-2.155,0.234
			c-1.517,0-2.803-0.502-3.858-1.507c-1.055-1.004-1.583-2.286-1.583-3.843c0-1.276,0.274-2.308,0.821-3.097
			c0.548-0.789,1.329-1.409,2.344-1.861c1.025-0.452,2.256-0.759,3.693-0.919c1.437-0.161,2.979-0.281,4.627-0.362v-0.437
			c0-0.643-0.113-1.176-0.339-1.598s-0.55-0.753-0.972-0.995c-0.402-0.231-0.884-0.387-1.447-0.467
			c-0.563-0.08-1.15-0.121-1.763-0.121c-0.744,0-1.573,0.098-2.487,0.294c-0.915,0.196-1.859,0.48-2.833,0.852h-0.151v-2.879
			c0.552-0.15,1.351-0.316,2.396-0.497c1.045-0.181,2.075-0.271,3.09-0.271c1.185,0,2.218,0.098,3.097,0.294
			c0.879,0.196,1.64,0.53,2.283,1.002c0.633,0.462,1.115,1.06,1.447,1.793s0.498,1.643,0.498,2.728V265.753z M291.192,261.609
			v-4.688c-0.864,0.05-1.882,0.126-3.052,0.226c-1.17,0.101-2.098,0.246-2.781,0.437c-0.814,0.231-1.472,0.59-1.974,1.078
			c-0.503,0.487-0.754,1.158-0.754,2.012c0,0.964,0.292,1.69,0.875,2.178c0.583,0.487,1.472,0.731,2.667,0.731
			c0.995,0,1.904-0.193,2.728-0.58C289.725,262.616,290.488,262.151,291.192,261.609z"/>
		<path style="fill:#1A5436;" d="M301.955,246.1h-3.195v-2.939h3.195V246.1z M301.774,265.753h-2.833v-16.835h2.833V265.753z"/>
		<path style="fill:#1A5436;" d="M315.566,265.603c-0.533,0.141-1.113,0.256-1.741,0.347s-1.188,0.136-1.681,0.136
			c-1.718,0-3.024-0.462-3.918-1.387c-0.895-0.924-1.341-2.406-1.341-4.446V251.3h-1.914v-2.381h1.914v-4.838h2.833v4.838h5.848
			v2.381h-5.848v7.671c0,0.884,0.02,1.575,0.06,2.072s0.181,0.962,0.422,1.394c0.221,0.402,0.525,0.696,0.912,0.882
			s0.977,0.279,1.771,0.279c0.462,0,0.944-0.068,1.447-0.204c0.502-0.135,0.864-0.249,1.085-0.339h0.15V265.603z"/>
		<path style="fill:#1A5436;" d="M321.477,246.1h-3.195v-2.939h3.195V246.1z M321.296,265.753h-2.833v-16.835h2.833V265.753z"/>
		<path style="fill:#1A5436;" d="M340.424,265.753h-2.833v-9.585c0-0.774-0.045-1.5-0.136-2.178c-0.09-0.678-0.256-1.208-0.497-1.59
			c-0.251-0.422-0.613-0.736-1.085-0.942s-1.085-0.309-1.838-0.309c-0.774,0-1.583,0.191-2.427,0.573s-1.653,0.869-2.427,1.462
			v12.57h-2.833v-16.835h2.833v1.869c0.884-0.733,1.799-1.306,2.743-1.718c0.944-0.412,1.914-0.618,2.909-0.618
			c1.819,0,3.206,0.548,4.16,1.643c0.954,1.095,1.432,2.673,1.432,4.732V265.753z"/>
		<path style="fill:#1A5436;" d="M358.979,263.839c0,2.854-0.648,4.948-1.944,6.285s-3.291,2.005-5.983,2.005
			c-0.895,0-1.766-0.063-2.615-0.188c-0.849-0.126-1.686-0.304-2.509-0.535v-2.894h0.15c0.462,0.181,1.195,0.404,2.2,0.67
			s2.01,0.399,3.015,0.399c0.965,0,1.764-0.116,2.396-0.347s1.125-0.553,1.477-0.964c0.352-0.392,0.604-0.864,0.754-1.417
			s0.226-1.17,0.226-1.854v-1.538c-0.854,0.684-1.67,1.193-2.449,1.53c-0.778,0.337-1.771,0.505-2.977,0.505
			c-2.01,0-3.604-0.726-4.785-2.178c-1.181-1.452-1.771-3.499-1.771-6.142c0-1.447,0.203-2.695,0.61-3.746
			c0.407-1.05,0.962-1.957,1.665-2.72c0.653-0.713,1.447-1.269,2.382-1.666s1.863-0.595,2.788-0.595
			c0.975,0,1.791,0.098,2.449,0.294c0.658,0.196,1.354,0.495,2.087,0.896l0.182-0.723h2.652V263.839z M356.146,261.126v-9.179
			c-0.753-0.341-1.454-0.585-2.103-0.731c-0.647-0.146-1.293-0.219-1.937-0.219c-1.558,0-2.783,0.522-3.678,1.567
			c-0.894,1.045-1.341,2.562-1.341,4.552c0,1.889,0.331,3.321,0.995,4.295c0.663,0.975,1.763,1.462,3.3,1.462
			c0.824,0,1.65-0.158,2.479-0.475S355.452,261.659,356.146,261.126z"/>
		<path style="fill:#1A5436;" d="M368.627,265.753h-3.602v-4.295h3.602V265.753z"/>
		<path style="fill:#1A5436;" d="M379.3,265.753h-3.602v-4.295h3.602V265.753z"/>
		<path style="fill:#1A5436;" d="M389.973,265.753h-3.602v-4.295h3.602V265.753z"/>
	</g>
</g>
<g id="carrier">
	<circle style="fill:#54B848;" cx="379.837" cy="547.205" r="78.5"/>
	<g>
		<g>
			<path style="fill:#FFFFFF;" d="M344.012,561.468c7.664,7.664,15.329,15.329,22.993,22.993c1.909,1.909,5.157,1.914,7.071,0
				c16.399-16.399,32.797-32.797,49.196-49.196c4.556-4.556-2.513-11.629-7.071-7.071c-16.399,16.399-32.797,32.797-49.196,49.196
				c2.357,0,4.714,0,7.071,0c-7.664-7.664-15.329-15.329-22.993-22.993C346.527,549.84,339.454,556.909,344.012,561.468
				L344.012,561.468z"/>
		</g>
	</g>
</g>
<g id="ai2html-settings">
	<rect x="-450" style="fill:none;" width="400" height="462"/>
	<text transform="matrix(1 0 0 1 -450 10.6499)" style="display:none;"><tspan x="0" y="0" style="display:inline; font-family:'MyriadPro-Regular'; font-size:15px;">ai2html-settings</tspan><tspan x="0" y="18" style="display:inline; font-family:'MyriadPro-Regular'; font-size:15px;">settings_version: 0.61</tspan><tspan x="0" y="36" style="display:inline; font-family:'MyriadPro-Regular'; font-size:15px;">image_format: svg</tspan><tspan x="0" y="54" style="display:inline; font-family:'MyriadPro-Regular'; font-size:15px;">responsiveness: fixed</tspan><tspan x="0" y="72" style="display:inline; font-family:'MyriadPro-Regular'; font-size:15px;">output: one-file</tspan><tspan x="0" y="90" style="display:inline; font-family:'MyriadPro-Regular'; font-size:15px;">html_output_path: /ai2html-output/</tspan><tspan x="0" y="108" style="display:inline; font-family:'MyriadPro-Regular'; font-size:15px;">html_output_extension: .html</tspan><tspan x="0" y="126" style="display:inline; font-family:'MyriadPro-Regular'; font-size:15px;">image_output_path: </tspan><tspan x="0" y="144" style="display:inline; font-family:'MyriadPro-Regular'; font-size:15px;">local_preview_template: </tspan><tspan x="0" y="162" style="display:inline; font-family:'MyriadPro-Regular'; font-size:15px;">png_number_of_colors: 128</tspan><tspan x="0" y="180" style="display:inline; font-family:'MyriadPro-Regular'; font-size:15px;">jpg_quality: 60</tspan><tspan x="0" y="198" style="display:inline; font-family:'MyriadPro-Regular'; font-size:15px;">headline: Ai Graphic Headline</tspan><tspan x="0" y="216" style="display:inline; font-family:'MyriadPro-Regular'; font-size:15px;">leadin: Introductory text here.</tspan><tspan x="0" y="234" style="display:inline; font-family:'MyriadPro-Regular'; font-size:15px;">notes: Notes: Text goes here.</tspan><tspan x="0" y="252" style="display:inline; font-family:'MyriadPro-Regular'; font-size:15px;">sources: Source: Name goes here.</tspan><tspan x="0" y="270" style="display:inline; font-family:'MyriadPro-Regular'; font-size:15px;">credit: By ai2html</tspan></text>
</g>
</svg>
