<?xml version="1.0" encoding="utf-8"?>
<!-- Generator: Adobe Illustrator 20.1.0, SVG Export Plug-In . SVG Version: 6.00 Build 0)  -->
<svg version="1.1" xmlns="http://www.w3.org/2000/svg" xmlns:xlink="http://www.w3.org/1999/xlink" x="0px" y="0px"
	 viewBox="0 0 750 1334" style="enable-background:new 0 0 750 1334;" xml:space="preserve">
<g id="background">
	<rect x="0.861" style="fill:#E5E5E5;" width="749.139" height="1334"/>
</g>
<g id="halfway" style="display:none;">
	
		<line style="display:inline;stroke:#FFFFFF;stroke-width:8;stroke-miterlimit:10;" x1="373.41" y1="-45.588" x2="375.431" y2="1556"/>
</g>
<g id="stuff">
	
		<linearGradient id="SVGID_1_" gradientUnits="userSpaceOnUse" x1="-811.2264" y1="-430.1606" x2="-811.2264" y2="-418.8199" gradientTransform="matrix(-1 0 0 -1 1078.2428 1083.6001)">
		<stop  offset="0" style="stop-color:#000000;stop-opacity:0"/>
		<stop  offset="1" style="stop-color:#000000;stop-opacity:0.4"/>
	</linearGradient>
	<path style="display:none;fill:url(#SVGID_1_);" d="M1514.112,1529.904v-26.365c0-0.001,0.006-0.001,0.014-0.001h750.687
		c0.008,0,0.014,0.001,0.014,0.001v26.366h-750.7C1514.118,1529.905,1514.112,1529.905,1514.112,1529.904z"/>
	
		<radialGradient id="SVGID_2_" cx="1766.9017" cy="137.6755" r="62.3849" gradientTransform="matrix(1 0 0 1 0 -11.658)" gradientUnits="userSpaceOnUse">
		<stop  offset="0" style="stop-color:#000000"/>
		<stop  offset="0.2473" style="stop-color:#020202;stop-opacity:0.9994"/>
		<stop  offset="0.3363" style="stop-color:#090808;stop-opacity:0.9992"/>
		<stop  offset="0.3996" style="stop-color:#141213;stop-opacity:0.999"/>
		<stop  offset="0.4453" style="stop-color:#231F20;stop-opacity:0.9989"/>
		<stop  offset="0.6651" style="stop-color:#181616;stop-opacity:0.603"/>
		<stop  offset="1" style="stop-color:#000000;stop-opacity:0"/>
	</radialGradient>
	<ellipse style="display:none;fill:url(#SVGID_2_);" cx="1766.902" cy="126.017" rx="66.744" ry="67.419"/>
	<circle style="display:none;fill:#377ABD;" cx="1766.902" cy="115.987" r="59.622"/>
	<rect x="0" y="0" style="fill:#1A5436;" width="750" height="175.271"/>
	<g>
		<path style="fill:#FFFFFF;" d="M-167.229,108.644h-54.299c-0.659,0-1.193-0.534-1.193-1.193v-3.581
			c0-0.659,0.534-1.193,1.193-1.193h54.299c0.659,0,1.193,0.534,1.193,1.193v3.581C-166.036,108.11-166.57,108.644-167.229,108.644z
			"/>
		<path style="fill:#FFFFFF;" d="M-167.229,124.369h-54.299c-0.659,0-1.193-0.534-1.193-1.193v-3.581
			c0-0.659,0.534-1.193,1.193-1.193h54.299c0.659,0,1.193,0.534,1.193,1.193v3.581C-166.036,123.835-166.57,124.369-167.229,124.369
			z"/>
		<path style="fill:#FFFFFF;" d="M-167.229,140.093h-54.299c-0.659,0-1.193-0.534-1.193-1.193v-3.581
			c0-0.659,0.534-1.193,1.193-1.193h54.299c0.659,0,1.193,0.534,1.193,1.193v3.581C-166.036,139.559-166.57,140.093-167.229,140.093
			z"/>
	</g>
	<line style="display:none;fill:none;" x1="991.687" y1="1614.73" x2="991.687" y2="1705.213"/>
	<line style="display:none;fill:none;" x1="1240.634" y1="1614.73" x2="1240.634" y2="1705.213"/>
	<rect x="803.462" y="175.271" style="display:none;fill:#FFFFFF;" width="748.721" height="90.483"/>
	<line style="display:none;fill:#FFFFFF;" x1="991.687" y1="1614.73" x2="991.687" y2="1705.213"/>
	<line style="display:none;fill:#FFFFFF;" x1="1240.634" y1="1614.73" x2="1240.634" y2="1705.213"/>
	<g>
		
			<text transform="matrix(1 0 0 1 -804.5032 232.9353)" style="fill:#666666; font-family:'HelveticaNeue-Bold'; font-size:28.6042px;">Dashboard</text>
	</g>
	<g>
		
			<text transform="matrix(1 0 0 1 -541.8567 232.9353)" style="fill:#999696; font-family:'HelveticaNeue-Medium'; font-size:30px;">Inventory</text>
	</g>
	<g>
		<text transform="matrix(1 0 0 1 -287.46 232.9353)" style="fill:#999696; font-family:'HelveticaNeue-Medium'; font-size:30px;">Schedule</text>
	</g>
	<circle style="display:none;fill:#377ABD;" cx="1766.902" cy="115.987" r="59.622"/>
	<g>
		<path style="fill:#FFFFFF;" d="M1780.039,96.74v-4.931c0-1.508-1.326-2.954-2.885-2.885c-1.563,0.071-2.885,1.268-2.885,2.885
			v4.488h-4.482v-4.859c0-1.51-1.327-2.956-2.885-2.885c-1.563,0.071-2.885,1.268-2.885,2.885v4.859h-4.482v-4.859
			c0-1.51-1.327-2.956-2.885-2.885c-1.563,0.071-2.885,1.268-2.885,2.885v5.301c-5.989,1.548-10.424,6.999-10.424,13.463v19.314
			c0,7.669,6.237,13.906,13.904,13.906h19.316c7.667,0,13.906-6.237,13.906-13.906v-19.314
			C1790.464,103.739,1786.027,98.289,1780.039,96.74z M1783.732,129.517c0,3.956-3.219,7.173-7.173,7.173h-19.316
			c-3.954,0-7.172-3.217-7.172-7.173v-19.314c0-2.693,1.491-5.045,3.692-6.269v3.214c0,1.51,1.327,2.956,2.885,2.885
			c1.563-0.071,2.885-1.268,2.885-2.885v-4.118h4.482v4.118c0,1.51,1.327,2.956,2.885,2.885c1.563-0.071,2.885-1.268,2.885-2.885
			v-4.118h4.482v4.488c0,1.51,1.327,2.956,2.885,2.885c1.564-0.069,2.885-1.268,2.885-2.885v-3.584
			c2.201,1.225,3.693,3.576,3.693,6.269V129.517z"/>
	</g>
	<rect x="1129.984" y="2177.22" style="display:none;fill:#FFFFFF;" width="360.107" height="302.876"/>
	<rect x="740.952" y="2177.22" style="display:none;fill:#FFFFFF;" width="352.428" height="302.876"/>
	<rect x="740.952" y="1470.841" style="display:none;fill:#FFFFFF;" width="749.139" height="302.876"/>
	
		<rect x="838.371" y="296.358" style="display:none;fill:#FFFFFF;stroke:#B5B5B5;stroke-miterlimit:10;" width="678.903" height="302.876"/>
	<rect x="30.977" y="298.685" style="fill:#FFFFFF;stroke:#C4C4C4;stroke-miterlimit:10;" width="687.981" height="644.773"/>
	<path style="fill:#F4F4F4;stroke:#1A5436;stroke-width:2;stroke-miterlimit:10;" d="M672.337,758h-585c-6.075,0-11-4.925-11-11v-84
		c0-6.075,4.925-11,11-11h585c6.075,0,11,4.925,11,11v84C683.337,753.075,678.412,758,672.337,758z"/>
	<rect x="-686.043" y="764.55" style="display:none;fill:#54B848;" width="642.354" height="121.53"/>
	<rect x="-686.043" y="927.991" style="display:none;fill:#FFFFFF;" width="642.354" height="121.53"/>
	<g>
		
			<text transform="matrix(1 0 0 1 -781.1496 348.73)" style="fill:#666666; font-family:'HelveticaNeue-Bold'; font-size:33.0184px;">SUPER FRESH RENTALS</text>
	</g>
	<g>
		<text transform="matrix(1 0 0 1 1016.9843 1631.7384)" style="fill:#1A5436; font-family:'OpenSans'; font-size:30.0259px;">WITHDRAW MONEY</text>
	</g>
	
		<text transform="matrix(1 0 0 1 -176.2454 510.2813)" style="fill:#1A5436; font-family:'HelveticaNeue-Bold'; font-size:39.374px;">SIG</text>
	
		<text transform="matrix(1 0 0 1 -542.8491 839.7007)" style="fill:#FFFFFF; font-family:'HelveticaNeue-Bold'; font-size:39.374px;">Existing Customer</text>
	<rect x="73.229" y="788.214" style="fill:#1A5436;" width="610.108" height="106.638"/>
	<g>
		<path style="fill:#FFFFFF;" d="M350.255,849.084c0,1.16-0.233,2.197-0.701,3.11c-0.467,0.913-1.109,1.671-1.925,2.272
			c-0.945,0.709-1.985,1.213-3.118,1.514c-1.134,0.301-2.57,0.451-4.311,0.451h-10.474v-23.992h9.313
			c1.934,0,3.349,0.064,4.246,0.193c0.896,0.129,1.786,0.414,2.667,0.854c0.913,0.463,1.592,1.083,2.039,1.861
			c0.445,0.779,0.668,1.668,0.668,2.667c0,1.16-0.306,2.183-0.918,3.069s-1.477,1.576-2.594,2.07v0.129
			c1.568,0.312,2.812,0.957,3.73,1.934C349.796,846.195,350.255,847.484,350.255,849.084z M342.327,839.223
			c0-0.396-0.1-0.795-0.298-1.191c-0.199-0.398-0.551-0.693-1.056-0.887c-0.451-0.172-1.013-0.266-1.684-0.281
			c-0.672-0.018-1.614-0.025-2.828-0.025h-0.58v5.076h0.967c0.978,0,1.81-0.016,2.498-0.049c0.688-0.031,1.23-0.139,1.627-0.322
			c0.559-0.246,0.924-0.566,1.096-0.959C342.241,840.193,342.327,839.738,342.327,839.223z M343.826,848.988
			c0-0.764-0.147-1.352-0.442-1.766c-0.295-0.412-0.796-0.722-1.503-0.926c-0.482-0.14-1.147-0.215-1.994-0.226
			c-0.847-0.011-1.731-0.017-2.653-0.017h-1.351v5.979h0.45c1.737,0,2.98-0.006,3.73-0.016c0.75-0.012,1.442-0.15,2.075-0.42
			c0.643-0.268,1.085-0.625,1.327-1.07C343.705,850.081,343.826,849.568,343.826,848.988z"/>
		<path style="fill:#FFFFFF;" d="M368.482,843.863h-0.514c-0.247-0.086-0.644-0.15-1.19-0.193c-0.547-0.043-1.002-0.064-1.367-0.064
			c-0.825,0-1.554,0.055-2.187,0.162c-0.633,0.107-1.313,0.289-2.042,0.547v12.117h-5.817v-18.095h5.817v2.659
			c1.275-1.096,2.385-1.824,3.328-2.184c0.943-0.359,1.811-0.54,2.604-0.54c0.204,0,0.434,0.005,0.691,0.017
			c0.257,0.01,0.482,0.026,0.675,0.048V843.863z"/>
		<path style="fill:#FFFFFF;" d="M390.415,848.456h-13.277c0.086,1.418,0.627,2.503,1.619,3.255
			c0.994,0.752,2.457,1.128,4.391,1.128c1.225,0,2.412-0.22,3.562-0.661c1.148-0.439,2.057-0.912,2.723-1.418h0.645v4.657
			c-1.311,0.526-2.547,0.907-3.707,1.144s-2.443,0.355-3.85,0.355c-3.631,0-6.414-0.816-8.348-2.449s-2.9-3.959-2.9-6.978
			c0-2.986,0.916-5.353,2.748-7.099c1.832-1.744,4.342-2.617,7.533-2.617c2.943,0,5.156,0.744,6.639,2.23
			c1.482,1.488,2.223,3.629,2.223,6.422V848.456z M384.647,845.057c-0.033-1.215-0.334-2.127-0.902-2.74
			c-0.57-0.611-1.457-0.918-2.66-0.918c-1.117,0-2.035,0.29-2.754,0.87c-0.721,0.58-1.123,1.509-1.209,2.788H384.647z"/>
		<path style="fill:#FFFFFF;" d="M424.191,838.337l-5.607,18.095h-6.157l-3.688-12.197l-3.643,12.197h-6.219l-5.56-18.095h6.086
			l3.105,12.472l3.861-12.472h5.14l3.671,12.472l3.056-12.472H424.191z"/>
	</g>
	<g>
		
			<text transform="matrix(1 0 0 1 -507.6104 1001.6926)" style="fill:#666666; font-family:'HelveticaNeue-Bold'; font-size:39.374px;">New Customer</text>
	</g>
	<rect x="268.444" y="-612.094" style="display:none;fill:#1A5436;" width="750" height="324.854"/>
	<g>
		<rect id="rect2641" x="-521.678" y="393.712" style="fill:#FFFFFF;" width="268.474" height="224.769"/>
		<path id="path2651" style="fill:#54B848;" d="M-525.081,618.481h274.717V387.469h-274.717V618.481z M-344.748,568.507h-63.997
			v-108.42h32.148v89.239h30.906c21.341,0,30.313-13.948,30.313-49.711c0-36.038-10.208-46.502-31.848-46.502h-70.484v115.394
			h-31.849V453.114h-46.683v-19.199h158.899c38.342,0,56.579,18.6,56.579,65.414C-280.764,560.946-307.973,568.507-344.748,568.507"
			/>
	</g>
	<path id="path2651_1_" style="fill:#FFFFFF;" d="M332.484,144.758h85.893V72.53h-85.893V144.758z M388.867,129.134h-20.009V95.235
		h10.051v27.902h9.663c6.672,0,9.477-4.361,9.477-15.543c0-11.268-3.192-14.539-9.958-14.539h-22.037v36.079h-9.958V93.055h-14.596
		v-6.003h49.681c11.988,0,17.69,5.815,17.69,20.452C408.872,126.77,400.365,129.134,388.867,129.134"/>
	
		<line style="display:none;fill:none;stroke:#7F7E7E;stroke-miterlimit:10;" x1="1459.949" y1="1773.716" x2="771.094" y2="1773.716"/>
	
		<line style="display:none;fill:none;stroke:#7F7E7E;stroke-miterlimit:10;" x1="771.926" y1="2480.095" x2="1093.379" y2="2480.095"/>
	
		<line style="display:none;fill:none;stroke:#7F7E7E;stroke-miterlimit:10;" x1="1129.984" y1="2480.095" x2="1451.437" y2="2480.095"/>
	<line style="display:none;fill:none;" x1="991.687" y1="1959.19" x2="991.687" y2="2049.673"/>
	<line style="display:none;fill:none;" x1="1240.634" y1="1959.19" x2="1240.634" y2="2049.673"/>
	<line style="display:none;fill:#FFFFFF;" x1="991.687" y1="1959.19" x2="991.687" y2="2049.673"/>
	<line style="display:none;fill:#FFFFFF;" x1="1240.634" y1="1959.19" x2="1240.634" y2="2049.673"/>
	<rect x="740.87" y="1815.301" style="display:none;fill:#FFFFFF;" width="749.221" height="302.876"/>
	<g>
		<text transform="matrix(1 0 0 1 1016.9839 1976.1982)" style="fill:#1A5436; font-family:'OpenSans'; font-size:30.0259px;">DEPOSIT MONEY</text>
	</g>
	<text transform="matrix(1 0 0 1 811.9327 2428.2725)" style="fill:#1A5436; font-family:'OpenSans'; font-size:30.0259px;">TRANSFER FUNDS</text>
	<g>
		<text transform="matrix(1 0 0 1 1205.183 2398.2695)"><tspan x="0" y="0" style="fill:#1A5436; font-family:'OpenSans'; font-size:30.0259px;">OPEN BANK </tspan><tspan x="16.46" y="36.031" style="fill:#1A5436; font-family:'OpenSans'; font-size:30.0259px;">ACCOUNT</tspan></text>
	</g>
	
		<line style="display:none;fill:none;stroke:#7F7E7E;stroke-miterlimit:10;" x1="771.926" y1="2118.176" x2="1451.437" y2="2118.176"/>
	<g>
		<g>
			
				<line style="fill:none;stroke:#666666;stroke-width:3;stroke-miterlimit:10;" x1="1336.399" y1="1924.666" x2="1353.591" y2="1959.698"/>
			
				<line style="fill:none;stroke:#666666;stroke-width:3;stroke-miterlimit:10;" x1="1336.399" y1="1993.714" x2="1353.591" y2="1958.682"/>
		</g>
	</g>
	<g>
		<g>
			<g>
				<g>
					<path style="fill:#666666;" d="M1335.627,1588.511c5.731,11.677,11.461,23.355,17.192,35.032
						c0.85,1.733,3.439,0.214,2.59-1.514c-5.731-11.677-11.461-23.355-17.192-35.032
						C1337.367,1585.264,1334.779,1586.783,1335.627,1588.511L1335.627,1588.511z"/>
				</g>
			</g>
			<g>
				<g>
					<path style="fill:#666666;" d="M1338.217,1657.56c5.731-11.677,11.461-23.355,17.192-35.032
						c0.848-1.727-1.739-3.249-2.59-1.514c-5.731,11.677-11.461,23.355-17.192,35.032
						C1334.779,1657.773,1337.366,1659.295,1338.217,1657.56L1338.217,1657.56z"/>
				</g>
			</g>
		</g>
	</g>
	<g style="display:none;">
		<g style="display:inline;">
			<path style="fill:#666666;" d="M-1098.836,1475.55c0-21.109,0-42.218,0-63.328c0-33.653,0-67.306,0-100.96
				c0-7.734,0-15.469,0-23.203c0-6.435-10-6.445-10,0c0,21.109,0,42.218,0,63.327c0,33.653,0,67.307,0,100.96
				c0,7.734,0,15.469,0,23.203C-1108.836,1481.984-1098.836,1481.995-1098.836,1475.55L-1098.836,1475.55z"/>
		</g>
	</g>
	<g style="display:none;">
		<g style="display:inline;">
			<path style="fill:#666666;" d="M-1047.414,1337.41c-17.629-17.629-35.257-35.257-52.886-52.886
				c-4.556-4.556-11.629,2.513-7.071,7.071c17.629,17.629,35.257,35.257,52.886,52.886
				C-1049.929,1349.037-1042.856,1341.968-1047.414,1337.41L-1047.414,1337.41z"/>
		</g>
	</g>
	<g style="display:none;">
		<g style="display:inline;">
			<path style="fill:#666666;" d="M-1153.186,1344.481c17.629-17.629,35.257-35.257,52.886-52.886
				c4.556-4.556-2.513-11.63-7.071-7.071c-17.629,17.629-35.257,35.257-52.886,52.886
				C-1164.813,1341.966-1157.744,1349.039-1153.186,1344.481L-1153.186,1344.481z"/>
		</g>
	</g>
	<g>
		<g>
			<g>
				<path style="fill:#1A5436;" d="M872.925,1642.825c0-18.73,0-37.46,0-56.189c0-1.93-3-1.934-3,0c0,18.73,0,37.46,0,56.189
					C869.925,1644.755,872.925,1644.758,872.925,1642.825L872.925,1642.825z"/>
			</g>
		</g>
		<g>
			<g>
				<path style="fill:#1A5436;" d="M888.335,1601.424c-5.283-5.283-10.566-10.566-15.849-15.849
					c-1.367-1.367-3.489,0.754-2.121,2.121c5.283,5.283,10.566,10.566,15.849,15.849
					C887.581,1604.912,889.703,1602.792,888.335,1601.424L888.335,1601.424z"/>
			</g>
		</g>
		<g>
			<g>
				<path style="fill:#1A5436;" d="M856.636,1603.546c5.283-5.283,10.566-10.566,15.849-15.849c1.367-1.367-0.754-3.489-2.121-2.121
					c-5.283,5.283-10.566,10.566-15.849,15.849C853.148,1602.791,855.269,1604.913,856.636,1603.546L856.636,1603.546z"/>
			</g>
		</g>
	</g>
	
		<circle style="display:none;fill:none;stroke:#1A5436;stroke-width:2;stroke-miterlimit:10;" cx="871.425" cy="1614.73" r="53.875"/>
	<g>
		<g>
			<g>
				<path style="fill:#1A5436;" d="M869.925,1938.644c0,18.73,0,37.46,0,56.189c0,1.93,3,1.934,3,0c0-18.73,0-37.46,0-56.189
					C872.925,1936.713,869.925,1936.71,869.925,1938.644L869.925,1938.644z"/>
			</g>
		</g>
		<g>
			<g>
				<path style="fill:#1A5436;" d="M854.515,1980.044c5.283,5.283,10.566,10.566,15.849,15.849c1.367,1.367,3.489-0.754,2.121-2.121
					c-5.283-5.283-10.566-10.566-15.849-15.849C855.269,1976.556,853.147,1978.677,854.515,1980.044L854.515,1980.044z"/>
			</g>
		</g>
		<g>
			<g>
				<path style="fill:#1A5436;" d="M886.214,1977.923c-5.283,5.283-10.566,10.566-15.849,15.849
					c-1.367,1.367,0.754,3.489,2.121,2.121c5.283-5.283,10.566-10.566,15.849-15.849
					C889.702,1978.677,887.581,1976.556,886.214,1977.923L886.214,1977.923z"/>
			</g>
		</g>
	</g>
	
		<circle style="display:none;fill:none;stroke:#1A5436;stroke-width:2;stroke-miterlimit:10;" cx="871.425" cy="1966.738" r="53.875"/>
	
		<image style="overflow:visible;" width="640" height="1136" xlink:href="../../../../../../../../Downloads/image1.PNG"  transform="matrix(1 0 0 1 -781.7346 -347.4879)">
	</image>
	<g>
		<polygon style="fill:none;stroke:#666666;stroke-width:3;stroke-miterlimit:10;" points="-119.235,-117.75 -127.735,-134.75 
			-141.735,-142.75 -95.735,-164.25 		"/>
		
			<line style="fill:none;stroke:#666666;stroke-width:3;stroke-miterlimit:10;" x1="-127.735" y1="-134.75" x2="-95.735" y2="-164.25"/>
	</g>
	<g>
		<circle style="fill:none;stroke:#1A5436;stroke-width:2;stroke-miterlimit:10;" cx="932.652" cy="2308.852" r="47.428"/>
		<g>
			<g>
				<g>
					<path style="fill:#1A5436;" d="M933.448,2333.392c-1.343-2.687-2.687-5.374-4.03-8.061c-1.358-2.715-2.513-6.522-4.44-8.88
						c-1.426-1.745-4.41-2.793-6.314-3.881c-2.751-1.572-5.503-3.144-8.254-4.717c0,0.864,0,1.727,0,2.591
						c15.333-7.167,30.667-14.333,46-21.5c-0.684-0.684-1.368-1.368-2.052-2.052c-7.833,15.5-15.667,31-23.5,46.5
						c-0.869,1.719,1.718,3.24,2.59,1.514c7.833-15.5,15.667-31,23.5-46.5c0.703-1.39-0.692-2.688-2.052-2.052
						c-15.333,7.167-30.667,14.333-46,21.5c-1.04,0.486-0.914,2.069,0,2.591c2.473,1.413,4.946,2.826,7.42,4.24
						c1.699,0.971,3.377,2.044,5.124,2.928c0.331,0.167,0.907,0.436,1.202,0.687c0.578,0.492-0.65-0.817-0.099-0.023
						c3.425,4.929,5.625,11.251,8.315,16.63C931.721,2336.633,934.309,2335.115,933.448,2333.392z"/>
				</g>
			</g>
			<g>
				<g>
					<path style="fill:#1A5436;" d="M924.713,2318.209c10.667-9.833,21.333-19.667,32-29.5c1.423-1.312-0.703-3.429-2.121-2.121
						c-10.667,9.833-21.333,19.667-32,29.5C921.169,2317.399,923.295,2319.517,924.713,2318.209L924.713,2318.209z"/>
				</g>
			</g>
		</g>
	</g>
	<g>
		<line style="fill:none;stroke:#1A5436;stroke-width:2;stroke-miterlimit:10;" x1="327" y1="1479" x2="327" y2="1569.146"/>
		
			<line style="fill:none;stroke:#1A5436;stroke-width:2;stroke-miterlimit:10;" x1="372.073" y1="1524.073" x2="281.927" y2="1524.073"/>
	</g>
	<g>
		<circle style="fill:none;stroke:#1A5436;stroke-width:2;stroke-miterlimit:10;" cx="1290.711" cy="2287.427" r="47.428"/>
		<g>
			
				<line style="fill:none;stroke:#1A5436;stroke-width:2;stroke-miterlimit:10;" x1="1290.711" y1="2253.932" x2="1290.711" y2="2320.92"/>
			
				<line style="fill:none;stroke:#1A5436;stroke-width:2;stroke-miterlimit:10;" x1="1324.205" y1="2287.427" x2="1257.217" y2="2287.427"/>
		</g>
	</g>
	<rect x="1167.681" y="943.458" style="display:none;fill:#FFFFFF;" width="321.453" height="302.876"/>
	<rect x="809.622" y="943.458" style="display:none;fill:#FFFFFF;" width="321.453" height="302.876"/>
	<text transform="matrix(1 0 0 1 849.6295 1194.5111)" style="fill:#1A5436; font-family:'OpenSans'; font-size:30.0259px;">TRANSFER FUNDS</text>
	<g>
		<text transform="matrix(1 0 0 1 1240.6807 1145.8363)"><tspan x="0" y="0" style="fill:#666666; font-family:'HelveticaNeue-Light'; font-size:33.0184px;">OPEN BANK</tspan><tspan x="0" y="39.622" style="fill:#666666; font-family:'HelveticaNeue-Light'; font-size:33.0184px;">ACCOUNT</tspan></text>
	</g>
	
		<circle style="display:none;fill:none;stroke:#1A5436;stroke-width:2;stroke-miterlimit:10;" cx="1294.556" cy="1045.165" r="53.875"/>
	<g>
		<circle style="fill:none;stroke:#1A5436;stroke-width:2;stroke-miterlimit:10;" cx="970.349" cy="1075.09" r="47.428"/>
		<g>
			<g>
				<g>
					<path style="fill:#1A5436;" d="M971.144,1099.63c-1.343-2.687-2.687-5.374-4.03-8.061c-1.358-2.715-2.513-6.521-4.44-8.88
						c-1.426-1.745-4.41-2.793-6.314-3.881c-2.751-1.572-5.503-3.144-8.254-4.717c0,0.863,0,1.727,0,2.59
						c15.333-7.167,30.667-14.333,46-21.5c-0.684-0.684-1.368-1.368-2.052-2.052c-7.833,15.5-15.667,31-23.5,46.5
						c-0.869,1.719,1.718,3.24,2.59,1.514c7.833-15.5,15.667-31,23.5-46.5c0.703-1.39-0.692-2.688-2.052-2.052
						c-15.333,7.167-30.667,14.333-46,21.5c-1.04,0.486-0.914,2.068,0,2.59c2.473,1.413,4.947,2.827,7.42,4.24
						c1.699,0.971,3.377,2.043,5.124,2.928c0.33,0.167,0.907,0.436,1.202,0.687c0.578,0.492-0.65-0.817-0.099-0.023
						c3.425,4.929,5.625,11.251,8.315,16.63C969.417,1102.871,972.006,1101.354,971.144,1099.63z"/>
				</g>
			</g>
			<g>
				<g>
					<path style="fill:#1A5436;" d="M962.41,1084.448c10.667-9.833,21.333-19.667,32-29.5c1.423-1.311-0.703-3.429-2.121-2.121
						c-10.667,9.833-21.333,19.667-32,29.5C958.866,1083.638,960.992,1085.755,962.41,1084.448L962.41,1084.448z"/>
				</g>
			</g>
		</g>
	</g>
	<g>
		
			<line style="fill:none;stroke:#1A5436;stroke-width:2;stroke-miterlimit:10;" x1="1294.556" y1="1007.118" x2="1294.556" y2="1083.212"/>
		
			<line style="fill:none;stroke:#1A5436;stroke-width:2;stroke-miterlimit:10;" x1="1332.603" y1="1045.165" x2="1256.509" y2="1045.165"/>
	</g>
	<g>
		<g>
			<g>
				<path style="fill:#1A5436;" d="M1311.484,424.167c0-8.882,0-17.764,0-26.646c0-3.861-6-3.867-6,0c0,8.882,0,17.764,0,26.646
					C1305.484,428.028,1311.484,428.034,1311.484,424.167L1311.484,424.167z"/>
			</g>
		</g>
		<g>
			<g>
				<path style="fill:#1A5436;" d="M1318.121,402.916c-2.505-2.505-5.011-5.011-7.516-7.516c-2.734-2.734-6.978,1.508-4.243,4.243
					c2.505,2.505,5.011,5.011,7.516,7.516C1316.613,409.892,1320.856,405.651,1318.121,402.916L1318.121,402.916z"/>
			</g>
		</g>
		<g>
			<g>
				<path style="fill:#1A5436;" d="M1303.089,407.158c2.505-2.505,5.011-5.011,7.516-7.516c2.734-2.734-1.508-6.978-4.243-4.243
					c-2.505,2.505-5.011,5.011-7.516,7.516C1296.113,405.65,1300.354,409.893,1303.089,407.158L1303.089,407.158z"/>
			</g>
		</g>
	</g>
	
		<circle style="display:none;fill:none;stroke:#1A5436;stroke-width:2;stroke-miterlimit:10;" cx="1283.384" cy="447.796" r="53.875"/>
	<rect x="1114.667" y="371.333" style="fill:none;" width="0.667" height="2.667"/>
	
		<text transform="matrix(1 0 0 1 1265.8728 471.6073)" style="fill:#1A5436; font-family:'BrandonGrotesque-Medium'; font-size:67.0928px; letter-spacing:-1;">$</text>
	
		<circle style="display:none;fill:none;stroke:#1A5436;stroke-width:2;stroke-miterlimit:10;" cx="1424.05" cy="447.796" r="53.875"/>
	
		<text transform="matrix(1 0 0 1 1406.5396 471.6073)" style="fill:#1A5436; font-family:'BrandonGrotesque-Medium'; font-size:67.0928px; letter-spacing:-1;">$</text>
	<g>
		<path style="fill:#1A5436;" d="M142.818,568.74l-7.16,26.584h-7.6l-4.754-17.318l-4.648,17.318h-7.582l-7.16-26.584h7.156
			l4.079,18.3l4.906-18.3h6.838l4.654,18.3l4.282-18.3H142.818z"/>
		<path style="fill:#1A5436;" d="M166.869,585.308c0,3.297-0.961,5.895-2.883,7.793s-4.621,2.848-8.097,2.848
			s-6.175-0.949-8.097-2.848c-1.922-1.898-2.883-4.496-2.883-7.793c0-3.321,0.967-5.927,2.901-7.82s4.627-2.839,8.079-2.839
			c3.5,0,6.204,0.952,8.115,2.856C165.914,579.411,166.869,582.011,166.869,585.308z M158.96,590.182
			c0.417-0.511,0.729-1.127,0.938-1.848c0.208-0.72,0.312-1.717,0.312-2.991c0-1.178-0.107-2.166-0.321-2.963
			c-0.214-0.797-0.512-1.435-0.893-1.911c-0.381-0.488-0.839-0.833-1.375-1.036c-0.536-0.202-1.113-0.303-1.732-0.303
			c-0.619,0-1.169,0.083-1.651,0.25s-0.943,0.5-1.384,1c-0.393,0.464-0.705,1.101-0.938,1.911c-0.232,0.81-0.348,1.827-0.348,3.053
			c0,1.095,0.101,2.044,0.304,2.848c0.202,0.804,0.5,1.449,0.893,1.938c0.381,0.464,0.836,0.803,1.366,1.018
			s1.134,0.321,1.812,0.321c0.583,0,1.14-0.098,1.669-0.294C158.142,590.977,158.591,590.646,158.96,590.182z"/>
		<path style="fill:#1A5436;" d="M190.796,595.324h-6.445v-2.214c-1.189,0.905-2.276,1.592-3.263,2.062
			c-0.986,0.47-2.163,0.706-3.53,0.706c-2.211,0-3.914-0.637-5.108-1.911c-1.195-1.273-1.792-3.154-1.792-5.642v-13.051h6.445v9.944
			c0,1.012,0.033,1.854,0.098,2.526c0.065,0.673,0.217,1.229,0.455,1.669c0.226,0.44,0.568,0.762,1.027,0.964
			c0.458,0.202,1.098,0.303,1.919,0.303c0.547,0,1.154-0.101,1.821-0.303c0.667-0.203,1.309-0.5,1.928-0.893v-14.211h6.445V595.324z
			"/>
		<path style="fill:#1A5436;" d="M202.654,595.324h-6.445v-27.781h6.445V595.324z"/>
		<path style="fill:#1A5436;" d="M227.544,595.324h-6.445v-2.089c-1.106,0.905-2.14,1.571-3.103,2
			c-0.963,0.429-2.074,0.643-3.334,0.643c-2.437,0-4.387-0.94-5.849-2.821c-1.462-1.88-2.193-4.416-2.193-7.605
			c0-1.702,0.247-3.211,0.74-4.526c0.493-1.315,1.168-2.443,2.024-3.383c0.808-0.893,1.789-1.586,2.942-2.08
			c1.153-0.494,2.306-0.741,3.459-0.741c1.201,0,2.185,0.128,2.951,0.384c0.767,0.256,1.554,0.581,2.363,0.973v-8.534h6.445V595.324
			z M221.099,589.805v-9.853c-0.452-0.19-0.926-0.328-1.425-0.411c-0.499-0.083-0.956-0.125-1.372-0.125
			c-1.687,0-2.951,0.527-3.794,1.583c-0.843,1.055-1.265,2.518-1.265,4.39c0,1.967,0.338,3.395,1.015,4.283s1.764,1.332,3.26,1.332
			c0.582,0,1.199-0.11,1.853-0.331S220.6,590.163,221.099,589.805z"/>
		<path style="fill:#1A5436;" d="M253.839,588.235l4.575-12.96h6.61l-11.141,27.406h-6.977l3.188-7.509l-7.798-19.896h6.75
			L253.839,588.235z"/>
		<path style="fill:#1A5436;" d="M288.433,585.308c0,3.297-0.961,5.895-2.883,7.793s-4.621,2.848-8.097,2.848
			s-6.175-0.949-8.097-2.848c-1.922-1.898-2.883-4.496-2.883-7.793c0-3.321,0.967-5.927,2.901-7.82s4.627-2.839,8.079-2.839
			c3.5,0,6.204,0.952,8.115,2.856C287.478,579.411,288.433,582.011,288.433,585.308z M280.524,590.182
			c0.417-0.511,0.729-1.127,0.938-1.848c0.208-0.72,0.312-1.717,0.312-2.991c0-1.178-0.107-2.166-0.321-2.963
			c-0.214-0.797-0.512-1.435-0.893-1.911c-0.381-0.488-0.839-0.833-1.375-1.036c-0.536-0.202-1.113-0.303-1.732-0.303
			c-0.619,0-1.169,0.083-1.651,0.25s-0.943,0.5-1.384,1c-0.393,0.464-0.705,1.101-0.938,1.911c-0.232,0.81-0.348,1.827-0.348,3.053
			c0,1.095,0.101,2.044,0.304,2.848c0.202,0.804,0.5,1.449,0.893,1.938c0.381,0.464,0.836,0.803,1.366,1.018
			s1.134,0.321,1.812,0.321c0.583,0,1.14-0.098,1.669-0.294C279.706,590.977,280.155,590.646,280.524,590.182z"/>
		<path style="fill:#1A5436;" d="M312.36,595.324h-6.445v-2.214c-1.189,0.905-2.276,1.592-3.263,2.062
			c-0.986,0.47-2.163,0.706-3.53,0.706c-2.211,0-3.914-0.637-5.108-1.911c-1.195-1.273-1.792-3.154-1.792-5.642v-13.051h6.445v9.944
			c0,1.012,0.033,1.854,0.098,2.526c0.065,0.673,0.217,1.229,0.455,1.669c0.226,0.44,0.568,0.762,1.027,0.964
			c0.458,0.202,1.098,0.303,1.919,0.303c0.547,0,1.154-0.101,1.821-0.303c0.667-0.203,1.309-0.5,1.928-0.893v-14.211h6.445V595.324z
			"/>
		<path style="fill:#1A5436;" d="M336.057,595.324h-6.445v-27.781h6.445V595.324z"/>
		<path style="fill:#1A5436;" d="M348.075,572.417h-6.803v-4.874h6.803V572.417z M347.896,595.324h-6.445v-20.05h6.445V595.324z"/>
		<path style="fill:#1A5436;" d="M374.573,595.324h-7.481l-5.62-8.719l-1.735,2.137v6.582h-6.445v-27.781h6.445v16.571l6.904-8.84
			h7.415l-7.204,8.641L374.573,595.324z"/>
		<path style="fill:#1A5436;" d="M396.91,586.486h-14.711c0.095,1.571,0.693,2.774,1.794,3.607s2.723,1.25,4.865,1.25
			c1.356,0,2.672-0.244,3.945-0.732c1.273-0.488,2.279-1.012,3.018-1.571h0.714v5.16c-1.452,0.583-2.82,1.006-4.106,1.268
			c-1.285,0.261-2.707,0.393-4.267,0.393c-4.023,0-7.105-0.904-9.248-2.714c-2.143-1.809-3.214-4.386-3.214-7.73
			c0-3.309,1.015-5.931,3.044-7.865s4.812-2.901,8.347-2.901c3.261,0,5.713,0.824,7.355,2.473c1.643,1.649,2.464,4.021,2.464,7.115
			V586.486z M390.519,582.719c-0.035-1.345-0.369-2.356-1-3.035c-0.631-0.678-1.612-1.018-2.945-1.018
			c-1.238,0-2.256,0.321-3.053,0.964c-0.798,0.643-1.244,1.672-1.34,3.088H390.519z"/>
		<path style="fill:#1A5436;" d="M430.053,588.968c0,2.071-0.929,3.74-2.785,5.008c-1.857,1.268-4.398,1.902-7.624,1.902
			c-1.785,0-3.404-0.167-4.856-0.5s-2.618-0.702-3.499-1.107v-5.285h0.589c0.321,0.227,0.693,0.473,1.116,0.741
			c0.422,0.268,1.021,0.557,1.794,0.866c0.667,0.274,1.422,0.509,2.268,0.706c0.845,0.196,1.75,0.294,2.714,0.294
			c1.262,0,2.196-0.14,2.803-0.419c0.607-0.28,0.911-0.693,0.911-1.241c0-0.488-0.179-0.842-0.536-1.062
			c-0.356-0.22-1.035-0.431-2.035-0.634c-0.477-0.107-1.122-0.223-1.938-0.348s-1.556-0.277-2.223-0.456
			c-1.821-0.476-3.172-1.217-4.053-2.223s-1.321-2.258-1.321-3.758c0-1.928,0.913-3.532,2.741-4.812
			c1.826-1.279,4.323-1.919,7.489-1.919c1.5,0,2.938,0.152,4.312,0.456c1.375,0.303,2.449,0.628,3.223,0.973v5.071h-0.554
			c-0.952-0.655-2.038-1.188-3.258-1.598c-1.221-0.411-2.455-0.616-3.705-0.616c-1.035,0-1.907,0.143-2.615,0.428
			s-1.062,0.69-1.062,1.214c0,0.476,0.161,0.839,0.482,1.089s1.077,0.5,2.268,0.75c0.654,0.131,1.359,0.259,2.115,0.384
			s1.515,0.283,2.276,0.473c1.69,0.44,2.939,1.134,3.749,2.08S430.053,587.552,430.053,588.968z"/>
		<path style="fill:#1A5436;" d="M454.157,585.308c0,3.297-0.961,5.895-2.883,7.793c-1.923,1.898-4.622,2.848-8.097,2.848
			c-3.477,0-6.175-0.949-8.098-2.848c-1.922-1.898-2.883-4.496-2.883-7.793c0-3.321,0.967-5.927,2.901-7.82
			c1.934-1.893,4.627-2.839,8.079-2.839c3.499,0,6.204,0.952,8.114,2.856C453.202,579.411,454.157,582.011,454.157,585.308z
			 M446.248,590.182c0.417-0.511,0.729-1.127,0.938-1.848s0.312-1.717,0.312-2.991c0-1.178-0.107-2.166-0.321-2.963
			c-0.215-0.797-0.512-1.435-0.893-1.911c-0.382-0.488-0.84-0.833-1.375-1.036c-0.536-0.202-1.113-0.303-1.731-0.303
			c-0.619,0-1.17,0.083-1.652,0.25c-0.481,0.167-0.943,0.5-1.383,1c-0.394,0.464-0.706,1.101-0.938,1.911
			c-0.232,0.81-0.349,1.827-0.349,3.053c0,1.095,0.102,2.044,0.304,2.848c0.202,0.804,0.5,1.449,0.893,1.938
			c0.381,0.464,0.836,0.803,1.366,1.018c0.529,0.214,1.134,0.321,1.812,0.321c0.583,0,1.14-0.098,1.67-0.294
			C445.43,590.977,445.879,590.646,446.248,590.182z"/>
		<path style="fill:#1A5436;" d="M477.691,581.112v14.212h-6.445v-10.016c0-0.976-0.024-1.806-0.071-2.491
			c-0.048-0.684-0.179-1.241-0.393-1.669c-0.215-0.429-0.539-0.741-0.974-0.938s-1.044-0.294-1.83-0.294
			c-0.631,0-1.244,0.128-1.839,0.384c-0.596,0.256-1.131,0.526-1.606,0.812v14.212h-6.445v-20.05h6.445v2.214
			c1.105-0.869,2.163-1.547,3.174-2.036c1.011-0.488,2.128-0.732,3.353-0.732c1.319,0,2.484,0.295,3.495,0.884
			c1.01,0.589,1.8,1.455,2.371,2.598c1.283-1.083,2.531-1.934,3.744-2.553c1.212-0.619,2.4-0.929,3.565-0.929
			c2.163,0,3.806,0.649,4.93,1.946c1.123,1.297,1.685,3.166,1.685,5.606v13.051h-6.445v-10.016c0-0.988-0.021-1.821-0.062-2.5
			c-0.042-0.678-0.17-1.232-0.384-1.66c-0.202-0.429-0.524-0.741-0.964-0.938c-0.44-0.196-1.06-0.294-1.857-0.294
			c-0.535,0-1.06,0.092-1.571,0.276C479.054,580.378,478.429,580.684,477.691,581.112z"/>
		<path style="fill:#1A5436;" d="M515.883,586.486h-14.711c0.095,1.571,0.693,2.774,1.794,3.607s2.723,1.25,4.865,1.25
			c1.356,0,2.672-0.244,3.945-0.732c1.273-0.488,2.279-1.012,3.018-1.571h0.714v5.16c-1.452,0.583-2.82,1.006-4.106,1.268
			c-1.285,0.261-2.707,0.393-4.267,0.393c-4.023,0-7.105-0.904-9.248-2.714c-2.143-1.809-3.214-4.386-3.214-7.73
			c0-3.309,1.015-5.931,3.044-7.865s4.812-2.901,8.347-2.901c3.261,0,5.713,0.824,7.355,2.473c1.643,1.649,2.464,4.021,2.464,7.115
			V586.486z M509.491,582.719c-0.035-1.345-0.369-2.356-1-3.035c-0.631-0.678-1.612-1.018-2.945-1.018
			c-1.238,0-2.256,0.321-3.053,0.964c-0.798,0.643-1.244,1.672-1.34,3.088H509.491z"/>
		<path style="fill:#1A5436;" d="M542.044,595.86c-1.749,0-3.348-0.208-4.794-0.625c-1.445-0.417-2.704-1.059-3.775-1.928
			c-1.06-0.869-1.881-1.964-2.464-3.285c-0.584-1.321-0.875-2.868-0.875-4.642c0-1.868,0.312-3.481,0.938-4.838
			s1.496-2.481,2.615-3.374c1.083-0.845,2.333-1.464,3.749-1.857c1.417-0.393,2.887-0.589,4.41-0.589
			c1.369,0,2.631,0.149,3.785,0.446c1.154,0.298,2.231,0.685,3.231,1.161v5.481h-0.909c-0.25-0.214-0.55-0.464-0.9-0.75
			s-0.781-0.565-1.292-0.839c-0.488-0.262-1.022-0.479-1.604-0.651c-0.583-0.173-1.26-0.259-2.032-0.259
			c-1.712,0-3.028,0.545-3.949,1.634c-0.921,1.089-1.382,2.568-1.382,4.437c0,1.928,0.473,3.393,1.417,4.392
			c0.945,1,2.285,1.5,4.021,1.5c0.809,0,1.536-0.092,2.184-0.277c0.648-0.185,1.186-0.402,1.613-0.652
			c0.404-0.238,0.761-0.488,1.07-0.75c0.309-0.262,0.594-0.518,0.855-0.768h0.909v5.481c-1.012,0.476-2.068,0.854-3.169,1.134
			C544.594,595.72,543.377,595.86,542.044,595.86z"/>
		<path style="fill:#1A5436;" d="M572.951,585.308c0,3.297-0.961,5.895-2.883,7.793c-1.923,1.898-4.622,2.848-8.097,2.848
			c-3.477,0-6.175-0.949-8.098-2.848c-1.922-1.898-2.883-4.496-2.883-7.793c0-3.321,0.967-5.927,2.901-7.82
			c1.934-1.893,4.627-2.839,8.079-2.839c3.499,0,6.204,0.952,8.114,2.856C571.996,579.411,572.951,582.011,572.951,585.308z
			 M565.042,590.182c0.417-0.511,0.729-1.127,0.938-1.848s0.312-1.717,0.312-2.991c0-1.178-0.107-2.166-0.321-2.963
			c-0.215-0.797-0.512-1.435-0.893-1.911c-0.382-0.488-0.84-0.833-1.375-1.036c-0.536-0.202-1.113-0.303-1.731-0.303
			c-0.619,0-1.17,0.083-1.652,0.25c-0.481,0.167-0.943,0.5-1.383,1c-0.394,0.464-0.706,1.101-0.938,1.911
			c-0.232,0.81-0.349,1.827-0.349,3.053c0,1.095,0.102,2.044,0.304,2.848c0.202,0.804,0.5,1.449,0.893,1.938
			c0.381,0.464,0.836,0.803,1.366,1.018c0.529,0.214,1.134,0.321,1.812,0.321c0.583,0,1.14-0.098,1.67-0.294
			C564.224,590.977,564.673,590.646,565.042,590.182z"/>
		<path style="fill:#1A5436;" d="M589.897,572.257h-0.481c-0.285-0.083-0.655-0.178-1.112-0.286
			c-0.457-0.107-0.946-0.161-1.469-0.161c-1.258,0-2.11,0.227-2.555,0.679c-0.445,0.452-0.668,1.327-0.668,2.625v0.161h4.945v4.356
			h-4.73v15.693h-6.445v-15.693h-2.75v-4.356h2.75v-0.554c0-2.452,0.651-4.291,1.955-5.517c1.303-1.226,3.275-1.839,5.918-1.839
			c0.952,0,1.815,0.033,2.589,0.098s1.458,0.151,2.054,0.259V572.257z"/>
		<path style="fill:#1A5436;" d="M604.683,572.257h-0.481c-0.285-0.083-0.655-0.178-1.112-0.286
			c-0.457-0.107-0.946-0.161-1.469-0.161c-1.258,0-2.11,0.227-2.555,0.679c-0.445,0.452-0.668,1.327-0.668,2.625v0.161h4.945v4.356
			h-4.73v15.693h-6.445v-15.693h-2.75v-4.356h2.75v-0.554c0-2.452,0.651-4.291,1.955-5.517c1.303-1.226,3.275-1.839,5.918-1.839
			c0.952,0,1.815,0.033,2.589,0.098s1.458,0.151,2.054,0.259V572.257z"/>
		<path style="fill:#1A5436;" d="M626.217,586.486h-14.711c0.095,1.571,0.693,2.774,1.794,3.607s2.723,1.25,4.865,1.25
			c1.356,0,2.672-0.244,3.945-0.732c1.273-0.488,2.279-1.012,3.018-1.571h0.714v5.16c-1.452,0.583-2.82,1.006-4.106,1.268
			c-1.285,0.261-2.707,0.393-4.267,0.393c-4.023,0-7.105-0.904-9.248-2.714c-2.143-1.809-3.214-4.386-3.214-7.73
			c0-3.309,1.015-5.931,3.044-7.865s4.812-2.901,8.347-2.901c3.261,0,5.713,0.824,7.355,2.473c1.643,1.649,2.464,4.021,2.464,7.115
			V586.486z M619.825,582.719c-0.035-1.345-0.369-2.356-1-3.035c-0.631-0.678-1.612-1.018-2.945-1.018
			c-1.238,0-2.256,0.321-3.053,0.964c-0.798,0.643-1.244,1.672-1.34,3.088H619.825z"/>
		<path style="fill:#1A5436;" d="M649.84,586.486h-14.711c0.095,1.571,0.693,2.774,1.794,3.607s2.723,1.25,4.865,1.25
			c1.356,0,2.672-0.244,3.945-0.732c1.273-0.488,2.279-1.012,3.018-1.571h0.714v5.16c-1.452,0.583-2.82,1.006-4.106,1.268
			c-1.285,0.261-2.707,0.393-4.267,0.393c-4.023,0-7.105-0.904-9.248-2.714c-2.143-1.809-3.214-4.386-3.214-7.73
			c0-3.309,1.015-5.931,3.044-7.865s4.812-2.901,8.347-2.901c3.261,0,5.713,0.824,7.355,2.473c1.643,1.649,2.464,4.021,2.464,7.115
			V586.486z M643.448,582.719c-0.035-1.345-0.369-2.356-1-3.035c-0.631-0.678-1.612-1.018-2.945-1.018
			c-1.238,0-2.256,0.321-3.053,0.964c-0.798,0.643-1.244,1.672-1.34,3.088H643.448z"/>
		<path style="fill:#1A5436;" d="M671.231,575.227c0,1.203-0.176,2.267-0.526,3.19c-0.352,0.923-0.849,1.724-1.491,2.403
			s-1.413,1.287-2.312,1.823c-0.899,0.536-1.914,1.024-3.045,1.465v4.074h-6.284v-6.022c0.845-0.227,1.609-0.459,2.294-0.697
			s1.401-0.625,2.151-1.162c0.702-0.477,1.253-1.031,1.651-1.663c0.399-0.632,0.599-1.347,0.599-2.146
			c0-1.192-0.384-2.042-1.151-2.548c-0.768-0.507-1.849-0.76-3.241-0.76c-0.856,0-1.824,0.185-2.9,0.553
			c-1.078,0.369-2.062,0.845-2.955,1.428h-0.714v-5.445c0.761-0.321,1.934-0.658,3.517-1.009s3.189-0.526,4.82-0.526
			c2.94,0,5.273,0.649,6.999,1.947C670.368,571.433,671.231,573.13,671.231,575.227z M664.357,595.324h-7.213v-4.713h7.213V595.324z
			"/>
	</g>
	
		<line style="display:none;fill:#FFFFFF;stroke:#7F7E7E;stroke-miterlimit:10;" x1="794.55" y1="828.677" x2="1483.253" y2="828.677"/>
	<g>
		<g>
			<path style="fill:#1A5436;stroke:#FFFFFF;stroke-width:3;stroke-miterlimit:10;" d="M1456.13,392.902
				c-0.966-0.326-2.052-0.326-3.006,0c0.471-0.229,0.978-0.362,1.509-0.374C1455.152,392.54,1455.659,392.684,1456.13,392.902z"/>
		</g>
		<g>
			<path style="fill:#1A5436;stroke:#FFFFFF;stroke-width:3;stroke-miterlimit:10;" d="M1461.972,409.728
				c-1.086-1.086-2.173-2.173-3.259-3.259v26.435c0,5.263-8.172,5.251-8.172,0v-26.435l-3.259,3.259
				c-3.73,3.73-9.512-2.052-5.782-5.77c3.356-3.356,6.687-6.699,10.043-10.055c0.06-0.06,0.133-0.133,0.193-0.193
				c0.893-0.893,1.919-1.243,2.897-1.183c-0.531,0.012-1.038,0.145-1.509,0.374c0.953-0.326,2.04-0.326,3.006,0
				c-0.471-0.217-0.978-0.362-1.497-0.374c0.978-0.06,1.991,0.29,2.885,1.183c0.06,0.06,0.133,0.133,0.193,0.193
				c3.355,3.356,6.687,6.699,10.043,10.055C1471.484,407.676,1465.702,413.458,1461.972,409.728z"/>
			<path style="fill:#1A5436;stroke:#FFFFFF;stroke-width:3;stroke-miterlimit:10;" d="M1456.13,392.902
				c-0.966-0.326-2.052-0.326-3.006,0c0.471-0.229,0.978-0.362,1.509-0.374C1455.152,392.54,1455.659,392.684,1456.13,392.902z"/>
		</g>
	</g>
	<g>
		<g>
			<path style="fill:#1A5436;" d="M123.444,717.717h-3.18l-2.2-6.255h-9.707l-2.2,6.255h-3.029l8.168-22.441h3.979L123.444,717.717z
				 M117.145,708.9l-3.934-11.018l-3.949,11.018H117.145z"/>
			<path style="fill:#1A5436;" d="M150.636,717.717h-2.833v-9.585c0-0.724-0.033-1.422-0.098-2.096
				c-0.065-0.673-0.204-1.21-0.415-1.612c-0.231-0.432-0.563-0.759-0.995-0.979c-0.432-0.221-1.055-0.332-1.869-0.332
				c-0.793,0-1.587,0.199-2.381,0.596c-0.793,0.396-1.587,0.901-2.381,1.515c0.03,0.231,0.055,0.5,0.076,0.807
				c0.02,0.307,0.03,0.61,0.03,0.911v10.776h-2.833v-9.585c0-0.744-0.033-1.449-0.098-2.118c-0.065-0.668-0.204-1.203-0.415-1.605
				c-0.231-0.432-0.563-0.756-0.995-0.972c-0.432-0.216-1.055-0.324-1.869-0.324c-0.774,0-1.55,0.191-2.329,0.573
				s-1.555,0.869-2.329,1.462v12.569h-2.833v-16.835h2.833v1.869c0.884-0.733,1.766-1.307,2.646-1.719
				c0.879-0.411,1.816-0.617,2.811-0.617c1.146,0,2.118,0.241,2.917,0.723c0.799,0.482,1.394,1.151,1.786,2.005
				c1.146-0.965,2.19-1.66,3.135-2.087c0.944-0.428,1.954-0.641,3.029-0.641c1.849,0,3.213,0.56,4.092,1.68
				c0.879,1.121,1.319,2.686,1.319,4.695V717.717z"/>
			<path style="fill:#1A5436;" d="M169.628,709.594h-12.404c0,1.034,0.156,1.937,0.467,2.705s0.739,1.399,1.281,1.892
				c0.522,0.482,1.143,0.844,1.861,1.085s1.51,0.361,2.374,0.361c1.146,0,2.298-0.228,3.459-0.686
				c1.16-0.457,1.987-0.906,2.479-1.349h0.151v3.09c-0.955,0.401-1.929,0.738-2.924,1.01s-2.04,0.407-3.135,0.407
				c-2.793,0-4.974-0.757-6.541-2.269c-1.567-1.513-2.351-3.66-2.351-6.443c0-2.753,0.751-4.938,2.253-6.557
				c1.502-1.617,3.479-2.426,5.931-2.426c2.271,0,4.021,0.663,5.252,1.989c1.23,1.326,1.846,3.21,1.846,5.651V709.594z
				 M166.87,707.423c-0.01-1.486-0.384-2.638-1.123-3.451c-0.739-0.813-1.861-1.221-3.369-1.221c-1.517,0-2.726,0.447-3.625,1.341
				c-0.899,0.895-1.409,2.005-1.53,3.331H166.87z"/>
			<path style="fill:#1A5436;" d="M183.874,703.972h-0.151c-0.422-0.101-0.832-0.174-1.229-0.219s-0.867-0.067-1.409-0.067
				c-0.874,0-1.718,0.193-2.532,0.58c-0.814,0.387-1.598,0.887-2.352,1.5v11.951h-2.833v-16.835h2.833v2.487
				c1.125-0.904,2.118-1.545,2.977-1.922c0.859-0.377,1.735-0.565,2.63-0.565c0.492,0,0.849,0.013,1.07,0.038
				c0.221,0.024,0.553,0.072,0.995,0.143V703.972z"/>
			<path style="fill:#1A5436;" d="M189.03,698.063h-3.195v-2.939h3.195V698.063z M188.849,717.717h-2.833v-16.835h2.833V717.717z"/>
			<path style="fill:#1A5436;" d="M206.349,716.662c-0.944,0.452-1.841,0.804-2.69,1.055c-0.849,0.251-1.751,0.377-2.706,0.377
				c-1.216,0-2.331-0.179-3.346-0.535c-1.015-0.356-1.884-0.896-2.607-1.62c-0.734-0.724-1.301-1.638-1.703-2.743
				c-0.402-1.105-0.603-2.396-0.603-3.873c0-2.753,0.756-4.914,2.269-6.481c1.512-1.567,3.509-2.351,5.991-2.351
				c0.965,0,1.912,0.136,2.841,0.406c0.929,0.271,1.781,0.604,2.554,0.995v3.15h-0.15c-0.864-0.674-1.756-1.191-2.675-1.553
				s-1.816-0.543-2.69-0.543c-1.607,0-2.876,0.541-3.806,1.621s-1.394,2.665-1.394,4.755c0,2.029,0.455,3.59,1.364,4.68
				c0.909,1.09,2.188,1.635,3.835,1.635c0.573,0,1.155-0.075,1.749-0.226c0.593-0.15,1.125-0.347,1.598-0.588
				c0.412-0.211,0.799-0.435,1.16-0.671c0.362-0.235,0.648-0.439,0.859-0.61h0.15V716.662z"/>
			<path style="fill:#1A5436;" d="M222.508,717.717h-2.818v-1.793c-0.251,0.171-0.59,0.409-1.018,0.716s-0.841,0.55-1.243,0.73
				c-0.473,0.231-1.015,0.425-1.628,0.58c-0.613,0.156-1.332,0.234-2.155,0.234c-1.517,0-2.803-0.503-3.858-1.508
				c-1.055-1.004-1.583-2.285-1.583-3.843c0-1.276,0.274-2.309,0.821-3.098c0.548-0.788,1.329-1.409,2.344-1.861
				c1.025-0.452,2.256-0.759,3.693-0.919c1.437-0.161,2.979-0.281,4.627-0.362v-0.437c0-0.644-0.113-1.176-0.339-1.598
				s-0.55-0.754-0.972-0.995c-0.402-0.23-0.884-0.387-1.447-0.467c-0.563-0.08-1.15-0.121-1.763-0.121
				c-0.744,0-1.573,0.099-2.487,0.294c-0.915,0.196-1.859,0.48-2.833,0.852h-0.151v-2.879c0.552-0.15,1.351-0.316,2.396-0.497
				c1.045-0.181,2.075-0.271,3.09-0.271c1.185,0,2.218,0.099,3.097,0.294c0.879,0.196,1.64,0.53,2.283,1.003
				c0.633,0.462,1.115,1.06,1.447,1.793s0.498,1.643,0.498,2.729V717.717z M219.69,713.572v-4.688
				c-0.864,0.051-1.882,0.126-3.052,0.227s-2.098,0.246-2.781,0.437c-0.814,0.231-1.472,0.591-1.974,1.078
				c-0.503,0.487-0.754,1.158-0.754,2.012c0,0.965,0.292,1.69,0.875,2.178c0.583,0.487,1.472,0.731,2.667,0.731
				c0.995,0,1.904-0.193,2.728-0.58C218.223,714.58,218.986,714.115,219.69,713.572z"/>
			<path style="fill:#1A5436;" d="M241.485,717.717h-2.833v-9.585c0-0.774-0.045-1.5-0.136-2.179
				c-0.09-0.678-0.256-1.208-0.497-1.59c-0.251-0.422-0.613-0.735-1.085-0.941s-1.085-0.31-1.838-0.31
				c-0.774,0-1.583,0.191-2.427,0.573s-1.653,0.869-2.427,1.462v12.569h-2.833v-16.835h2.833v1.869
				c0.884-0.733,1.799-1.307,2.743-1.719c0.944-0.411,1.914-0.617,2.909-0.617c1.819,0,3.206,0.548,4.16,1.643
				c0.954,1.095,1.432,2.673,1.432,4.732V717.717z"/>
			<path style="fill:#1A5436;" d="M260.734,709.307c0,2.743-0.704,4.909-2.11,6.496c-1.407,1.588-3.291,2.382-5.652,2.382
				c-2.381,0-4.273-0.794-5.674-2.382c-1.402-1.587-2.103-3.753-2.103-6.496s0.701-4.91,2.103-6.503
				c1.401-1.593,3.293-2.389,5.674-2.389c2.361,0,4.245,0.796,5.652,2.389S260.734,706.563,260.734,709.307z M257.811,709.307
				c0-2.18-0.427-3.8-1.281-4.86c-0.854-1.06-2.04-1.59-3.557-1.59c-1.537,0-2.73,0.53-3.58,1.59
				c-0.849,1.061-1.273,2.681-1.273,4.86c0,2.11,0.427,3.711,1.281,4.801c0.854,1.09,2.044,1.635,3.572,1.635
				c1.507,0,2.69-0.539,3.549-1.62C257.381,713.042,257.811,711.438,257.811,709.307z"/>
		</g>
	</g>
	<g>
		<path style="fill:#1A5436;" d="M341.98,717.717h-14.786v-22.441h14.786v2.652h-11.801v6.149h11.801v2.652h-11.801v8.335h11.801
			V717.717z"/>
		<path style="fill:#1A5436;" d="M357.958,712.863c0,1.538-0.636,2.799-1.906,3.783c-1.271,0.985-3.007,1.478-5.208,1.478
			c-1.246,0-2.389-0.148-3.429-0.445c-1.04-0.296-1.912-0.62-2.615-0.972v-3.181h0.151c0.894,0.674,1.889,1.209,2.984,1.605
			c1.095,0.397,2.145,0.596,3.15,0.596c1.246,0,2.22-0.201,2.924-0.604c0.703-0.401,1.055-1.034,1.055-1.898
			c0-0.663-0.191-1.166-0.573-1.508c-0.382-0.341-1.115-0.633-2.201-0.874c-0.402-0.09-0.927-0.195-1.575-0.316
			c-0.648-0.12-1.239-0.251-1.771-0.392c-1.477-0.392-2.524-0.967-3.143-1.726s-0.927-1.69-0.927-2.796
			c0-0.693,0.143-1.347,0.429-1.959c0.287-0.613,0.721-1.161,1.304-1.644c0.563-0.472,1.279-0.846,2.148-1.122
			s1.841-0.415,2.917-0.415c1.004,0,2.022,0.123,3.052,0.369s1.886,0.545,2.57,0.897v3.029h-0.151
			c-0.723-0.533-1.603-0.982-2.637-1.35c-1.035-0.366-2.05-0.55-3.044-0.55c-1.035,0-1.909,0.198-2.623,0.596
			c-0.714,0.396-1.07,0.987-1.07,1.771c0,0.693,0.216,1.216,0.648,1.567c0.422,0.352,1.105,0.639,2.05,0.859
			c0.522,0.12,1.108,0.241,1.756,0.361c0.648,0.121,1.188,0.231,1.621,0.332c1.316,0.301,2.331,0.819,3.044,1.552
			C357.602,710.653,357.958,711.638,357.958,712.863z"/>
		<path style="fill:#1A5436;" d="M376.272,709.096c0,1.366-0.196,2.615-0.588,3.745c-0.392,1.131-0.945,2.088-1.658,2.871
			c-0.663,0.744-1.444,1.319-2.343,1.726c-0.899,0.407-1.852,0.611-2.856,0.611c-0.874,0-1.665-0.096-2.374-0.287
			c-0.708-0.19-1.43-0.487-2.163-0.889v7.054h-2.833v-23.045h2.833v1.764c0.754-0.634,1.6-1.163,2.54-1.591
			c0.939-0.427,1.942-0.641,3.007-0.641c2.03,0,3.61,0.767,4.74,2.299S376.272,706.373,376.272,709.096z M373.348,709.171
			c0-2.029-0.347-3.547-1.04-4.552c-0.693-1.004-1.759-1.507-3.195-1.507c-0.814,0-1.633,0.176-2.457,0.527
			c-0.824,0.352-1.612,0.814-2.366,1.387v9.54c0.804,0.362,1.495,0.608,2.073,0.739c0.578,0.13,1.233,0.195,1.967,0.195
			c1.577,0,2.808-0.532,3.692-1.598C372.906,712.839,373.348,711.261,373.348,709.171z"/>
		<path style="fill:#1A5436;" d="M390.638,703.972h-0.151c-0.422-0.101-0.831-0.174-1.229-0.219
			c-0.396-0.045-0.866-0.068-1.409-0.068c-0.874,0-1.718,0.194-2.531,0.581c-0.814,0.387-1.598,0.887-2.352,1.499v11.952h-2.834
			v-16.835h2.834v2.486c1.125-0.904,2.117-1.545,2.977-1.921c0.859-0.377,1.735-0.565,2.63-0.565c0.492,0,0.85,0.013,1.07,0.037
			c0.221,0.025,0.553,0.073,0.995,0.144V703.972z"/>
		<path style="fill:#1A5436;" d="M406.842,709.593h-12.404c0,1.035,0.155,1.938,0.467,2.706s0.739,1.399,1.281,1.892
			c0.522,0.481,1.144,0.844,1.861,1.085c0.719,0.241,1.51,0.361,2.374,0.361c1.146,0,2.299-0.229,3.459-0.686
			s1.987-0.906,2.479-1.349h0.15v3.09c-0.954,0.401-1.929,0.738-2.924,1.01c-0.994,0.271-2.04,0.406-3.135,0.406
			c-2.794,0-4.974-0.756-6.541-2.268c-1.567-1.513-2.352-3.66-2.352-6.443c0-2.753,0.751-4.938,2.254-6.557
			c1.502-1.617,3.479-2.427,5.931-2.427c2.271,0,4.021,0.663,5.252,1.99c1.23,1.326,1.847,3.21,1.847,5.651V709.593z
			 M404.083,707.423c-0.01-1.487-0.384-2.638-1.122-3.451c-0.739-0.814-1.861-1.221-3.369-1.221c-1.517,0-2.726,0.446-3.625,1.341
			c-0.898,0.895-1.409,2.005-1.529,3.331H404.083z"/>
		<path style="fill:#1A5436;" d="M422.608,712.863c0,1.538-0.636,2.799-1.906,3.783c-1.271,0.985-3.007,1.478-5.207,1.478
			c-1.246,0-2.389-0.148-3.429-0.445c-1.04-0.296-1.912-0.62-2.615-0.972v-3.181h0.15c0.895,0.674,1.89,1.209,2.984,1.605
			c1.095,0.397,2.146,0.596,3.15,0.596c1.245,0,2.22-0.201,2.924-0.604c0.703-0.401,1.055-1.034,1.055-1.898
			c0-0.663-0.19-1.166-0.572-1.508c-0.382-0.341-1.115-0.633-2.201-0.874c-0.401-0.09-0.927-0.195-1.574-0.316
			c-0.648-0.12-1.239-0.251-1.771-0.392c-1.477-0.392-2.524-0.967-3.143-1.726s-0.927-1.69-0.927-2.796
			c0-0.693,0.144-1.347,0.43-1.959c0.286-0.613,0.721-1.161,1.304-1.644c0.562-0.472,1.278-0.846,2.147-1.122
			s1.842-0.415,2.917-0.415c1.004,0,2.021,0.123,3.052,0.369c1.029,0.246,1.886,0.545,2.569,0.897v3.029h-0.15
			c-0.724-0.533-1.603-0.982-2.638-1.35c-1.035-0.366-2.05-0.55-3.044-0.55c-1.035,0-1.909,0.198-2.623,0.596
			c-0.714,0.396-1.07,0.987-1.07,1.771c0,0.693,0.216,1.216,0.648,1.567c0.422,0.352,1.105,0.639,2.05,0.859
			c0.522,0.12,1.107,0.241,1.756,0.361c0.648,0.121,1.188,0.231,1.62,0.332c1.316,0.301,2.331,0.819,3.045,1.552
			C422.252,710.653,422.608,711.638,422.608,712.863z"/>
		<path style="fill:#1A5436;" d="M438.135,712.863c0,1.538-0.636,2.799-1.906,3.783c-1.271,0.985-3.007,1.478-5.208,1.478
			c-1.246,0-2.389-0.148-3.429-0.445c-1.04-0.296-1.911-0.62-2.615-0.972v-3.181h0.151c0.894,0.674,1.889,1.209,2.984,1.605
			c1.095,0.397,2.145,0.596,3.149,0.596c1.246,0,2.221-0.201,2.924-0.604c0.703-0.401,1.056-1.034,1.056-1.898
			c0-0.663-0.191-1.166-0.573-1.508c-0.382-0.341-1.115-0.633-2.2-0.874c-0.402-0.09-0.927-0.195-1.575-0.316
			c-0.648-0.12-1.238-0.251-1.771-0.392c-1.478-0.392-2.524-0.967-3.143-1.726s-0.927-1.69-0.927-2.796
			c0-0.693,0.143-1.347,0.429-1.959c0.287-0.613,0.722-1.161,1.304-1.644c0.563-0.472,1.279-0.846,2.148-1.122
			s1.841-0.415,2.916-0.415c1.005,0,2.022,0.123,3.052,0.369c1.03,0.246,1.887,0.545,2.57,0.897v3.029h-0.151
			c-0.723-0.533-1.603-0.982-2.637-1.35c-1.035-0.366-2.05-0.55-3.045-0.55c-1.035,0-1.909,0.198-2.622,0.596
			c-0.714,0.396-1.07,0.987-1.07,1.771c0,0.693,0.216,1.216,0.647,1.567c0.423,0.352,1.105,0.639,2.05,0.859
			c0.522,0.12,1.108,0.241,1.756,0.361c0.648,0.121,1.188,0.231,1.621,0.332c1.315,0.301,2.33,0.819,3.044,1.552
			C437.778,710.653,438.135,711.638,438.135,712.863z"/>
		<path style="fill:#1A5436;" d="M455.981,709.307c0,2.743-0.703,4.908-2.11,6.496c-1.406,1.588-3.29,2.381-5.651,2.381
			c-2.382,0-4.273-0.793-5.675-2.381s-2.103-3.753-2.103-6.496s0.701-4.911,2.103-6.503c1.401-1.593,3.293-2.39,5.675-2.39
			c2.361,0,4.245,0.797,5.651,2.39C455.278,704.396,455.981,706.563,455.981,709.307z M453.058,709.307
			c0-2.18-0.427-3.801-1.281-4.86c-0.854-1.061-2.04-1.59-3.557-1.59c-1.537,0-2.73,0.529-3.58,1.59
			c-0.849,1.06-1.273,2.681-1.273,4.86c0,2.11,0.427,3.71,1.281,4.801c0.854,1.09,2.045,1.635,3.572,1.635
			c1.507,0,2.69-0.54,3.549-1.62C452.628,713.042,453.058,711.438,453.058,709.307z"/>
	</g>
	<g>
		<path style="fill:#1A5436;" d="M563.625,710.813c0,1.116-0.211,2.101-0.633,2.954c-0.423,0.854-0.99,1.558-1.703,2.11
			c-0.845,0.663-1.771,1.136-2.781,1.417s-2.293,0.422-3.851,0.422h-7.958v-22.441h6.646c1.638,0,2.863,0.06,3.678,0.181
			c0.813,0.12,1.593,0.372,2.336,0.753c0.824,0.433,1.422,0.987,1.794,1.666c0.371,0.678,0.558,1.489,0.558,2.434
			c0,1.065-0.271,1.973-0.814,2.721c-0.542,0.749-1.266,1.349-2.17,1.801v0.121c1.517,0.312,2.713,0.978,3.587,1.997
			S563.625,709.257,563.625,710.813z M558.605,700.701c0-0.543-0.09-1-0.271-1.372c-0.182-0.371-0.473-0.673-0.875-0.904
			c-0.472-0.271-1.045-0.439-1.718-0.505s-1.507-0.098-2.502-0.098h-3.557v6.48h3.858c0.935,0,1.678-0.048,2.23-0.143
			c0.553-0.096,1.064-0.294,1.537-0.596s0.807-0.69,1.002-1.168C558.508,701.919,558.605,701.354,558.605,700.701z M560.52,710.935
			c0-0.904-0.135-1.623-0.406-2.155s-0.764-0.984-1.478-1.356c-0.482-0.251-1.067-0.414-1.756-0.49
			c-0.688-0.075-1.524-0.112-2.509-0.112h-4.688v8.35h3.948c1.307,0,2.377-0.068,3.211-0.204s1.517-0.384,2.05-0.746
			c0.562-0.392,0.974-0.839,1.235-1.341C560.39,712.376,560.52,711.729,560.52,710.935z"/>
		<path style="fill:#1A5436;" d="M569.941,717.717h-2.833v-23.451h2.833V717.717z"/>
		<path style="fill:#1A5436;" d="M588.075,717.717h-2.818v-1.794c-0.251,0.171-0.59,0.41-1.018,0.717
			c-0.427,0.306-0.841,0.55-1.243,0.73c-0.473,0.231-1.015,0.425-1.628,0.58c-0.612,0.156-1.331,0.233-2.155,0.233
			c-1.517,0-2.803-0.502-3.858-1.507c-1.055-1.005-1.582-2.285-1.582-3.843c0-1.276,0.273-2.309,0.821-3.098
			s1.329-1.409,2.344-1.861c1.024-0.452,2.256-0.759,3.692-0.92c1.437-0.16,2.979-0.28,4.627-0.361v-0.437
			c0-0.644-0.113-1.176-0.339-1.598c-0.227-0.423-0.55-0.754-0.973-0.995c-0.401-0.231-0.884-0.387-1.446-0.467
			c-0.563-0.081-1.15-0.121-1.764-0.121c-0.743,0-1.572,0.098-2.486,0.294c-0.915,0.196-1.859,0.479-2.834,0.852h-0.15v-2.879
			c0.552-0.15,1.351-0.316,2.396-0.497c1.045-0.181,2.074-0.271,3.09-0.271c1.185,0,2.218,0.098,3.097,0.294s1.641,0.53,2.283,1.002
			c0.633,0.463,1.115,1.061,1.447,1.794c0.331,0.733,0.497,1.643,0.497,2.728V717.717z M585.257,713.572v-4.688
			c-0.864,0.051-1.882,0.126-3.052,0.226c-1.171,0.101-2.098,0.247-2.781,0.438c-0.813,0.231-1.472,0.591-1.974,1.078
			c-0.503,0.487-0.754,1.158-0.754,2.012c0,0.965,0.291,1.69,0.874,2.178s1.472,0.731,2.668,0.731c0.994,0,1.903-0.193,2.728-0.581
			C583.79,714.579,584.554,714.114,585.257,713.572z"/>
		<path style="fill:#1A5436;" d="M605.425,716.662c-0.944,0.452-1.842,0.804-2.69,1.055s-1.751,0.377-2.705,0.377
			c-1.216,0-2.331-0.179-3.346-0.535c-1.016-0.356-1.885-0.896-2.607-1.62c-0.734-0.724-1.302-1.638-1.703-2.743
			c-0.402-1.105-0.604-2.396-0.604-3.873c0-2.753,0.756-4.914,2.269-6.481c1.512-1.567,3.509-2.351,5.991-2.351
			c0.965,0,1.911,0.135,2.841,0.406s1.781,0.604,2.555,0.995v3.149h-0.15c-0.864-0.673-1.756-1.19-2.676-1.552
			c-0.919-0.362-1.816-0.543-2.69-0.543c-1.607,0-2.876,0.54-3.806,1.62c-0.929,1.08-1.394,2.666-1.394,4.756
			c0,2.029,0.454,3.589,1.364,4.68c0.909,1.09,2.188,1.635,3.835,1.635c0.573,0,1.155-0.075,1.749-0.226
			c0.593-0.151,1.125-0.347,1.598-0.588c0.411-0.211,0.799-0.435,1.16-0.671s0.648-0.439,0.859-0.61h0.15V716.662z"/>
		<path style="fill:#1A5436;" d="M623.784,717.717h-3.738l-6.752-7.37l-1.839,1.748v5.622h-2.833v-23.451h2.833v15.041l8.185-8.425
			h3.572l-7.822,7.776L623.784,717.717z"/>
	</g>
	<line style="fill:none;stroke:#6F7270;stroke-miterlimit:10;" x1="501" y1="663" x2="501" y2="747"/>
	<g>
		<path style="fill:#1A5436;" d="M66.35,243.312l-5.833,22.442h-3.361l-4.717-18.629l-4.612,18.629h-3.286l-5.938-22.442h3.06
			l4.717,18.659l4.642-18.659h3.029l4.688,18.84l4.688-18.84H66.35z"/>
		<path style="fill:#1A5436;" d="M84.046,265.753h-2.833v-9.585c0-0.774-0.045-1.5-0.136-2.178c-0.09-0.678-0.256-1.208-0.497-1.59
			c-0.251-0.422-0.613-0.736-1.085-0.942s-1.085-0.309-1.838-0.309c-0.774,0-1.583,0.191-2.427,0.573s-1.653,0.869-2.427,1.462
			v12.57h-2.833v-23.452h2.833v8.485c0.884-0.733,1.799-1.306,2.743-1.718c0.944-0.412,1.914-0.618,2.909-0.618
			c1.819,0,3.206,0.548,4.16,1.643c0.954,1.095,1.432,2.673,1.432,4.732V265.753z"/>
		<path style="fill:#1A5436;" d="M91.991,246.1h-3.195v-2.939h3.195V246.1z M91.81,265.753h-2.833v-16.835h2.833V265.753z"/>
		<path style="fill:#1A5436;" d="M99.725,265.753h-2.833v-23.452h2.833V265.753z"/>
		<path style="fill:#1A5436;" d="M118.868,257.63h-12.404c0,1.035,0.156,1.937,0.467,2.705c0.312,0.769,0.739,1.399,1.281,1.892
			c0.522,0.482,1.143,0.844,1.861,1.085c0.718,0.241,1.51,0.361,2.374,0.361c1.146,0,2.298-0.228,3.459-0.686
			c1.16-0.457,1.987-0.907,2.479-1.349h0.151v3.09c-0.955,0.402-1.929,0.739-2.924,1.01c-0.995,0.271-2.04,0.407-3.135,0.407
			c-2.793,0-4.974-0.756-6.541-2.269s-2.351-3.66-2.351-6.443c0-2.753,0.751-4.938,2.253-6.556c1.502-1.618,3.479-2.426,5.931-2.426
			c2.271,0,4.021,0.663,5.252,1.989c1.23,1.326,1.846,3.21,1.846,5.652V257.63z M116.11,255.459
			c-0.01-1.487-0.384-2.638-1.123-3.452c-0.739-0.813-1.861-1.221-3.369-1.221c-1.517,0-2.726,0.447-3.625,1.341
			c-0.899,0.895-1.409,2.005-1.53,3.331H116.11z"/>
		<path style="fill:#1A5436;" d="M147.463,248.918l-9.827,23.044h-3.03l3.135-7.023l-6.707-16.021h3.075l5.169,12.479l5.215-12.479
			H147.463z"/>
		<path style="fill:#1A5436;" d="M164.692,257.343c0,2.743-0.704,4.909-2.11,6.496c-1.407,1.588-3.291,2.381-5.652,2.381
			c-2.381,0-4.273-0.793-5.674-2.381c-1.402-1.587-2.103-3.753-2.103-6.496s0.701-4.911,2.103-6.503
			c1.401-1.592,3.293-2.389,5.674-2.389c2.361,0,4.245,0.796,5.652,2.389C163.989,252.433,164.692,254.6,164.692,257.343z
			 M161.769,257.343c0-2.18-0.427-3.8-1.281-4.86s-2.04-1.59-3.557-1.59c-1.537,0-2.73,0.53-3.58,1.59s-1.273,2.68-1.273,4.86
			c0,2.11,0.427,3.71,1.281,4.8c0.854,1.09,2.044,1.635,3.572,1.635c1.507,0,2.69-0.54,3.549-1.62
			C161.339,261.079,161.769,259.474,161.769,257.343z"/>
		<path style="fill:#1A5436;" d="M182.479,265.753h-2.833v-1.869c-0.955,0.754-1.869,1.332-2.743,1.733
			c-0.874,0.402-1.838,0.603-2.894,0.603c-1.769,0-3.145-0.54-4.13-1.62s-1.477-2.665-1.477-4.755v-10.927h2.833v9.585
			c0,0.854,0.04,1.585,0.121,2.193s0.251,1.128,0.513,1.56c0.271,0.442,0.623,0.764,1.055,0.964c0.432,0.201,1.06,0.302,1.884,0.302
			c0.733,0,1.535-0.191,2.404-0.573s1.681-0.869,2.434-1.462v-12.57h2.833V265.753z"/>
		<path style="fill:#1A5436;" d="M210.878,265.753h-2.818v-1.793c-0.251,0.171-0.59,0.41-1.018,0.716
			c-0.427,0.307-0.841,0.55-1.243,0.731c-0.473,0.231-1.015,0.424-1.628,0.58s-1.332,0.234-2.155,0.234
			c-1.517,0-2.803-0.502-3.858-1.507c-1.055-1.004-1.583-2.286-1.583-3.843c0-1.276,0.274-2.308,0.821-3.097
			c0.548-0.789,1.329-1.409,2.344-1.861c1.025-0.452,2.256-0.759,3.693-0.919c1.437-0.161,2.979-0.281,4.627-0.362v-0.437
			c0-0.643-0.113-1.176-0.339-1.598s-0.55-0.753-0.972-0.995c-0.402-0.231-0.884-0.387-1.447-0.467
			c-0.563-0.08-1.15-0.121-1.763-0.121c-0.744,0-1.573,0.098-2.487,0.294c-0.915,0.196-1.859,0.48-2.833,0.852h-0.151v-2.879
			c0.552-0.15,1.351-0.316,2.396-0.497c1.045-0.181,2.075-0.271,3.09-0.271c1.185,0,2.218,0.098,3.097,0.294
			c0.879,0.196,1.64,0.53,2.283,1.002c0.633,0.462,1.115,1.06,1.447,1.793s0.498,1.643,0.498,2.728V265.753z M208.06,261.609v-4.688
			c-0.864,0.05-1.882,0.126-3.052,0.226c-1.17,0.101-2.098,0.246-2.781,0.437c-0.814,0.231-1.472,0.59-1.974,1.078
			c-0.503,0.487-0.754,1.158-0.754,2.012c0,0.964,0.292,1.69,0.875,2.178c0.583,0.487,1.472,0.731,2.667,0.731
			c0.995,0,1.904-0.193,2.728-0.58C206.593,262.616,207.356,262.151,208.06,261.609z"/>
		<path style="fill:#1A5436;" d="M226.284,252.008h-0.151c-0.422-0.1-0.832-0.173-1.229-0.218c-0.397-0.045-0.867-0.068-1.409-0.068
			c-0.874,0-1.718,0.193-2.532,0.58c-0.814,0.387-1.598,0.887-2.352,1.5v11.952h-2.833v-16.835h2.833v2.487
			c1.125-0.904,2.118-1.545,2.977-1.922c0.859-0.377,1.735-0.565,2.63-0.565c0.492,0,0.849,0.013,1.07,0.038
			c0.221,0.025,0.553,0.073,0.995,0.143V252.008z"/>
		<path style="fill:#1A5436;" d="M242.488,257.63h-12.404c0,1.035,0.156,1.937,0.467,2.705c0.312,0.769,0.739,1.399,1.281,1.892
			c0.522,0.482,1.143,0.844,1.861,1.085c0.718,0.241,1.51,0.361,2.374,0.361c1.146,0,2.298-0.228,3.459-0.686
			c1.16-0.457,1.987-0.907,2.479-1.349h0.151v3.09c-0.955,0.402-1.929,0.739-2.924,1.01c-0.995,0.271-2.04,0.407-3.135,0.407
			c-2.793,0-4.974-0.756-6.541-2.269s-2.351-3.66-2.351-6.443c0-2.753,0.751-4.938,2.253-6.556c1.502-1.618,3.479-2.426,5.931-2.426
			c2.271,0,4.021,0.663,5.252,1.989c1.23,1.326,1.846,3.21,1.846,5.652V257.63z M239.729,255.459
			c-0.01-1.487-0.384-2.638-1.123-3.452c-0.739-0.813-1.861-1.221-3.369-1.221c-1.517,0-2.726,0.447-3.625,1.341
			c-0.899,0.895-1.409,2.005-1.53,3.331H239.729z"/>
		<path style="fill:#1A5436;" d="M277.699,248.918l-4.386,16.835h-2.623l-4.325-12.977l-4.296,12.977h-2.607l-4.431-16.835h2.954
			l3.09,13.037l4.205-13.037h2.336l4.311,13.037l2.924-13.037H277.699z"/>
		<path style="fill:#1A5436;" d="M294.009,265.753h-2.818v-1.793c-0.251,0.171-0.59,0.41-1.018,0.716
			c-0.427,0.307-0.841,0.55-1.243,0.731c-0.473,0.231-1.015,0.424-1.628,0.58s-1.332,0.234-2.155,0.234
			c-1.517,0-2.803-0.502-3.858-1.507c-1.055-1.004-1.583-2.286-1.583-3.843c0-1.276,0.274-2.308,0.821-3.097
			c0.548-0.789,1.329-1.409,2.344-1.861c1.025-0.452,2.256-0.759,3.693-0.919c1.437-0.161,2.979-0.281,4.627-0.362v-0.437
			c0-0.643-0.113-1.176-0.339-1.598s-0.55-0.753-0.972-0.995c-0.402-0.231-0.884-0.387-1.447-0.467
			c-0.563-0.08-1.15-0.121-1.763-0.121c-0.744,0-1.573,0.098-2.487,0.294c-0.915,0.196-1.859,0.48-2.833,0.852h-0.151v-2.879
			c0.552-0.15,1.351-0.316,2.396-0.497c1.045-0.181,2.075-0.271,3.09-0.271c1.185,0,2.218,0.098,3.097,0.294
			c0.879,0.196,1.64,0.53,2.283,1.002c0.633,0.462,1.115,1.06,1.447,1.793s0.498,1.643,0.498,2.728V265.753z M291.191,261.609
			v-4.688c-0.864,0.05-1.882,0.126-3.052,0.226c-1.17,0.101-2.098,0.246-2.781,0.437c-0.814,0.231-1.472,0.59-1.974,1.078
			c-0.503,0.487-0.754,1.158-0.754,2.012c0,0.964,0.292,1.69,0.875,2.178c0.583,0.487,1.472,0.731,2.667,0.731
			c0.995,0,1.904-0.193,2.728-0.58C289.724,262.616,290.487,262.151,291.191,261.609z"/>
		<path style="fill:#1A5436;" d="M301.955,246.1h-3.195v-2.939h3.195V246.1z M301.773,265.753h-2.833v-16.835h2.833V265.753z"/>
		<path style="fill:#1A5436;" d="M315.566,265.603c-0.533,0.141-1.113,0.256-1.741,0.347s-1.188,0.136-1.681,0.136
			c-1.718,0-3.024-0.462-3.918-1.387c-0.895-0.924-1.341-2.406-1.341-4.446V251.3h-1.914v-2.381h1.914v-4.838h2.833v4.838h5.848
			v2.381h-5.848v7.671c0,0.884,0.02,1.575,0.06,2.072s0.181,0.962,0.422,1.394c0.221,0.402,0.525,0.696,0.912,0.882
			s0.977,0.279,1.771,0.279c0.462,0,0.944-0.068,1.447-0.204c0.502-0.135,0.864-0.249,1.085-0.339h0.15V265.603z"/>
		<path style="fill:#1A5436;" d="M321.477,246.1h-3.195v-2.939h3.195V246.1z M321.295,265.753h-2.833v-16.835h2.833V265.753z"/>
		<path style="fill:#1A5436;" d="M340.424,265.753h-2.834v-9.585c0-0.774-0.045-1.5-0.136-2.178c-0.09-0.678-0.256-1.208-0.497-1.59
			c-0.251-0.422-0.613-0.736-1.085-0.942s-1.085-0.309-1.838-0.309c-0.774,0-1.583,0.191-2.427,0.573s-1.653,0.869-2.427,1.462
			v12.57h-2.833v-16.835h2.833v1.869c0.884-0.733,1.799-1.306,2.743-1.718c0.944-0.412,1.914-0.618,2.909-0.618
			c1.819,0,3.206,0.548,4.16,1.643c0.954,1.095,1.432,2.673,1.432,4.732V265.753z"/>
		<path style="fill:#1A5436;" d="M358.979,263.839c0,2.854-0.648,4.948-1.944,6.285s-3.291,2.005-5.983,2.005
			c-0.895,0-1.766-0.063-2.615-0.188c-0.849-0.126-1.686-0.304-2.509-0.535v-2.894h0.15c0.462,0.181,1.195,0.404,2.2,0.67
			s2.01,0.399,3.015,0.399c0.965,0,1.764-0.116,2.396-0.347s1.125-0.553,1.477-0.964c0.352-0.392,0.604-0.864,0.754-1.417
			s0.226-1.17,0.226-1.854v-1.538c-0.854,0.684-1.67,1.193-2.449,1.53c-0.778,0.337-1.771,0.505-2.977,0.505
			c-2.01,0-3.604-0.726-4.785-2.178c-1.181-1.452-1.771-3.499-1.771-6.142c0-1.447,0.203-2.695,0.61-3.746
			c0.407-1.05,0.962-1.957,1.665-2.72c0.653-0.713,1.447-1.269,2.382-1.666s1.863-0.595,2.788-0.595
			c0.975,0,1.791,0.098,2.449,0.294c0.658,0.196,1.354,0.495,2.087,0.896l0.182-0.723h2.652V263.839z M356.145,261.126v-9.179
			c-0.753-0.341-1.454-0.585-2.103-0.731c-0.647-0.146-1.293-0.219-1.937-0.219c-1.558,0-2.783,0.522-3.678,1.567
			c-0.894,1.045-1.341,2.562-1.341,4.552c0,1.889,0.331,3.321,0.995,4.295c0.663,0.975,1.763,1.462,3.3,1.462
			c0.824,0,1.65-0.158,2.479-0.475S355.451,261.659,356.145,261.126z"/>
		<path style="fill:#1A5436;" d="M368.627,265.753h-3.602v-4.295h3.602V265.753z"/>
		<path style="fill:#1A5436;" d="M379.3,265.753h-3.602v-4.295h3.602V265.753z"/>
		<path style="fill:#1A5436;" d="M389.973,265.753h-3.602v-4.295h3.602V265.753z"/>
	</g>
	<line style="fill:none;stroke:#6F7270;stroke-miterlimit:10;" x1="283.352" y1="663" x2="283.352" y2="747"/>
	
		<line style="fill:none;stroke:#1A5436;stroke-width:2;stroke-miterlimit:10;" x1="294.213" y1="626.592" x2="465.461" y2="626.592"/>
	<line style="fill:none;stroke:#7F7E7E;stroke-miterlimit:10;" x1="30.977" y1="943.458" x2="718.958" y2="943.458"/>
</g>
<g id="carrier">
	<g id="m6hDVY.tif">
		
			<image style="overflow:visible;" width="1300" height="957" id="Layer_0_1_" xlink:href="BFA9CAEC68305F4C.png"  transform="matrix(0.3762 0 0 0.3762 -891 1547.0208)">
		</image>
	</g>
	<path style="display:none;fill:none;stroke:#5D5D5D;stroke-width:5;stroke-miterlimit:10;" d="M-451.93,1711
		c-5,39.67-24.67,61-24.67,61h-102.07c0,0-19.66-21.33-24.66-61c-5-39.67-3.34-59.67-3.34-59.67h158.07
		C-448.6,1651.33-446.93,1671.33-451.93,1711z"/>
	<path style="display:none;fill:none;stroke:#5D5D5D;stroke-width:5;stroke-miterlimit:10;" d="M-454.908,1727.01
		c0,0,13.908,0.656,19.908-4.677c6-5.333,12.667-18,12.667-28s-2.667-18.667-7-21.333c-4.333-2.667-13.664-4-18.999-2"/>
	<path style="display:none;fill:none;stroke:#FFFFFF;stroke-width:3;stroke-miterlimit:10;" d="M14.67,1574.157
		c-0.869,6.916-2.755,12.561-4.714,16.855c-2.774,6.083-8.91,9.925-15.595,9.925h-25.848c-6.686,0-12.822-3.843-15.596-9.927
		c-1.958-4.294-3.844-9.938-4.717-16.853c-1.046-8.322-1.426-14.672-1.537-19.035c-0.1-3.932,3.065-7.165,6.999-7.165H9.212
		c3.933,0,7.098,3.231,6.999,7.163C16.101,1559.483,15.721,1565.834,14.67,1574.157z"/>
	<path style="display:none;fill:none;stroke:#FFFFFF;stroke-width:3;stroke-miterlimit:10;" d="M13.365,1580.248
		c0,0,6.106,0.288,8.74-2.053s5.561-7.903,5.561-12.293c0-12.276-9.072-11.122-11.415-10.244"/>
	<g style="display:none;">
		<g style="display:inline;">
			<path style="fill:#FFFFFF;" d="M-31.121,1539.378c2.208-2.979,5.464-7.703,4.706-11.636c-0.301-1.559-1.314-2.532-2.486-3.521
				c-2.627-2.215-4.231-3.842-4.432-7.517c-0.105-1.92-3.106-1.932-3,0c0.254,4.645,2.124,6.854,5.447,9.752
				c3.49,3.044-0.617,8.428-2.825,11.407C-34.862,1539.416-32.26,1540.914-31.121,1539.378L-31.121,1539.378z"/>
		</g>
	</g>
	<g style="display:none;">
		<g style="display:inline;">
			<path style="fill:#FFFFFF;" d="M-10.784,1539.378c2.208-2.979,5.464-7.703,4.706-11.636c-0.301-1.559-1.314-2.532-2.486-3.521
				c-2.627-2.215-4.231-3.842-4.432-7.517c-0.105-1.92-3.106-1.932-3,0c0.254,4.645,2.124,6.854,5.447,9.752
				c3.49,3.044-0.617,8.428-2.825,11.407C-14.525,1539.416-11.922,1540.914-10.784,1539.378L-10.784,1539.378z"/>
		</g>
	</g>
	<path style="fill:none;stroke:#1A5436;stroke-width:7;stroke-miterlimit:10;" d="M409.387,470.766c0,0,6.106,0.288,8.74-2.053
		s5.561-7.903,5.561-12.293c0-12.276-9.072-11.122-11.415-10.244"/>
	<path style="fill:#1A5436;stroke:#1A5436;stroke-width:3;stroke-miterlimit:10;" d="M411.062,461.598
		c-0.12,0.99-0.24,2.02-0.37,3.08c-0.27,2.15-0.64,4.18-1.08,6.09c-0.97,4.21-2.28,7.81-3.63,10.76c-2.78,6.09-8.91,9.93-15.6,9.93
		h-25.85c-6.68,0-12.82-3.85-15.59-9.93c-1.96-4.29-3.85-9.94-4.72-16.85c0,0,7.823-2.048,16.653-2.178
		c8.83-0.14,11.027,2.348,16.587,2.468S392.442,461.098,411.062,461.598z"/>
	<path style="fill:none;stroke:#1A5436;stroke-width:3;stroke-miterlimit:10;" d="M412.232,445.638c-0.1,3.81-0.4,9.13-1.17,15.96
		c-18.62-0.5-28.04,3.49-33.6,3.37s-7.757-2.608-16.587-2.468c-8.83,0.13-16.653,2.178-16.653,2.178
		c-1.05-8.32-1.43-14.67-1.54-19.04c-0.1-3.93,3.07-7.16,7-7.16h55.55C409.172,438.478,412.332,441.708,412.232,445.638z"/>
	<g>
		<g>
			<path style="fill:#1A5436;" d="M364.876,429.872c2.215-2.974,5.481-7.691,4.73-11.626c-0.298-1.559-1.311-2.534-2.48-3.525
				c-2.615-2.216-4.22-3.852-4.413-7.528c-0.101-1.921-3.101-1.933-3,0c0.243,4.649,2.107,6.851,5.428,9.763
				c3.48,3.052-0.641,8.429-2.855,11.402C361.132,429.907,363.735,431.404,364.876,429.872L364.876,429.872z"/>
		</g>
	</g>
	<g>
		<g>
			<path style="fill:#1A5436;" d="M377.818,429.917c2.215-2.974,5.481-7.691,4.73-11.626c-0.298-1.559-1.311-2.534-2.48-3.525
				c-2.615-2.216-4.22-3.852-4.413-7.528c-0.101-1.921-3.101-1.933-3,0c0.244,4.649,2.107,6.851,5.428,9.763
				c3.48,3.052-0.641,8.429-2.855,11.402C374.074,429.952,376.677,431.449,377.818,429.917L377.818,429.917z"/>
		</g>
	</g>
	<g>
		<g>
			<path style="fill:#1A5436;" d="M389.087,429.917c2.215-2.974,5.481-7.691,4.73-11.626c-0.298-1.559-1.311-2.534-2.48-3.525
				c-2.615-2.216-4.22-3.852-4.413-7.528c-0.101-1.921-3.101-1.933-3,0c0.243,4.649,2.107,6.851,5.428,9.763
				c3.48,3.052-0.641,8.429-2.855,11.402C385.343,429.952,387.946,431.449,389.087,429.917L389.087,429.917z"/>
		</g>
	</g>
	<circle style="fill:none;stroke:#1A5436;stroke-width:3;stroke-miterlimit:10;" cx="379.837" cy="458.225" r="78.5"/>
</g>
<g id="ai2html-settings">
	<rect x="-450" style="fill:none;" width="400" height="462"/>
	<text transform="matrix(1 0 0 1 -450 10.6499)" style="display:none;"><tspan x="0" y="0" style="display:inline; font-family:'MyriadPro-Regular'; font-size:15px;">ai2html-settings</tspan><tspan x="0" y="18" style="display:inline; font-family:'MyriadPro-Regular'; font-size:15px;">settings_version: 0.61</tspan><tspan x="0" y="36" style="display:inline; font-family:'MyriadPro-Regular'; font-size:15px;">image_format: svg</tspan><tspan x="0" y="54" style="display:inline; font-family:'MyriadPro-Regular'; font-size:15px;">responsiveness: fixed</tspan><tspan x="0" y="72" style="display:inline; font-family:'MyriadPro-Regular'; font-size:15px;">output: one-file</tspan><tspan x="0" y="90" style="display:inline; font-family:'MyriadPro-Regular'; font-size:15px;">html_output_path: /ai2html-output/</tspan><tspan x="0" y="108" style="display:inline; font-family:'MyriadPro-Regular'; font-size:15px;">html_output_extension: .html</tspan><tspan x="0" y="126" style="display:inline; font-family:'MyriadPro-Regular'; font-size:15px;">image_output_path: </tspan><tspan x="0" y="144" style="display:inline; font-family:'MyriadPro-Regular'; font-size:15px;">local_preview_template: </tspan><tspan x="0" y="162" style="display:inline; font-family:'MyriadPro-Regular'; font-size:15px;">png_number_of_colors: 128</tspan><tspan x="0" y="180" style="display:inline; font-family:'MyriadPro-Regular'; font-size:15px;">jpg_quality: 60</tspan><tspan x="0" y="198" style="display:inline; font-family:'MyriadPro-Regular'; font-size:15px;">headline: Ai Graphic Headline</tspan><tspan x="0" y="216" style="display:inline; font-family:'MyriadPro-Regular'; font-size:15px;">leadin: Introductory text here.</tspan><tspan x="0" y="234" style="display:inline; font-family:'MyriadPro-Regular'; font-size:15px;">notes: Notes: Text goes here.</tspan><tspan x="0" y="252" style="display:inline; font-family:'MyriadPro-Regular'; font-size:15px;">sources: Source: Name goes here.</tspan><tspan x="0" y="270" style="display:inline; font-family:'MyriadPro-Regular'; font-size:15px;">credit: By ai2html</tspan></text>
</g>
</svg>
