<?xml version="1.0" encoding="utf-8"?>
<!-- Generator: Adobe Illustrator 20.1.0, SVG Export Plug-In . SVG Version: 6.00 Build 0)  -->
<svg version="1.1" xmlns="http://www.w3.org/2000/svg" xmlns:xlink="http://www.w3.org/1999/xlink" x="0px" y="0px"
	 viewBox="0 0 750 1334" style="enable-background:new 0 0 750 1334;" xml:space="preserve">
<g id="background">
	<rect x="0.861" style="fill:#E5E5E5;" width="749.139" height="1334"/>
</g>
<g id="halfway" style="display:none;">
	
		<line style="display:inline;stroke:#FFFFFF;stroke-width:8;stroke-miterlimit:10;" x1="373.41" y1="-45.588" x2="375.431" y2="1556"/>
</g>
<g id="stuff">
	<rect x="0" y="0" style="fill:#1A5436;" width="750" height="175.271"/>
	<path id="path2651_1_" style="fill:#FFFFFF;" d="M332.484,144.758h85.893V72.53h-85.893V144.758z M388.867,129.134h-20.009V95.235
		h10.051v27.902h9.663c6.672,0,9.477-4.361,9.477-15.543c0-11.268-3.192-14.539-9.958-14.539h-22.037v36.079h-9.958V93.055h-14.596
		v-6.003h49.681c11.988,0,17.69,5.815,17.69,20.452C408.872,126.77,400.365,129.134,388.867,129.134"/>
	<g>
		<path style="fill:#4F4F4F;" d="M202.689,780.836h-18.021v44.479h-6.708v-44.479h-18.021v-5.962h42.75V780.836z"/>
		<path style="fill:#4F4F4F;" d="M246.799,825.314h-6.707v-24.695h-25.169v24.695h-6.708v-50.44h6.708v19.783h25.169v-19.783h6.707
			V825.314z"/>
		<path style="fill:#4F4F4F;" d="M298.871,825.314h-7.148l-4.945-14.059h-21.816l-4.946,14.059h-6.809l18.36-50.44h8.943
			L298.871,825.314z M284.711,805.497l-8.842-24.763l-8.875,24.763H284.711z"/>
		<path style="fill:#4F4F4F;" d="M343.761,825.314h-8.3l-23.916-45.122v45.122h-6.267v-50.44h10.399l21.815,41.192v-41.192h6.268
			V825.314z"/>
		<path style="fill:#4F4F4F;" d="M396.474,825.314h-8.705l-19.953-22.459l-5.014,5.352v17.107h-6.707v-50.44h6.707v26.321
			l24.492-26.321h8.13l-22.527,23.713L396.474,825.314z"/>
		<path style="fill:#4F4F4F;" d="M461.593,774.874l-17.751,28.32v22.12h-6.707v-21.409l-17.818-29.031h7.419l13.787,22.562
			l13.923-22.562H461.593z"/>
		<path style="fill:#4F4F4F;" d="M504.246,780.667c2.055,2.259,3.63,5.025,4.726,8.299c1.095,3.275,1.643,6.99,1.643,11.146
			s-0.559,7.876-1.677,11.162c-1.118,3.285-2.682,6.024-4.691,8.215c-2.078,2.281-4.534,3.997-7.368,5.148
			c-2.835,1.152-6.069,1.728-9.705,1.728c-3.546,0-6.77-0.587-9.672-1.761c-2.902-1.175-5.369-2.88-7.401-5.115
			c-2.032-2.236-3.597-4.98-4.691-8.232c-1.096-3.252-1.644-6.966-1.644-11.145c0-4.11,0.542-7.797,1.626-11.061
			c1.084-3.263,2.665-6.058,4.743-8.384c1.986-2.213,4.454-3.907,7.401-5.081c2.947-1.175,6.159-1.762,9.638-1.762
			c3.612,0,6.859,0.593,9.739,1.778C499.791,776.788,502.235,778.477,504.246,780.667z M503.636,800.111
			c0-6.549-1.468-11.603-4.403-15.159c-2.937-3.557-6.944-5.335-12.026-5.335c-5.126,0-9.151,1.778-12.076,5.335
			s-4.387,8.61-4.387,15.159c0,6.617,1.49,11.682,4.472,15.193c2.98,3.512,6.979,5.268,11.991,5.268
			c5.014,0,9.006-1.756,11.976-5.268C502.15,811.793,503.636,806.729,503.636,800.111z"/>
		<path style="fill:#4F4F4F;" d="M557.976,805.057c0,3.659-0.401,6.849-1.202,9.57c-0.802,2.722-2.117,4.985-3.946,6.792
			c-1.739,1.717-3.772,2.97-6.098,3.76c-2.326,0.79-5.036,1.186-8.13,1.186c-3.162,0-5.918-0.418-8.266-1.253
			c-2.35-0.835-4.325-2.066-5.929-3.692c-1.829-1.852-3.145-4.088-3.946-6.707c-0.802-2.62-1.202-5.838-1.202-9.655v-30.183h6.707
			v30.521c0,2.733,0.187,4.89,0.559,6.471c0.373,1.581,0.999,3.015,1.88,4.302c0.994,1.469,2.343,2.574,4.049,3.32
			c1.704,0.745,3.754,1.117,6.148,1.117c2.416,0,4.471-0.366,6.165-1.101c1.693-0.733,3.049-1.847,4.064-3.337
			c0.881-1.287,1.508-2.761,1.881-4.421c0.372-1.659,0.559-3.72,0.559-6.182v-30.691h6.707V805.057z"/>
		<path style="fill:#4F4F4F;" d="M580.202,774.874l-0.88,36.552h-5.759l-0.949-36.552H580.202z M579.864,825.314h-6.911v-7.147
			h6.911V825.314z"/>
	</g>
	<g>
		<g>
			<path style="fill:#1A5436;" d="M276.668,621.302c19.583,19.583,39.165,39.165,58.748,58.748c2.777,2.777,5.555,5.555,8.332,8.332
				c3.819,3.819,10.315,3.827,14.142,0c34.019-34.019,68.038-68.038,102.057-102.057c4.749-4.749,9.497-9.497,14.246-14.246
				c9.113-9.113-5.025-23.259-14.142-14.142c-34.019,34.019-68.038,68.038-102.057,102.057c-4.749,4.749-9.497,9.497-14.246,14.246
				c4.714,0,9.428,0,14.142,0c-19.583-19.583-39.165-39.165-58.748-58.748c-2.777-2.777-5.555-5.555-8.332-8.332
				C281.697,598.047,267.551,612.185,276.668,621.302L276.668,621.302z"/>
		</g>
	</g>
</g>
<g id="carrier">
</g>
<g id="ai2html-settings">
	<rect x="-450" style="fill:none;" width="400" height="462"/>
	<text transform="matrix(1 0 0 1 -450 10.6499)" style="display:none;"><tspan x="0" y="0" style="display:inline; font-family:'MyriadPro-Regular'; font-size:15px;">ai2html-settings</tspan><tspan x="0" y="18" style="display:inline; font-family:'MyriadPro-Regular'; font-size:15px;">settings_version: 0.61</tspan><tspan x="0" y="36" style="display:inline; font-family:'MyriadPro-Regular'; font-size:15px;">image_format: svg</tspan><tspan x="0" y="54" style="display:inline; font-family:'MyriadPro-Regular'; font-size:15px;">responsiveness: fixed</tspan><tspan x="0" y="72" style="display:inline; font-family:'MyriadPro-Regular'; font-size:15px;">output: one-file</tspan><tspan x="0" y="90" style="display:inline; font-family:'MyriadPro-Regular'; font-size:15px;">html_output_path: /ai2html-output/</tspan><tspan x="0" y="108" style="display:inline; font-family:'MyriadPro-Regular'; font-size:15px;">html_output_extension: .html</tspan><tspan x="0" y="126" style="display:inline; font-family:'MyriadPro-Regular'; font-size:15px;">image_output_path: </tspan><tspan x="0" y="144" style="display:inline; font-family:'MyriadPro-Regular'; font-size:15px;">local_preview_template: </tspan><tspan x="0" y="162" style="display:inline; font-family:'MyriadPro-Regular'; font-size:15px;">png_number_of_colors: 128</tspan><tspan x="0" y="180" style="display:inline; font-family:'MyriadPro-Regular'; font-size:15px;">jpg_quality: 60</tspan><tspan x="0" y="198" style="display:inline; font-family:'MyriadPro-Regular'; font-size:15px;">headline: Ai Graphic Headline</tspan><tspan x="0" y="216" style="display:inline; font-family:'MyriadPro-Regular'; font-size:15px;">leadin: Introductory text here.</tspan><tspan x="0" y="234" style="display:inline; font-family:'MyriadPro-Regular'; font-size:15px;">notes: Notes: Text goes here.</tspan><tspan x="0" y="252" style="display:inline; font-family:'MyriadPro-Regular'; font-size:15px;">sources: Source: Name goes here.</tspan><tspan x="0" y="270" style="display:inline; font-family:'MyriadPro-Regular'; font-size:15px;">credit: By ai2html</tspan></text>
</g>
</svg>
