<?xml version="1.0" encoding="utf-8"?>
<!-- Generator: Adobe Illustrator 20.1.0, SVG Export Plug-In . SVG Version: 6.00 Build 0)  -->
<svg version="1.1" xmlns="http://www.w3.org/2000/svg" xmlns:xlink="http://www.w3.org/1999/xlink" x="0px" y="0px"
	 viewBox="0 0 750 1334" style="enable-background:new 0 0 750 1334;" xml:space="preserve">
<g id="background">
	<rect x="0.861" style="fill:#E5E5E5;" width="749.139" height="1334"/>
</g>
<g id="halfway" style="display:none;">
	
		<line style="display:inline;stroke:#FFFFFF;stroke-width:8;stroke-miterlimit:10;" x1="373.41" y1="-45.588" x2="375.431" y2="1556"/>
</g>
<g id="stuff">
	
		<linearGradient id="SVGID_1_" gradientUnits="userSpaceOnUse" x1="-811.2264" y1="-430.1606" x2="-811.2264" y2="-418.8199" gradientTransform="matrix(-1 0 0 -1 1078.2428 1083.6001)">
		<stop  offset="0" style="stop-color:#000000;stop-opacity:0"/>
		<stop  offset="1" style="stop-color:#000000;stop-opacity:0.4"/>
	</linearGradient>
	<path style="display:none;fill:url(#SVGID_1_);" d="M1514.112,1529.904v-26.365c0-0.001,0.006-0.001,0.014-0.001h750.687
		c0.008,0,0.014,0.001,0.014,0.001v26.366h-750.7C1514.118,1529.905,1514.112,1529.905,1514.112,1529.904z"/>
	
		<radialGradient id="SVGID_2_" cx="1766.9017" cy="137.6755" r="62.3849" gradientTransform="matrix(1 0 0 1 0 -11.658)" gradientUnits="userSpaceOnUse">
		<stop  offset="0" style="stop-color:#000000"/>
		<stop  offset="0.2473" style="stop-color:#020202;stop-opacity:0.9994"/>
		<stop  offset="0.3363" style="stop-color:#090808;stop-opacity:0.9992"/>
		<stop  offset="0.3996" style="stop-color:#141213;stop-opacity:0.999"/>
		<stop  offset="0.4453" style="stop-color:#231F20;stop-opacity:0.9989"/>
		<stop  offset="0.6651" style="stop-color:#181616;stop-opacity:0.603"/>
		<stop  offset="1" style="stop-color:#000000;stop-opacity:0"/>
	</radialGradient>
	<ellipse style="display:none;fill:url(#SVGID_2_);" cx="1766.902" cy="126.017" rx="66.744" ry="67.419"/>
	<circle style="display:none;fill:#377ABD;" cx="1766.902" cy="115.987" r="59.622"/>
	<rect x="0" y="0" style="fill:#1A5436;" width="750" height="175.271"/>
	<g>
		<path style="fill:#FFFFFF;" d="M-167.229,108.644h-54.299c-0.659,0-1.193-0.534-1.193-1.193v-3.581
			c0-0.659,0.534-1.193,1.193-1.193h54.299c0.659,0,1.193,0.534,1.193,1.193v3.581C-166.036,108.11-166.57,108.644-167.229,108.644z
			"/>
		<path style="fill:#FFFFFF;" d="M-167.229,124.369h-54.299c-0.659,0-1.193-0.534-1.193-1.193v-3.581
			c0-0.659,0.534-1.193,1.193-1.193h54.299c0.659,0,1.193,0.534,1.193,1.193v3.581C-166.036,123.835-166.57,124.369-167.229,124.369
			z"/>
		<path style="fill:#FFFFFF;" d="M-167.229,140.093h-54.299c-0.659,0-1.193-0.534-1.193-1.193v-3.581
			c0-0.659,0.534-1.193,1.193-1.193h54.299c0.659,0,1.193,0.534,1.193,1.193v3.581C-166.036,139.559-166.57,140.093-167.229,140.093
			z"/>
	</g>
	<line style="display:none;fill:none;" x1="991.687" y1="1614.73" x2="991.687" y2="1705.213"/>
	<line style="display:none;fill:none;" x1="1240.634" y1="1614.73" x2="1240.634" y2="1705.213"/>
	<rect x="803.462" y="175.271" style="display:none;fill:#FFFFFF;" width="748.721" height="90.483"/>
	<line style="display:none;fill:#FFFFFF;" x1="991.687" y1="1614.73" x2="991.687" y2="1705.213"/>
	<line style="display:none;fill:#FFFFFF;" x1="1240.634" y1="1614.73" x2="1240.634" y2="1705.213"/>
	<g>
		
			<text transform="matrix(1 0 0 1 -804.5032 232.9353)" style="fill:#666666; font-family:'HelveticaNeue-Bold'; font-size:28.6042px;">Dashboard</text>
	</g>
	<g>
		
			<text transform="matrix(1 0 0 1 -541.8567 232.9353)" style="fill:#999696; font-family:'HelveticaNeue-Medium'; font-size:30px;">Inventory</text>
	</g>
	<g>
		<text transform="matrix(1 0 0 1 -287.46 232.9353)" style="fill:#999696; font-family:'HelveticaNeue-Medium'; font-size:30px;">Schedule</text>
	</g>
	<circle style="display:none;fill:#377ABD;" cx="1766.902" cy="115.987" r="59.622"/>
	<g>
		<path style="fill:#FFFFFF;" d="M1780.039,96.74v-4.931c0-1.508-1.326-2.954-2.885-2.885c-1.563,0.071-2.885,1.268-2.885,2.885
			v4.488h-4.482v-4.859c0-1.51-1.327-2.956-2.885-2.885c-1.563,0.071-2.885,1.268-2.885,2.885v4.859h-4.482v-4.859
			c0-1.51-1.327-2.956-2.885-2.885c-1.563,0.071-2.885,1.268-2.885,2.885v5.301c-5.989,1.548-10.424,6.999-10.424,13.463v19.314
			c0,7.669,6.237,13.906,13.904,13.906h19.316c7.667,0,13.906-6.237,13.906-13.906v-19.314
			C1790.464,103.739,1786.027,98.289,1780.039,96.74z M1783.732,129.517c0,3.956-3.219,7.173-7.173,7.173h-19.316
			c-3.954,0-7.172-3.217-7.172-7.173v-19.314c0-2.693,1.491-5.045,3.692-6.269v3.214c0,1.51,1.327,2.956,2.885,2.885
			c1.563-0.071,2.885-1.268,2.885-2.885v-4.118h4.482v4.118c0,1.51,1.327,2.956,2.885,2.885c1.563-0.071,2.885-1.268,2.885-2.885
			v-4.118h4.482v4.488c0,1.51,1.327,2.956,2.885,2.885c1.564-0.069,2.885-1.268,2.885-2.885v-3.584
			c2.201,1.225,3.693,3.576,3.693,6.269V129.517z"/>
	</g>
	<rect x="1129.984" y="2177.22" style="display:none;fill:#FFFFFF;" width="360.107" height="302.876"/>
	<rect x="740.952" y="2177.22" style="display:none;fill:#FFFFFF;" width="352.428" height="302.876"/>
	<rect x="740.952" y="1470.841" style="display:none;fill:#FFFFFF;" width="749.139" height="302.876"/>
	
		<rect x="838.371" y="296.358" style="display:none;fill:#FFFFFF;stroke:#B5B5B5;stroke-miterlimit:10;" width="678.903" height="302.876"/>
	<rect x="30.977" y="298.685" style="fill:#FFFFFF;stroke:#C4C4C4;stroke-miterlimit:10;" width="687.981" height="644.773"/>
	<rect x="-686.043" y="764.55" style="display:none;fill:#54B848;" width="642.354" height="121.53"/>
	<rect x="-686.043" y="927.991" style="display:none;fill:#FFFFFF;" width="642.354" height="121.53"/>
	<g>
		
			<text transform="matrix(1 0 0 1 -781.1496 348.73)" style="fill:#666666; font-family:'HelveticaNeue-Bold'; font-size:33.0184px;">SUPER FRESH RENTALS</text>
	</g>
	<g>
		<text transform="matrix(1 0 0 1 1016.9843 1631.7384)" style="fill:#1A5436; font-family:'OpenSans'; font-size:30.0259px;">WITHDRAW MONEY</text>
	</g>
	
		<text transform="matrix(1 0 0 1 -176.2454 510.2813)" style="fill:#1A5436; font-family:'HelveticaNeue-Bold'; font-size:39.374px;">SIG</text>
	
		<text transform="matrix(1 0 0 1 -542.8491 839.7007)" style="fill:#FFFFFF; font-family:'HelveticaNeue-Bold'; font-size:39.374px;">Existing Customer</text>
	<g>
		
			<text transform="matrix(1 0 0 1 -507.6104 1001.6926)" style="fill:#666666; font-family:'HelveticaNeue-Bold'; font-size:39.374px;">New Customer</text>
	</g>
	<rect x="268.444" y="-612.094" style="display:none;fill:#1A5436;" width="750" height="324.854"/>
	<g>
		<rect id="rect2641" x="-521.678" y="393.712" style="fill:#FFFFFF;" width="268.474" height="224.769"/>
		<path id="path2651" style="fill:#54B848;" d="M-525.081,618.481h274.717V387.469h-274.717V618.481z M-344.748,568.507h-63.997
			v-108.42h32.148v89.239h30.906c21.341,0,30.313-13.948,30.313-49.711c0-36.038-10.208-46.502-31.848-46.502h-70.484v115.394
			h-31.849V453.114h-46.683v-19.199h158.899c38.342,0,56.579,18.6,56.579,65.414C-280.764,560.946-307.973,568.507-344.748,568.507"
			/>
	</g>
	<path id="path2651_1_" style="fill:#FFFFFF;" d="M332.484,144.758h85.893V72.53h-85.893V144.758z M388.867,129.134h-20.009V95.235
		h10.051v27.902h9.663c6.672,0,9.477-4.361,9.477-15.543c0-11.268-3.192-14.539-9.958-14.539h-22.037v36.079h-9.958V93.055h-14.596
		v-6.003h49.681c11.988,0,17.69,5.815,17.69,20.452C408.872,126.77,400.365,129.134,388.867,129.134"/>
	
		<line style="display:none;fill:none;stroke:#7F7E7E;stroke-miterlimit:10;" x1="1459.949" y1="1773.716" x2="771.094" y2="1773.716"/>
	
		<line style="display:none;fill:none;stroke:#7F7E7E;stroke-miterlimit:10;" x1="771.926" y1="2480.095" x2="1093.379" y2="2480.095"/>
	
		<line style="display:none;fill:none;stroke:#7F7E7E;stroke-miterlimit:10;" x1="1129.984" y1="2480.095" x2="1451.437" y2="2480.095"/>
	<line style="display:none;fill:none;" x1="991.687" y1="1959.19" x2="991.687" y2="2049.673"/>
	<line style="display:none;fill:none;" x1="1240.634" y1="1959.19" x2="1240.634" y2="2049.673"/>
	<line style="display:none;fill:#FFFFFF;" x1="991.687" y1="1959.19" x2="991.687" y2="2049.673"/>
	<line style="display:none;fill:#FFFFFF;" x1="1240.634" y1="1959.19" x2="1240.634" y2="2049.673"/>
	<rect x="740.87" y="1815.301" style="display:none;fill:#FFFFFF;" width="749.221" height="302.876"/>
	<g>
		<text transform="matrix(1 0 0 1 1016.9839 1976.1982)" style="fill:#1A5436; font-family:'OpenSans'; font-size:30.0259px;">DEPOSIT MONEY</text>
	</g>
	<text transform="matrix(1 0 0 1 811.9327 2428.2725)" style="fill:#1A5436; font-family:'OpenSans'; font-size:30.0259px;">TRANSFER FUNDS</text>
	<g>
		<text transform="matrix(1 0 0 1 1205.183 2398.2695)"><tspan x="0" y="0" style="fill:#1A5436; font-family:'OpenSans'; font-size:30.0259px;">OPEN BANK </tspan><tspan x="16.46" y="36.031" style="fill:#1A5436; font-family:'OpenSans'; font-size:30.0259px;">ACCOUNT</tspan></text>
	</g>
	
		<line style="display:none;fill:none;stroke:#7F7E7E;stroke-miterlimit:10;" x1="771.926" y1="2118.176" x2="1451.437" y2="2118.176"/>
	<g>
		<g>
			
				<line style="fill:none;stroke:#666666;stroke-width:3;stroke-miterlimit:10;" x1="1336.399" y1="1924.666" x2="1353.591" y2="1959.698"/>
			
				<line style="fill:none;stroke:#666666;stroke-width:3;stroke-miterlimit:10;" x1="1336.399" y1="1993.714" x2="1353.591" y2="1958.682"/>
		</g>
	</g>
	<g>
		<g>
			<g>
				<g>
					<path style="fill:#666666;" d="M1335.627,1588.511c5.731,11.677,11.461,23.355,17.192,35.032
						c0.85,1.733,3.439,0.214,2.59-1.514c-5.731-11.677-11.461-23.355-17.192-35.032
						C1337.367,1585.264,1334.779,1586.783,1335.627,1588.511L1335.627,1588.511z"/>
				</g>
			</g>
			<g>
				<g>
					<path style="fill:#666666;" d="M1338.217,1657.56c5.731-11.677,11.461-23.355,17.192-35.032
						c0.848-1.727-1.739-3.249-2.59-1.514c-5.731,11.677-11.461,23.355-17.192,35.032
						C1334.779,1657.773,1337.366,1659.295,1338.217,1657.56L1338.217,1657.56z"/>
				</g>
			</g>
		</g>
	</g>
	<g style="display:none;">
		<g style="display:inline;">
			<path style="fill:#666666;" d="M-1098.836,1475.55c0-21.109,0-42.218,0-63.328c0-33.653,0-67.306,0-100.96
				c0-7.734,0-15.469,0-23.203c0-6.435-10-6.445-10,0c0,21.109,0,42.218,0,63.327c0,33.653,0,67.307,0,100.96
				c0,7.734,0,15.469,0,23.203C-1108.836,1481.984-1098.836,1481.995-1098.836,1475.55L-1098.836,1475.55z"/>
		</g>
	</g>
	<g style="display:none;">
		<g style="display:inline;">
			<path style="fill:#666666;" d="M-1047.414,1337.41c-17.629-17.629-35.257-35.257-52.886-52.886
				c-4.556-4.556-11.629,2.513-7.071,7.071c17.629,17.629,35.257,35.257,52.886,52.886
				C-1049.929,1349.037-1042.856,1341.968-1047.414,1337.41L-1047.414,1337.41z"/>
		</g>
	</g>
	<g style="display:none;">
		<g style="display:inline;">
			<path style="fill:#666666;" d="M-1153.186,1344.481c17.629-17.629,35.257-35.257,52.886-52.886
				c4.556-4.556-2.513-11.63-7.071-7.071c-17.629,17.629-35.257,35.257-52.886,52.886
				C-1164.813,1341.966-1157.744,1349.039-1153.186,1344.481L-1153.186,1344.481z"/>
		</g>
	</g>
	<g>
		<g>
			<g>
				<path style="fill:#1A5436;" d="M872.925,1642.825c0-18.73,0-37.46,0-56.189c0-1.93-3-1.934-3,0c0,18.73,0,37.46,0,56.189
					C869.925,1644.755,872.925,1644.758,872.925,1642.825L872.925,1642.825z"/>
			</g>
		</g>
		<g>
			<g>
				<path style="fill:#1A5436;" d="M888.335,1601.424c-5.283-5.283-10.566-10.566-15.849-15.849
					c-1.367-1.367-3.489,0.754-2.121,2.121c5.283,5.283,10.566,10.566,15.849,15.849
					C887.581,1604.912,889.703,1602.792,888.335,1601.424L888.335,1601.424z"/>
			</g>
		</g>
		<g>
			<g>
				<path style="fill:#1A5436;" d="M856.636,1603.546c5.283-5.283,10.566-10.566,15.849-15.849c1.367-1.367-0.754-3.489-2.121-2.121
					c-5.283,5.283-10.566,10.566-15.849,15.849C853.148,1602.791,855.269,1604.913,856.636,1603.546L856.636,1603.546z"/>
			</g>
		</g>
	</g>
	
		<circle style="display:none;fill:none;stroke:#1A5436;stroke-width:2;stroke-miterlimit:10;" cx="871.425" cy="1614.73" r="53.875"/>
	<g>
		<g>
			<g>
				<path style="fill:#1A5436;" d="M869.925,1938.644c0,18.73,0,37.46,0,56.189c0,1.93,3,1.934,3,0c0-18.73,0-37.46,0-56.189
					C872.925,1936.713,869.925,1936.71,869.925,1938.644L869.925,1938.644z"/>
			</g>
		</g>
		<g>
			<g>
				<path style="fill:#1A5436;" d="M854.515,1980.044c5.283,5.283,10.566,10.566,15.849,15.849c1.367,1.367,3.489-0.754,2.121-2.121
					c-5.283-5.283-10.566-10.566-15.849-15.849C855.269,1976.556,853.147,1978.677,854.515,1980.044L854.515,1980.044z"/>
			</g>
		</g>
		<g>
			<g>
				<path style="fill:#1A5436;" d="M886.214,1977.923c-5.283,5.283-10.566,10.566-15.849,15.849
					c-1.367,1.367,0.754,3.489,2.121,2.121c5.283-5.283,10.566-10.566,15.849-15.849
					C889.702,1978.677,887.581,1976.556,886.214,1977.923L886.214,1977.923z"/>
			</g>
		</g>
	</g>
	
		<circle style="display:none;fill:none;stroke:#1A5436;stroke-width:2;stroke-miterlimit:10;" cx="871.425" cy="1966.738" r="53.875"/>
	<g>
		<circle style="fill:none;stroke:#1A5436;stroke-width:2;stroke-miterlimit:10;" cx="932.652" cy="2308.852" r="47.428"/>
		<g>
			<g>
				<g>
					<path style="fill:#1A5436;" d="M933.448,2333.392c-1.343-2.687-2.687-5.374-4.03-8.061c-1.358-2.715-2.513-6.522-4.44-8.88
						c-1.426-1.745-4.41-2.793-6.314-3.881c-2.751-1.572-5.503-3.144-8.254-4.717c0,0.864,0,1.727,0,2.591
						c15.333-7.167,30.667-14.333,46-21.5c-0.684-0.684-1.368-1.368-2.052-2.052c-7.833,15.5-15.667,31-23.5,46.5
						c-0.869,1.719,1.718,3.24,2.59,1.514c7.833-15.5,15.667-31,23.5-46.5c0.703-1.39-0.692-2.688-2.052-2.052
						c-15.333,7.167-30.667,14.333-46,21.5c-1.04,0.486-0.914,2.069,0,2.591c2.473,1.413,4.946,2.826,7.42,4.24
						c1.699,0.971,3.377,2.044,5.124,2.928c0.331,0.167,0.907,0.436,1.202,0.687c0.578,0.492-0.65-0.817-0.099-0.023
						c3.425,4.929,5.625,11.251,8.315,16.63C931.721,2336.633,934.309,2335.115,933.448,2333.392z"/>
				</g>
			</g>
			<g>
				<g>
					<path style="fill:#1A5436;" d="M924.713,2318.209c10.667-9.833,21.333-19.667,32-29.5c1.423-1.312-0.703-3.429-2.121-2.121
						c-10.667,9.833-21.333,19.667-32,29.5C921.169,2317.399,923.295,2319.517,924.713,2318.209L924.713,2318.209z"/>
				</g>
			</g>
		</g>
	</g>
	<g>
		<line style="fill:none;stroke:#1A5436;stroke-width:2;stroke-miterlimit:10;" x1="327" y1="1479" x2="327" y2="1569.146"/>
		
			<line style="fill:none;stroke:#1A5436;stroke-width:2;stroke-miterlimit:10;" x1="372.073" y1="1524.073" x2="281.927" y2="1524.073"/>
	</g>
	<g>
		<circle style="fill:none;stroke:#1A5436;stroke-width:2;stroke-miterlimit:10;" cx="1290.711" cy="2287.427" r="47.428"/>
		<g>
			
				<line style="fill:none;stroke:#1A5436;stroke-width:2;stroke-miterlimit:10;" x1="1290.711" y1="2253.932" x2="1290.711" y2="2320.92"/>
			
				<line style="fill:none;stroke:#1A5436;stroke-width:2;stroke-miterlimit:10;" x1="1324.205" y1="2287.427" x2="1257.217" y2="2287.427"/>
		</g>
	</g>
	<rect x="1167.681" y="943.458" style="display:none;fill:#FFFFFF;" width="321.453" height="302.876"/>
	<rect x="809.622" y="943.458" style="display:none;fill:#FFFFFF;" width="321.453" height="302.876"/>
	<text transform="matrix(1 0 0 1 849.6295 1194.5111)" style="fill:#1A5436; font-family:'OpenSans'; font-size:30.0259px;">TRANSFER FUNDS</text>
	<g>
		<text transform="matrix(1 0 0 1 1240.6807 1145.8363)"><tspan x="0" y="0" style="fill:#666666; font-family:'HelveticaNeue-Light'; font-size:33.0184px;">OPEN BANK</tspan><tspan x="0" y="39.622" style="fill:#666666; font-family:'HelveticaNeue-Light'; font-size:33.0184px;">ACCOUNT</tspan></text>
	</g>
	
		<circle style="display:none;fill:none;stroke:#1A5436;stroke-width:2;stroke-miterlimit:10;" cx="1294.556" cy="1045.165" r="53.875"/>
	<g>
		<circle style="fill:none;stroke:#1A5436;stroke-width:2;stroke-miterlimit:10;" cx="970.349" cy="1075.09" r="47.428"/>
		<g>
			<g>
				<g>
					<path style="fill:#1A5436;" d="M971.144,1099.63c-1.343-2.687-2.687-5.374-4.03-8.061c-1.358-2.715-2.513-6.521-4.44-8.88
						c-1.426-1.745-4.41-2.793-6.314-3.881c-2.751-1.572-5.503-3.144-8.254-4.717c0,0.863,0,1.727,0,2.59
						c15.333-7.167,30.667-14.333,46-21.5c-0.684-0.684-1.368-1.368-2.052-2.052c-7.833,15.5-15.667,31-23.5,46.5
						c-0.869,1.719,1.718,3.24,2.59,1.514c7.833-15.5,15.667-31,23.5-46.5c0.703-1.39-0.692-2.688-2.052-2.052
						c-15.333,7.167-30.667,14.333-46,21.5c-1.04,0.486-0.914,2.068,0,2.59c2.473,1.413,4.947,2.827,7.42,4.24
						c1.699,0.971,3.377,2.043,5.124,2.928c0.33,0.167,0.907,0.436,1.202,0.687c0.578,0.492-0.65-0.817-0.099-0.023
						c3.425,4.929,5.625,11.251,8.315,16.63C969.417,1102.871,972.006,1101.354,971.144,1099.63z"/>
				</g>
			</g>
			<g>
				<g>
					<path style="fill:#1A5436;" d="M962.41,1084.448c10.667-9.833,21.333-19.667,32-29.5c1.423-1.311-0.703-3.429-2.121-2.121
						c-10.667,9.833-21.333,19.667-32,29.5C958.866,1083.638,960.992,1085.755,962.41,1084.448L962.41,1084.448z"/>
				</g>
			</g>
		</g>
	</g>
	<g>
		
			<line style="fill:none;stroke:#1A5436;stroke-width:2;stroke-miterlimit:10;" x1="1294.556" y1="1007.118" x2="1294.556" y2="1083.212"/>
		
			<line style="fill:none;stroke:#1A5436;stroke-width:2;stroke-miterlimit:10;" x1="1332.603" y1="1045.165" x2="1256.509" y2="1045.165"/>
	</g>
	<g>
		<g>
			<g>
				<path style="fill:#1A5436;" d="M1311.484,424.167c0-8.882,0-17.764,0-26.646c0-3.861-6-3.867-6,0c0,8.882,0,17.764,0,26.646
					C1305.484,428.028,1311.484,428.034,1311.484,424.167L1311.484,424.167z"/>
			</g>
		</g>
		<g>
			<g>
				<path style="fill:#1A5436;" d="M1318.121,402.916c-2.505-2.505-5.011-5.011-7.516-7.516c-2.734-2.734-6.978,1.508-4.243,4.243
					c2.505,2.505,5.011,5.011,7.516,7.516C1316.613,409.892,1320.856,405.651,1318.121,402.916L1318.121,402.916z"/>
			</g>
		</g>
		<g>
			<g>
				<path style="fill:#1A5436;" d="M1303.089,407.158c2.505-2.505,5.011-5.011,7.516-7.516c2.734-2.734-1.508-6.978-4.243-4.243
					c-2.505,2.505-5.011,5.011-7.516,7.516C1296.113,405.65,1300.354,409.893,1303.089,407.158L1303.089,407.158z"/>
			</g>
		</g>
	</g>
	
		<circle style="display:none;fill:none;stroke:#1A5436;stroke-width:2;stroke-miterlimit:10;" cx="1283.384" cy="447.796" r="53.875"/>
	<rect x="1114.667" y="371.333" style="fill:none;" width="0.667" height="2.667"/>
	
		<text transform="matrix(1 0 0 1 1265.8728 471.6073)" style="fill:#1A5436; font-family:'BrandonGrotesque-Medium'; font-size:67.0928px; letter-spacing:-1;">$</text>
	
		<circle style="display:none;fill:none;stroke:#1A5436;stroke-width:2;stroke-miterlimit:10;" cx="1424.05" cy="447.796" r="53.875"/>
	
		<text transform="matrix(1 0 0 1 1406.5396 471.6073)" style="fill:#1A5436; font-family:'BrandonGrotesque-Medium'; font-size:67.0928px; letter-spacing:-1;">$</text>
	
		<line style="display:none;fill:#FFFFFF;stroke:#7F7E7E;stroke-miterlimit:10;" x1="794.55" y1="828.677" x2="1483.253" y2="828.677"/>
	<g>
		<g>
			<path style="fill:#1A5436;stroke:#FFFFFF;stroke-width:3;stroke-miterlimit:10;" d="M1456.13,392.902
				c-0.966-0.326-2.052-0.326-3.006,0c0.471-0.229,0.978-0.362,1.509-0.374C1455.152,392.54,1455.659,392.684,1456.13,392.902z"/>
		</g>
		<g>
			<path style="fill:#1A5436;stroke:#FFFFFF;stroke-width:3;stroke-miterlimit:10;" d="M1461.972,409.728
				c-1.086-1.086-2.173-2.173-3.259-3.259v26.435c0,5.263-8.172,5.251-8.172,0v-26.435l-3.259,3.259
				c-3.73,3.73-9.512-2.052-5.782-5.77c3.356-3.356,6.687-6.699,10.043-10.055c0.06-0.06,0.133-0.133,0.193-0.193
				c0.893-0.893,1.919-1.243,2.897-1.183c-0.531,0.012-1.038,0.145-1.509,0.374c0.953-0.326,2.04-0.326,3.006,0
				c-0.471-0.217-0.978-0.362-1.497-0.374c0.978-0.06,1.991,0.29,2.885,1.183c0.06,0.06,0.133,0.133,0.193,0.193
				c3.355,3.356,6.687,6.699,10.043,10.055C1471.484,407.676,1465.702,413.458,1461.972,409.728z"/>
			<path style="fill:#1A5436;stroke:#FFFFFF;stroke-width:3;stroke-miterlimit:10;" d="M1456.13,392.902
				c-0.966-0.326-2.052-0.326-3.006,0c0.471-0.229,0.978-0.362,1.509-0.374C1455.152,392.54,1455.659,392.684,1456.13,392.902z"/>
		</g>
	</g>
	<g>
		<path style="fill:#1A5436;" d="M66.35,243.312l-5.833,22.442h-3.361l-4.717-18.629l-4.612,18.629h-3.286l-5.938-22.442h3.06
			l4.717,18.659l4.642-18.659h3.029l4.688,18.84l4.688-18.84H66.35z"/>
		<path style="fill:#1A5436;" d="M84.046,265.753h-2.833v-9.585c0-0.774-0.045-1.5-0.136-2.178c-0.09-0.678-0.256-1.208-0.497-1.59
			c-0.251-0.422-0.613-0.736-1.085-0.942s-1.085-0.309-1.838-0.309c-0.774,0-1.583,0.191-2.427,0.573s-1.653,0.869-2.427,1.462
			v12.57h-2.833v-23.452h2.833v8.485c0.884-0.733,1.799-1.306,2.743-1.718c0.944-0.412,1.914-0.618,2.909-0.618
			c1.819,0,3.206,0.548,4.16,1.643c0.954,1.095,1.432,2.673,1.432,4.732V265.753z"/>
		<path style="fill:#1A5436;" d="M91.991,246.1h-3.195v-2.939h3.195V246.1z M91.81,265.753h-2.833v-16.835h2.833V265.753z"/>
		<path style="fill:#1A5436;" d="M99.725,265.753h-2.833v-23.452h2.833V265.753z"/>
		<path style="fill:#1A5436;" d="M118.868,257.63h-12.404c0,1.035,0.156,1.937,0.467,2.705c0.312,0.769,0.739,1.399,1.281,1.892
			c0.522,0.482,1.143,0.844,1.861,1.085c0.718,0.241,1.51,0.361,2.374,0.361c1.146,0,2.298-0.228,3.459-0.686
			c1.16-0.457,1.987-0.907,2.479-1.349h0.151v3.09c-0.955,0.402-1.929,0.739-2.924,1.01c-0.995,0.271-2.04,0.407-3.135,0.407
			c-2.793,0-4.974-0.756-6.541-2.269s-2.351-3.66-2.351-6.443c0-2.753,0.751-4.938,2.253-6.556c1.502-1.618,3.479-2.426,5.931-2.426
			c2.271,0,4.021,0.663,5.252,1.989c1.23,1.326,1.846,3.21,1.846,5.652V257.63z M116.11,255.459
			c-0.01-1.487-0.384-2.638-1.123-3.452c-0.739-0.813-1.861-1.221-3.369-1.221c-1.517,0-2.726,0.447-3.625,1.341
			c-0.899,0.895-1.409,2.005-1.53,3.331H116.11z"/>
		<path style="fill:#1A5436;" d="M147.463,248.918l-9.827,23.044h-3.03l3.135-7.023l-6.707-16.021h3.075l5.169,12.479l5.215-12.479
			H147.463z"/>
		<path style="fill:#1A5436;" d="M164.692,257.343c0,2.743-0.704,4.909-2.11,6.496c-1.407,1.588-3.291,2.381-5.652,2.381
			c-2.381,0-4.273-0.793-5.674-2.381c-1.402-1.587-2.103-3.753-2.103-6.496s0.701-4.911,2.103-6.503
			c1.401-1.592,3.293-2.389,5.674-2.389c2.361,0,4.245,0.796,5.652,2.389C163.989,252.433,164.692,254.6,164.692,257.343z
			 M161.769,257.343c0-2.18-0.427-3.8-1.281-4.86s-2.04-1.59-3.557-1.59c-1.537,0-2.73,0.53-3.58,1.59s-1.273,2.68-1.273,4.86
			c0,2.11,0.427,3.71,1.281,4.8c0.854,1.09,2.044,1.635,3.572,1.635c1.507,0,2.69-0.54,3.549-1.62
			C161.339,261.079,161.769,259.474,161.769,257.343z"/>
		<path style="fill:#1A5436;" d="M182.479,265.753h-2.833v-1.869c-0.955,0.754-1.869,1.332-2.743,1.733
			c-0.874,0.402-1.838,0.603-2.894,0.603c-1.769,0-3.145-0.54-4.13-1.62s-1.477-2.665-1.477-4.755v-10.927h2.833v9.585
			c0,0.854,0.04,1.585,0.121,2.193s0.251,1.128,0.513,1.56c0.271,0.442,0.623,0.764,1.055,0.964c0.432,0.201,1.06,0.302,1.884,0.302
			c0.733,0,1.535-0.191,2.404-0.573s1.681-0.869,2.434-1.462v-12.57h2.833V265.753z"/>
		<path style="fill:#1A5436;" d="M210.878,265.753h-2.818v-1.793c-0.251,0.171-0.59,0.41-1.018,0.716
			c-0.427,0.307-0.841,0.55-1.243,0.731c-0.473,0.231-1.015,0.424-1.628,0.58s-1.332,0.234-2.155,0.234
			c-1.517,0-2.803-0.502-3.858-1.507c-1.055-1.004-1.583-2.286-1.583-3.843c0-1.276,0.274-2.308,0.821-3.097
			c0.548-0.789,1.329-1.409,2.344-1.861c1.025-0.452,2.256-0.759,3.693-0.919c1.437-0.161,2.979-0.281,4.627-0.362v-0.437
			c0-0.643-0.113-1.176-0.339-1.598s-0.55-0.753-0.972-0.995c-0.402-0.231-0.884-0.387-1.447-0.467
			c-0.563-0.08-1.15-0.121-1.763-0.121c-0.744,0-1.573,0.098-2.487,0.294c-0.915,0.196-1.859,0.48-2.833,0.852h-0.151v-2.879
			c0.552-0.15,1.351-0.316,2.396-0.497c1.045-0.181,2.075-0.271,3.09-0.271c1.185,0,2.218,0.098,3.097,0.294
			c0.879,0.196,1.64,0.53,2.283,1.002c0.633,0.462,1.115,1.06,1.447,1.793s0.498,1.643,0.498,2.728V265.753z M208.06,261.609v-4.688
			c-0.864,0.05-1.882,0.126-3.052,0.226c-1.17,0.101-2.098,0.246-2.781,0.437c-0.814,0.231-1.472,0.59-1.974,1.078
			c-0.503,0.487-0.754,1.158-0.754,2.012c0,0.964,0.292,1.69,0.875,2.178c0.583,0.487,1.472,0.731,2.667,0.731
			c0.995,0,1.904-0.193,2.728-0.58C206.593,262.616,207.356,262.151,208.06,261.609z"/>
		<path style="fill:#1A5436;" d="M226.284,252.008h-0.151c-0.422-0.1-0.832-0.173-1.229-0.218c-0.397-0.045-0.867-0.068-1.409-0.068
			c-0.874,0-1.718,0.193-2.532,0.58c-0.814,0.387-1.598,0.887-2.352,1.5v11.952h-2.833v-16.835h2.833v2.487
			c1.125-0.904,2.118-1.545,2.977-1.922c0.859-0.377,1.735-0.565,2.63-0.565c0.492,0,0.849,0.013,1.07,0.038
			c0.221,0.025,0.553,0.073,0.995,0.143V252.008z"/>
		<path style="fill:#1A5436;" d="M242.488,257.63h-12.404c0,1.035,0.156,1.937,0.467,2.705c0.312,0.769,0.739,1.399,1.281,1.892
			c0.522,0.482,1.143,0.844,1.861,1.085c0.718,0.241,1.51,0.361,2.374,0.361c1.146,0,2.298-0.228,3.459-0.686
			c1.16-0.457,1.987-0.907,2.479-1.349h0.151v3.09c-0.955,0.402-1.929,0.739-2.924,1.01c-0.995,0.271-2.04,0.407-3.135,0.407
			c-2.793,0-4.974-0.756-6.541-2.269s-2.351-3.66-2.351-6.443c0-2.753,0.751-4.938,2.253-6.556c1.502-1.618,3.479-2.426,5.931-2.426
			c2.271,0,4.021,0.663,5.252,1.989c1.23,1.326,1.846,3.21,1.846,5.652V257.63z M239.729,255.459
			c-0.01-1.487-0.384-2.638-1.123-3.452c-0.739-0.813-1.861-1.221-3.369-1.221c-1.517,0-2.726,0.447-3.625,1.341
			c-0.899,0.895-1.409,2.005-1.53,3.331H239.729z"/>
		<path style="fill:#1A5436;" d="M277.699,248.918l-4.386,16.835h-2.623l-4.325-12.977l-4.296,12.977h-2.607l-4.431-16.835h2.954
			l3.09,13.037l4.205-13.037h2.336l4.311,13.037l2.924-13.037H277.699z"/>
		<path style="fill:#1A5436;" d="M294.009,265.753h-2.818v-1.793c-0.251,0.171-0.59,0.41-1.018,0.716
			c-0.427,0.307-0.841,0.55-1.243,0.731c-0.473,0.231-1.015,0.424-1.628,0.58s-1.332,0.234-2.155,0.234
			c-1.517,0-2.803-0.502-3.858-1.507c-1.055-1.004-1.583-2.286-1.583-3.843c0-1.276,0.274-2.308,0.821-3.097
			c0.548-0.789,1.329-1.409,2.344-1.861c1.025-0.452,2.256-0.759,3.693-0.919c1.437-0.161,2.979-0.281,4.627-0.362v-0.437
			c0-0.643-0.113-1.176-0.339-1.598s-0.55-0.753-0.972-0.995c-0.402-0.231-0.884-0.387-1.447-0.467
			c-0.563-0.08-1.15-0.121-1.763-0.121c-0.744,0-1.573,0.098-2.487,0.294c-0.915,0.196-1.859,0.48-2.833,0.852h-0.151v-2.879
			c0.552-0.15,1.351-0.316,2.396-0.497c1.045-0.181,2.075-0.271,3.09-0.271c1.185,0,2.218,0.098,3.097,0.294
			c0.879,0.196,1.64,0.53,2.283,1.002c0.633,0.462,1.115,1.06,1.447,1.793s0.498,1.643,0.498,2.728V265.753z M291.191,261.609
			v-4.688c-0.864,0.05-1.882,0.126-3.052,0.226c-1.17,0.101-2.098,0.246-2.781,0.437c-0.814,0.231-1.472,0.59-1.974,1.078
			c-0.503,0.487-0.754,1.158-0.754,2.012c0,0.964,0.292,1.69,0.875,2.178c0.583,0.487,1.472,0.731,2.667,0.731
			c0.995,0,1.904-0.193,2.728-0.58C289.724,262.616,290.487,262.151,291.191,261.609z"/>
		<path style="fill:#1A5436;" d="M301.955,246.1h-3.195v-2.939h3.195V246.1z M301.773,265.753h-2.833v-16.835h2.833V265.753z"/>
		<path style="fill:#1A5436;" d="M315.566,265.603c-0.533,0.141-1.113,0.256-1.741,0.347s-1.188,0.136-1.681,0.136
			c-1.718,0-3.024-0.462-3.918-1.387c-0.895-0.924-1.341-2.406-1.341-4.446V251.3h-1.914v-2.381h1.914v-4.838h2.833v4.838h5.848
			v2.381h-5.848v7.671c0,0.884,0.02,1.575,0.06,2.072s0.181,0.962,0.422,1.394c0.221,0.402,0.525,0.696,0.912,0.882
			s0.977,0.279,1.771,0.279c0.462,0,0.944-0.068,1.447-0.204c0.502-0.135,0.864-0.249,1.085-0.339h0.15V265.603z"/>
		<path style="fill:#1A5436;" d="M321.477,246.1h-3.195v-2.939h3.195V246.1z M321.295,265.753h-2.833v-16.835h2.833V265.753z"/>
		<path style="fill:#1A5436;" d="M340.424,265.753h-2.834v-9.585c0-0.774-0.045-1.5-0.136-2.178c-0.09-0.678-0.256-1.208-0.497-1.59
			c-0.251-0.422-0.613-0.736-1.085-0.942s-1.085-0.309-1.838-0.309c-0.774,0-1.583,0.191-2.427,0.573s-1.653,0.869-2.427,1.462
			v12.57h-2.833v-16.835h2.833v1.869c0.884-0.733,1.799-1.306,2.743-1.718c0.944-0.412,1.914-0.618,2.909-0.618
			c1.819,0,3.206,0.548,4.16,1.643c0.954,1.095,1.432,2.673,1.432,4.732V265.753z"/>
		<path style="fill:#1A5436;" d="M358.979,263.839c0,2.854-0.648,4.948-1.944,6.285s-3.291,2.005-5.983,2.005
			c-0.895,0-1.766-0.063-2.615-0.188c-0.849-0.126-1.686-0.304-2.509-0.535v-2.894h0.15c0.462,0.181,1.195,0.404,2.2,0.67
			s2.01,0.399,3.015,0.399c0.965,0,1.764-0.116,2.396-0.347s1.125-0.553,1.477-0.964c0.352-0.392,0.604-0.864,0.754-1.417
			s0.226-1.17,0.226-1.854v-1.538c-0.854,0.684-1.67,1.193-2.449,1.53c-0.778,0.337-1.771,0.505-2.977,0.505
			c-2.01,0-3.604-0.726-4.785-2.178c-1.181-1.452-1.771-3.499-1.771-6.142c0-1.447,0.203-2.695,0.61-3.746
			c0.407-1.05,0.962-1.957,1.665-2.72c0.653-0.713,1.447-1.269,2.382-1.666s1.863-0.595,2.788-0.595
			c0.975,0,1.791,0.098,2.449,0.294c0.658,0.196,1.354,0.495,2.087,0.896l0.182-0.723h2.652V263.839z M356.145,261.126v-9.179
			c-0.753-0.341-1.454-0.585-2.103-0.731c-0.647-0.146-1.293-0.219-1.937-0.219c-1.558,0-2.783,0.522-3.678,1.567
			c-0.894,1.045-1.341,2.562-1.341,4.552c0,1.889,0.331,3.321,0.995,4.295c0.663,0.975,1.763,1.462,3.3,1.462
			c0.824,0,1.65-0.158,2.479-0.475S355.451,261.659,356.145,261.126z"/>
		<path style="fill:#1A5436;" d="M368.627,265.753h-3.602v-4.295h3.602V265.753z"/>
		<path style="fill:#1A5436;" d="M379.3,265.753h-3.602v-4.295h3.602V265.753z"/>
		<path style="fill:#1A5436;" d="M389.973,265.753h-3.602v-4.295h3.602V265.753z"/>
	</g>
	<line style="fill:none;stroke:#7F7E7E;stroke-miterlimit:10;" x1="30.977" y1="943.458" x2="718.958" y2="943.458"/>
	<g>
		<path style="fill:#1A5436;" d="M264.136,688.232l-9.802,16.301v10.283h-6.856v-9.962l-9.962-16.622h7.806l5.731,10.255
			l5.542-10.255H264.136z"/>
		<path style="fill:#1A5436;" d="M287.169,704.801c0,3.297-0.961,5.895-2.883,7.793s-4.621,2.848-8.097,2.848
			s-6.175-0.949-8.097-2.848c-1.922-1.898-2.883-4.496-2.883-7.793c0-3.321,0.967-5.928,2.901-7.82s4.627-2.839,8.079-2.839
			c3.5,0,6.204,0.952,8.115,2.856C286.214,698.903,287.169,701.504,287.169,704.801z M279.26,709.675
			c0.417-0.512,0.729-1.128,0.938-1.848c0.208-0.721,0.312-1.717,0.312-2.991c0-1.178-0.107-2.166-0.321-2.963
			c-0.214-0.798-0.512-1.435-0.893-1.911c-0.381-0.487-0.839-0.833-1.375-1.035s-1.113-0.304-1.732-0.304
			c-0.619,0-1.169,0.084-1.651,0.25c-0.482,0.167-0.943,0.5-1.384,1c-0.393,0.464-0.705,1.101-0.938,1.91
			c-0.232,0.81-0.348,1.827-0.348,3.053c0,1.096,0.101,2.045,0.304,2.848c0.202,0.804,0.5,1.449,0.893,1.938
			c0.381,0.464,0.836,0.804,1.366,1.018c0.53,0.215,1.134,0.321,1.812,0.321c0.583,0,1.14-0.098,1.669-0.294
			C278.442,710.469,278.891,710.139,279.26,709.675z"/>
		<path style="fill:#1A5436;" d="M311.097,714.816h-6.445v-2.214c-1.189,0.905-2.276,1.593-3.263,2.062
			c-0.986,0.47-2.163,0.705-3.53,0.705c-2.211,0-3.914-0.637-5.108-1.91c-1.195-1.273-1.792-3.154-1.792-5.642v-13.052h6.445v9.944
			c0,1.013,0.033,1.854,0.098,2.526c0.065,0.673,0.217,1.229,0.455,1.67c0.226,0.44,0.568,0.762,1.027,0.964
			c0.458,0.202,1.098,0.304,1.919,0.304c0.547,0,1.154-0.102,1.821-0.304s1.309-0.5,1.928-0.893v-14.212h6.445V714.816z"/>
		<path style="fill:#1A5436;" d="M331.042,700.891h-0.57c-0.273-0.095-0.713-0.167-1.319-0.214c-0.605-0.048-1.11-0.072-1.514-0.072
			c-0.914,0-1.722,0.061-2.423,0.179c-0.701,0.119-1.455,0.321-2.262,0.607v13.426h-6.445v-20.05h6.445v2.946
			c1.413-1.214,2.643-2.021,3.688-2.42c1.045-0.398,2.007-0.598,2.886-0.598c0.225,0,0.481,0.006,0.766,0.018
			c0.285,0.013,0.535,0.03,0.749,0.054V700.891z"/>
		<path style="fill:#1A5436;" d="M356.31,715.353c-1.75,0-3.347-0.209-4.793-0.625c-1.446-0.417-2.705-1.06-3.776-1.929
			c-1.06-0.868-1.881-1.964-2.464-3.285s-0.875-2.868-0.875-4.642c0-1.868,0.312-3.481,0.937-4.839
			c0.625-1.356,1.497-2.481,2.616-3.374c1.083-0.845,2.333-1.464,3.75-1.856c1.416-0.394,2.886-0.59,4.41-0.59
			c1.369,0,2.63,0.149,3.785,0.446c1.154,0.298,2.232,0.685,3.231,1.161v5.48h-0.909c-0.25-0.214-0.55-0.464-0.9-0.749
			c-0.351-0.286-0.781-0.565-1.292-0.84c-0.487-0.262-1.022-0.479-1.604-0.651s-1.26-0.259-2.032-0.259
			c-1.711,0-3.028,0.545-3.949,1.634c-0.921,1.089-1.382,2.568-1.382,4.437c0,1.928,0.473,3.393,1.417,4.392
			c0.945,1,2.285,1.5,4.02,1.5c0.808,0,1.536-0.092,2.184-0.276c0.648-0.185,1.186-0.402,1.614-0.652
			c0.404-0.237,0.76-0.487,1.069-0.749s0.594-0.519,0.856-0.769h0.909v5.481c-1.012,0.477-2.068,0.854-3.169,1.134
			C358.86,715.212,357.643,715.353,356.31,715.353z"/>
		<path style="fill:#1A5436;" d="M387.217,704.801c0,3.297-0.961,5.895-2.883,7.793c-1.923,1.898-4.621,2.848-8.097,2.848
			s-6.175-0.949-8.097-2.848c-1.922-1.898-2.883-4.496-2.883-7.793c0-3.321,0.967-5.928,2.901-7.82s4.627-2.839,8.079-2.839
			c3.499,0,6.204,0.952,8.114,2.856C386.262,698.903,387.217,701.504,387.217,704.801z M379.308,709.675
			c0.417-0.512,0.729-1.128,0.938-1.848c0.208-0.721,0.312-1.717,0.312-2.991c0-1.178-0.107-2.166-0.321-2.963
			c-0.214-0.798-0.512-1.435-0.893-1.911c-0.381-0.487-0.839-0.833-1.375-1.035c-0.535-0.202-1.113-0.304-1.731-0.304
			c-0.619,0-1.169,0.084-1.651,0.25c-0.482,0.167-0.943,0.5-1.384,1c-0.393,0.464-0.705,1.101-0.938,1.91
			c-0.232,0.81-0.348,1.827-0.348,3.053c0,1.096,0.101,2.045,0.304,2.848c0.202,0.804,0.5,1.449,0.893,1.938
			c0.381,0.464,0.836,0.804,1.366,1.018c0.53,0.215,1.134,0.321,1.812,0.321c0.583,0,1.14-0.098,1.669-0.294
			C378.489,710.469,378.938,710.139,379.308,709.675z"/>
		<path style="fill:#1A5436;" d="M404.163,691.749h-0.48c-0.285-0.083-0.656-0.178-1.113-0.285s-0.946-0.161-1.469-0.161
			c-1.258,0-2.109,0.227-2.555,0.679s-0.668,1.327-0.668,2.625v0.16h4.946v4.356h-4.731v15.693h-6.445v-15.693h-2.75v-4.356h2.75
			v-0.554c0-2.451,0.651-4.29,1.955-5.517c1.303-1.226,3.276-1.839,5.918-1.839c0.952,0,1.815,0.033,2.589,0.099
			c0.774,0.065,1.458,0.151,2.054,0.259V691.749z"/>
		<path style="fill:#1A5436;" d="M418.948,691.749h-0.48c-0.285-0.083-0.656-0.178-1.113-0.285s-0.946-0.161-1.469-0.161
			c-1.258,0-2.109,0.227-2.555,0.679s-0.668,1.327-0.668,2.625v0.16h4.946v4.356h-4.731v15.693h-6.445v-15.693h-2.75v-4.356h2.75
			v-0.554c0-2.451,0.651-4.29,1.955-5.517c1.303-1.226,3.276-1.839,5.918-1.839c0.952,0,1.815,0.033,2.589,0.099
			c0.774,0.065,1.458,0.151,2.054,0.259V691.749z"/>
		<path style="fill:#1A5436;" d="M440.482,705.979h-14.712c0.096,1.571,0.693,2.774,1.795,3.607
			c1.101,0.833,2.723,1.249,4.865,1.249c1.356,0,2.672-0.243,3.945-0.731s2.279-1.012,3.018-1.571h0.714v5.159
			c-1.452,0.584-2.82,1.007-4.106,1.269c-1.285,0.261-2.708,0.393-4.267,0.393c-4.023,0-7.106-0.904-9.249-2.714
			c-2.142-1.81-3.213-4.386-3.213-7.73c0-3.31,1.015-5.931,3.044-7.865c2.029-1.934,4.812-2.901,8.347-2.901
			c3.261,0,5.713,0.824,7.355,2.473c1.643,1.649,2.464,4.021,2.464,7.115V705.979z M434.091,702.212
			c-0.036-1.345-0.369-2.356-1-3.035s-1.613-1.018-2.945-1.018c-1.238,0-2.256,0.321-3.054,0.964
			c-0.797,0.643-1.243,1.673-1.339,3.089H434.091z"/>
		<path style="fill:#1A5436;" d="M464.105,705.979h-14.712c0.096,1.571,0.693,2.774,1.795,3.607
			c1.101,0.833,2.723,1.249,4.865,1.249c1.356,0,2.672-0.243,3.945-0.731s2.279-1.012,3.018-1.571h0.714v5.159
			c-1.452,0.584-2.82,1.007-4.106,1.269c-1.285,0.261-2.708,0.393-4.267,0.393c-4.023,0-7.106-0.904-9.249-2.714
			c-2.142-1.81-3.213-4.386-3.213-7.73c0-3.31,1.015-5.931,3.044-7.865c2.029-1.934,4.812-2.901,8.347-2.901
			c3.261,0,5.713,0.824,7.355,2.473c1.643,1.649,2.464,4.021,2.464,7.115V705.979z M457.714,702.212
			c-0.036-1.345-0.369-2.356-1-3.035s-1.613-1.018-2.945-1.018c-1.238,0-2.256,0.321-3.054,0.964
			c-0.797,0.643-1.243,1.673-1.339,3.089H457.714z"/>
		<path style="fill:#1A5436;" d="M486.446,691.91h-6.803v-4.874h6.803V691.91z M486.268,714.816h-6.445v-20.05h6.445V714.816z"/>
		<path style="fill:#1A5436;" d="M509.087,708.461c0,2.07-0.929,3.74-2.785,5.008c-1.857,1.268-4.398,1.901-7.624,1.901
			c-1.785,0-3.404-0.167-4.856-0.5s-2.618-0.702-3.499-1.106v-5.285h0.589c0.321,0.227,0.693,0.473,1.116,0.741
			c0.423,0.268,1.021,0.557,1.794,0.865c0.667,0.274,1.423,0.509,2.268,0.706c0.846,0.196,1.75,0.294,2.714,0.294
			c1.262,0,2.196-0.14,2.804-0.419c0.606-0.28,0.91-0.693,0.91-1.241c0-0.488-0.179-0.842-0.536-1.062
			c-0.356-0.22-1.035-0.431-2.035-0.634c-0.476-0.107-1.122-0.223-1.937-0.348c-0.815-0.125-1.557-0.277-2.224-0.456
			c-1.82-0.476-3.172-1.217-4.053-2.223s-1.321-2.258-1.321-3.758c0-1.929,0.914-3.532,2.741-4.812s4.323-1.92,7.489-1.92
			c1.5,0,2.938,0.152,4.312,0.456c1.374,0.303,2.448,0.628,3.222,0.973v5.07h-0.553c-0.953-0.654-2.039-1.188-3.259-1.598
			c-1.22-0.411-2.455-0.616-3.704-0.616c-1.036,0-1.908,0.143-2.616,0.429c-0.708,0.285-1.062,0.69-1.062,1.214
			c0,0.477,0.161,0.839,0.482,1.089s1.077,0.5,2.268,0.75c0.654,0.131,1.359,0.259,2.115,0.384s1.515,0.283,2.276,0.474
			c1.69,0.44,2.94,1.134,3.75,2.08C508.682,705.863,509.087,707.044,509.087,708.461z"/>
		<path style="fill:#1A5436;" d="M160.227,759.23c-1.75,0-3.347-0.209-4.793-0.625c-1.446-0.417-2.705-1.06-3.776-1.929
			c-1.06-0.868-1.881-1.964-2.464-3.285s-0.875-2.868-0.875-4.642c0-1.868,0.312-3.481,0.937-4.839
			c0.625-1.356,1.497-2.481,2.616-3.374c1.083-0.845,2.333-1.464,3.75-1.856c1.416-0.394,2.886-0.59,4.41-0.59
			c1.369,0,2.63,0.149,3.785,0.446c1.154,0.298,2.232,0.685,3.231,1.161v5.48h-0.909c-0.25-0.214-0.55-0.464-0.9-0.749
			c-0.351-0.286-0.781-0.565-1.292-0.84c-0.487-0.262-1.022-0.479-1.604-0.651s-1.26-0.259-2.032-0.259
			c-1.711,0-3.028,0.545-3.949,1.634c-0.921,1.089-1.382,2.568-1.382,4.437c0,1.928,0.473,3.393,1.417,4.392
			c0.945,1,2.285,1.5,4.02,1.5c0.808,0,1.536-0.092,2.184-0.276c0.648-0.185,1.186-0.402,1.614-0.652
			c0.404-0.237,0.76-0.487,1.069-0.749s0.594-0.519,0.856-0.769h0.909v5.481c-1.012,0.477-2.068,0.854-3.169,1.134
			C162.777,759.09,161.56,759.23,160.227,759.23z"/>
		<path style="fill:#1A5436;" d="M190.617,758.694h-6.445v-2.214c-1.189,0.905-2.276,1.593-3.263,2.062
			c-0.986,0.47-2.163,0.705-3.53,0.705c-2.211,0-3.914-0.637-5.108-1.91c-1.195-1.273-1.792-3.154-1.792-5.642v-13.052h6.445v9.944
			c0,1.013,0.033,1.854,0.098,2.526c0.065,0.673,0.217,1.229,0.455,1.67c0.226,0.44,0.568,0.762,1.027,0.964
			c0.458,0.202,1.098,0.304,1.919,0.304c0.547,0,1.154-0.102,1.821-0.304s1.309-0.5,1.928-0.893v-14.212h6.445V758.694z"/>
		<path style="fill:#1A5436;" d="M210.562,744.769h-0.57c-0.273-0.095-0.713-0.167-1.319-0.214c-0.605-0.048-1.11-0.072-1.514-0.072
			c-0.914,0-1.722,0.061-2.423,0.179c-0.701,0.119-1.455,0.321-2.262,0.607v13.426h-6.445v-20.05h6.445v2.946
			c1.413-1.214,2.643-2.021,3.688-2.42c1.045-0.398,2.007-0.598,2.886-0.598c0.225,0,0.481,0.006,0.766,0.018
			c0.285,0.013,0.535,0.03,0.749,0.054V744.769z"/>
		<path style="fill:#1A5436;" d="M228.079,744.769h-0.57c-0.273-0.095-0.713-0.167-1.319-0.214c-0.605-0.048-1.11-0.072-1.514-0.072
			c-0.914,0-1.722,0.061-2.423,0.179c-0.701,0.119-1.455,0.321-2.262,0.607v13.426h-6.445v-20.05h6.445v2.946
			c1.413-1.214,2.643-2.021,3.688-2.42c1.045-0.398,2.007-0.598,2.886-0.598c0.225,0,0.481,0.006,0.766,0.018
			c0.285,0.013,0.535,0.03,0.749,0.054V744.769z"/>
		<path style="fill:#1A5436;" d="M250.81,749.856h-14.712c0.095,1.571,0.693,2.774,1.794,3.607c1.101,0.833,2.723,1.249,4.865,1.249
			c1.357,0,2.672-0.243,3.946-0.731c1.273-0.488,2.279-1.012,3.017-1.571h0.714v5.159c-1.452,0.584-2.821,1.007-4.106,1.269
			c-1.286,0.261-2.708,0.393-4.267,0.393c-4.023,0-7.106-0.904-9.249-2.714c-2.142-1.81-3.213-4.386-3.213-7.73
			c0-3.31,1.015-5.931,3.044-7.865c2.029-1.934,4.812-2.901,8.347-2.901c3.261,0,5.713,0.824,7.356,2.473
			c1.643,1.649,2.464,4.021,2.464,7.115V749.856z M244.417,746.09c-0.036-1.345-0.369-2.356-1-3.035s-1.613-1.018-2.946-1.018
			c-1.238,0-2.256,0.321-3.053,0.964s-1.244,1.673-1.339,3.089H244.417z"/>
		<path style="fill:#1A5436;" d="M274.825,758.694h-6.445v-9.944c0-0.81-0.042-1.616-0.125-2.419
			c-0.083-0.804-0.226-1.396-0.428-1.776c-0.238-0.44-0.586-0.762-1.044-0.965c-0.458-0.202-1.098-0.303-1.919-0.303
			c-0.583,0-1.176,0.095-1.776,0.285c-0.601,0.19-1.253,0.494-1.955,0.91v14.212h-6.445v-20.05h6.445v2.214
			c1.141-0.893,2.238-1.577,3.29-2.053c1.052-0.477,2.22-0.715,3.504-0.715c2.163,0,3.854,0.632,5.073,1.893
			c1.218,1.262,1.828,3.148,1.828,5.66V758.694z"/>
		<path style="fill:#1A5436;" d="M292.896,758.518c-0.69,0.179-1.423,0.317-2.196,0.419c-0.774,0.101-1.72,0.15-2.839,0.15
			c-2.5,0-4.359-0.505-5.579-1.518c-1.22-1.011-1.83-2.743-1.83-5.195v-9.373h-2.643v-4.356h2.643v-5.731h6.445v5.731h5.999v4.356
			h-5.999v7.117c0,0.703,0.006,1.316,0.018,1.841c0.012,0.525,0.107,0.996,0.285,1.413c0.166,0.417,0.459,0.748,0.881,0.992
			s1.036,0.367,1.843,0.367c0.332,0,0.768-0.072,1.308-0.215c0.541-0.143,0.917-0.273,1.131-0.393h0.534V758.518z"/>
		<path style="fill:#1A5436;" d="M302.521,758.694h-6.445v-27.78h6.445V758.694z"/>
		<path style="fill:#1A5436;" d="M316.959,751.605l4.575-12.961h6.61l-11.141,27.406h-6.977l3.188-7.51l-7.798-19.896h6.75
			L316.959,751.605z"/>
		<path style="fill:#1A5436;" d="M363.821,748.393c0,3.154-0.871,5.726-2.612,7.713c-1.742,1.988-3.915,2.981-6.518,2.981
			c-1.118,0-2.098-0.119-2.942-0.356c-0.844-0.238-1.646-0.583-2.407-1.036l-0.269,1h-6.177v-27.78h6.445v9.819
			c0.986-0.785,1.994-1.422,3.022-1.91s2.214-0.732,3.558-0.732c2.532,0,4.481,0.914,5.849,2.741S363.821,745.179,363.821,748.393z
			 M357.197,748.527c0-1.783-0.303-3.155-0.908-4.118c-0.606-0.962-1.687-1.444-3.242-1.444c-0.606,0-1.229,0.093-1.87,0.277
			c-0.642,0.184-1.253,0.448-1.835,0.793v10.054c0.463,0.167,0.902,0.279,1.318,0.339c0.416,0.06,0.915,0.089,1.497,0.089
			c1.698,0,2.963-0.499,3.794-1.497C356.782,752.021,357.197,750.523,357.197,748.527z"/>
		<path style="fill:#1A5436;" d="M387.552,749.856H372.84c0.095,1.571,0.693,2.774,1.794,3.607c1.101,0.833,2.722,1.249,4.865,1.249
			c1.357,0,2.672-0.243,3.946-0.731c1.273-0.488,2.279-1.012,3.017-1.571h0.715v5.159c-1.452,0.584-2.821,1.007-4.106,1.269
			c-1.286,0.261-2.708,0.393-4.268,0.393c-4.023,0-7.105-0.904-9.248-2.714c-2.142-1.81-3.213-4.386-3.213-7.73
			c0-3.31,1.015-5.931,3.044-7.865c2.029-1.934,4.812-2.901,8.346-2.901c3.262,0,5.714,0.824,7.356,2.473
			c1.643,1.649,2.464,4.021,2.464,7.115V749.856z M381.159,746.09c-0.035-1.345-0.368-2.356-0.999-3.035s-1.613-1.018-2.946-1.018
			c-1.238,0-2.255,0.321-3.053,0.964s-1.244,1.673-1.339,3.089H381.159z"/>
		<path style="fill:#1A5436;" d="M398.052,735.788h-6.803v-4.874h6.803V735.788z M397.873,758.694h-6.445v-20.05h6.445V758.694z"/>
		<path style="fill:#1A5436;" d="M423.406,758.694h-6.445v-9.944c0-0.81-0.041-1.616-0.125-2.419
			c-0.083-0.804-0.226-1.396-0.428-1.776c-0.238-0.44-0.587-0.762-1.045-0.965c-0.458-0.202-1.098-0.303-1.919-0.303
			c-0.584,0-1.176,0.095-1.776,0.285c-0.602,0.19-1.253,0.494-1.955,0.91v14.212h-6.445v-20.05h6.445v2.214
			c1.141-0.893,2.237-1.577,3.289-2.053c1.052-0.477,2.221-0.715,3.504-0.715c2.163,0,3.854,0.632,5.073,1.893
			c1.218,1.262,1.827,3.148,1.827,5.66V758.694z"/>
		<path style="fill:#1A5436;" d="M448.155,756.392c0,1.881-0.269,3.464-0.804,4.749c-0.536,1.285-1.285,2.291-2.25,3.018
			c-0.964,0.737-2.127,1.271-3.49,1.598s-2.901,0.491-4.615,0.491c-1.393,0-2.765-0.084-4.115-0.25
			c-1.351-0.167-2.521-0.369-3.508-0.607v-5.017h0.784c0.784,0.31,1.741,0.592,2.87,0.848s2.139,0.384,3.03,0.384
			c1.188,0,2.154-0.11,2.897-0.33c0.743-0.221,1.311-0.533,1.702-0.938c0.369-0.381,0.637-0.869,0.803-1.464s0.25-1.31,0.25-2.143
			v-0.375c-0.773,0.631-1.629,1.131-2.568,1.5c-0.938,0.369-1.985,0.554-3.139,0.554c-2.805,0-4.969-0.846-6.49-2.535
			c-1.521-1.69-2.282-4.262-2.282-7.713c0-1.654,0.231-3.083,0.695-4.285s1.117-2.25,1.961-3.143
			c0.785-0.833,1.751-1.481,2.897-1.946c1.147-0.464,2.321-0.696,3.522-0.696c1.082,0,2.065,0.128,2.951,0.384
			c0.886,0.257,1.69,0.61,2.416,1.062l0.232-0.893h6.249V756.392z M441.71,752.374v-9.087c-0.368-0.155-0.82-0.277-1.354-0.366
			c-0.534-0.09-1.015-0.134-1.442-0.134c-1.687,0-2.951,0.484-3.795,1.455c-0.843,0.97-1.265,2.324-1.265,4.062
			c0,1.928,0.359,3.273,1.078,4.035s1.784,1.143,3.197,1.143c0.642,0,1.271-0.102,1.889-0.304
			C440.635,752.976,441.199,752.708,441.71,752.374z"/>
		<path style="fill:#1A5436;" d="M486.331,748.393c0,3.154-0.871,5.726-2.612,7.713c-1.741,1.988-3.914,2.981-6.518,2.981
			c-1.117,0-2.098-0.119-2.942-0.356c-0.844-0.238-1.646-0.583-2.407-1.036l-0.269,1h-6.177v-27.78h6.445v9.819
			c0.986-0.785,1.994-1.422,3.022-1.91s2.214-0.732,3.558-0.732c2.532,0,4.481,0.914,5.849,2.741S486.331,745.179,486.331,748.393z
			 M479.707,748.527c0-1.783-0.303-3.155-0.908-4.118c-0.605-0.962-1.687-1.444-3.242-1.444c-0.605,0-1.229,0.093-1.87,0.277
			c-0.642,0.184-1.253,0.448-1.835,0.793v10.054c0.463,0.167,0.902,0.279,1.318,0.339s0.914,0.089,1.496,0.089
			c1.698,0,2.963-0.499,3.795-1.497C479.292,752.021,479.707,750.523,479.707,748.527z"/>
		<path style="fill:#1A5436;" d="M504.849,744.769h-0.57c-0.273-0.095-0.713-0.167-1.318-0.214c-0.605-0.048-1.11-0.072-1.515-0.072
			c-0.914,0-1.722,0.061-2.423,0.179c-0.7,0.119-1.455,0.321-2.262,0.607v13.426h-6.445v-20.05h6.445v2.946
			c1.413-1.214,2.643-2.021,3.688-2.42c1.045-0.398,2.007-0.598,2.886-0.598c0.226,0,0.481,0.006,0.766,0.018
			c0.285,0.013,0.535,0.03,0.749,0.054V744.769z"/>
		<path style="fill:#1A5436;" d="M527.579,749.856h-14.712c0.095,1.571,0.693,2.774,1.794,3.607s2.723,1.249,4.865,1.249
			c1.357,0,2.672-0.243,3.946-0.731c1.273-0.488,2.279-1.012,3.017-1.571h0.715v5.159c-1.452,0.584-2.821,1.007-4.106,1.269
			c-1.286,0.261-2.708,0.393-4.268,0.393c-4.023,0-7.105-0.904-9.248-2.714s-3.214-4.386-3.214-7.73c0-3.31,1.015-5.931,3.044-7.865
			c2.029-1.934,4.812-2.901,8.347-2.901c3.262,0,5.714,0.824,7.356,2.473c1.643,1.649,2.464,4.021,2.464,7.115V749.856z
			 M521.187,746.09c-0.035-1.345-0.368-2.356-0.999-3.035s-1.613-1.018-2.946-1.018c-1.238,0-2.256,0.321-3.053,0.964
			c-0.798,0.643-1.244,1.673-1.339,3.089H521.187z"/>
		<path style="fill:#1A5436;" d="M563.432,738.645l-6.213,20.05h-6.823l-4.086-13.516l-4.035,13.516h-6.892l-6.159-20.05h6.742
			l3.442,13.819l4.277-13.819h5.695l4.067,13.819l3.386-13.819H563.432z"/>
		<path style="fill:#1A5436;" d="M586.358,749.856h-14.712c0.096,1.571,0.693,2.774,1.795,3.607
			c1.101,0.833,2.723,1.249,4.865,1.249c1.356,0,2.672-0.243,3.945-0.731s2.279-1.012,3.018-1.571h0.714v5.159
			c-1.452,0.584-2.82,1.007-4.106,1.269c-1.285,0.261-2.708,0.393-4.267,0.393c-4.023,0-7.106-0.904-9.249-2.714
			c-2.142-1.81-3.213-4.386-3.213-7.73c0-3.31,1.015-5.931,3.044-7.865c2.029-1.934,4.812-2.901,8.347-2.901
			c3.261,0,5.713,0.824,7.355,2.473c1.643,1.649,2.464,4.021,2.464,7.115V749.856z M579.967,746.09
			c-0.036-1.345-0.369-2.356-1-3.035s-1.613-1.018-2.945-1.018c-1.238,0-2.256,0.321-3.054,0.964
			c-0.797,0.643-1.243,1.673-1.339,3.089H579.967z"/>
		<path style="fill:#1A5436;" d="M609.731,758.694h-6.445v-2.089c-1.105,0.905-2.14,1.571-3.103,2s-2.074,0.643-3.335,0.643
			c-2.437,0-4.387-0.94-5.849-2.821c-1.462-1.88-2.193-4.415-2.193-7.605c0-1.702,0.247-3.211,0.74-4.526
			c0.493-1.314,1.168-2.442,2.024-3.383c0.808-0.893,1.788-1.586,2.941-2.08s2.307-0.741,3.46-0.741c1.2,0,2.185,0.128,2.951,0.384
			c0.767,0.257,1.554,0.581,2.362,0.974v-8.534h6.445V758.694z M603.286,753.176v-9.853c-0.451-0.19-0.926-0.328-1.425-0.411
			c-0.499-0.084-0.956-0.125-1.372-0.125c-1.687,0-2.951,0.527-3.794,1.582c-0.843,1.056-1.265,2.519-1.265,4.39
			c0,1.968,0.338,3.395,1.015,4.283c0.677,0.888,1.764,1.332,3.261,1.332c0.582,0,1.199-0.11,1.853-0.331
			S602.787,753.533,603.286,753.176z"/>
	</g>
	<circle style="fill:none;stroke:#1A5436;stroke-width:5;stroke-miterlimit:10;" cx="377.499" cy="520.333" r="84"/>
	<circle style="fill:#1A5436;" cx="335.17" cy="520.333" r="10.333"/>
	<circle style="fill:#1A5436;" cx="377.499" cy="520.333" r="10.333"/>
	<circle style="fill:#1A5436;" cx="419.828" cy="520.333" r="10.333"/>
</g>
<g id="carrier">
	<path style="display:none;fill:none;stroke:#5D5D5D;stroke-width:5;stroke-miterlimit:10;" d="M-451.93,1711
		c-5,39.67-24.67,61-24.67,61h-102.07c0,0-19.66-21.33-24.66-61c-5-39.67-3.34-59.67-3.34-59.67h158.07
		C-448.6,1651.33-446.93,1671.33-451.93,1711z"/>
	<path style="display:none;fill:none;stroke:#5D5D5D;stroke-width:5;stroke-miterlimit:10;" d="M-454.908,1727.01
		c0,0,13.908,0.656,19.908-4.677c6-5.333,12.667-18,12.667-28s-2.667-18.667-7-21.333c-4.333-2.667-13.664-4-18.999-2"/>
	<path style="display:none;fill:none;stroke:#FFFFFF;stroke-width:3;stroke-miterlimit:10;" d="M14.67,1574.157
		c-0.869,6.916-2.755,12.561-4.714,16.855c-2.774,6.083-8.91,9.925-15.595,9.925h-25.848c-6.686,0-12.822-3.843-15.596-9.927
		c-1.958-4.294-3.844-9.938-4.717-16.853c-1.046-8.322-1.426-14.672-1.537-19.035c-0.1-3.932,3.065-7.165,6.999-7.165H9.212
		c3.933,0,7.098,3.231,6.999,7.163C16.101,1559.483,15.721,1565.834,14.67,1574.157z"/>
	<path style="display:none;fill:none;stroke:#FFFFFF;stroke-width:3;stroke-miterlimit:10;" d="M13.365,1580.248
		c0,0,6.106,0.288,8.74-2.053s5.561-7.903,5.561-12.293c0-12.276-9.072-11.122-11.415-10.244"/>
	<g style="display:none;">
		<g style="display:inline;">
			<path style="fill:#FFFFFF;" d="M-31.121,1539.378c2.208-2.979,5.464-7.703,4.706-11.636c-0.301-1.559-1.314-2.532-2.486-3.521
				c-2.627-2.215-4.231-3.842-4.432-7.517c-0.105-1.92-3.106-1.932-3,0c0.254,4.645,2.124,6.854,5.447,9.752
				c3.49,3.044-0.617,8.428-2.825,11.407C-34.862,1539.416-32.26,1540.914-31.121,1539.378L-31.121,1539.378z"/>
		</g>
	</g>
	<g style="display:none;">
		<g style="display:inline;">
			<path style="fill:#FFFFFF;" d="M-10.784,1539.378c2.208-2.979,5.464-7.703,4.706-11.636c-0.301-1.559-1.314-2.532-2.486-3.521
				c-2.627-2.215-4.231-3.842-4.432-7.517c-0.105-1.92-3.106-1.932-3,0c0.254,4.645,2.124,6.854,5.447,9.752
				c3.49,3.044-0.617,8.428-2.825,11.407C-14.525,1539.416-11.922,1540.914-10.784,1539.378L-10.784,1539.378z"/>
		</g>
	</g>
</g>
<g id="ai2html-settings">
	<rect x="-450" style="fill:none;" width="400" height="462"/>
	<text transform="matrix(1 0 0 1 -450 10.6499)" style="display:none;"><tspan x="0" y="0" style="display:inline; font-family:'MyriadPro-Regular'; font-size:15px;">ai2html-settings</tspan><tspan x="0" y="18" style="display:inline; font-family:'MyriadPro-Regular'; font-size:15px;">settings_version: 0.61</tspan><tspan x="0" y="36" style="display:inline; font-family:'MyriadPro-Regular'; font-size:15px;">image_format: svg</tspan><tspan x="0" y="54" style="display:inline; font-family:'MyriadPro-Regular'; font-size:15px;">responsiveness: fixed</tspan><tspan x="0" y="72" style="display:inline; font-family:'MyriadPro-Regular'; font-size:15px;">output: one-file</tspan><tspan x="0" y="90" style="display:inline; font-family:'MyriadPro-Regular'; font-size:15px;">html_output_path: /ai2html-output/</tspan><tspan x="0" y="108" style="display:inline; font-family:'MyriadPro-Regular'; font-size:15px;">html_output_extension: .html</tspan><tspan x="0" y="126" style="display:inline; font-family:'MyriadPro-Regular'; font-size:15px;">image_output_path: </tspan><tspan x="0" y="144" style="display:inline; font-family:'MyriadPro-Regular'; font-size:15px;">local_preview_template: </tspan><tspan x="0" y="162" style="display:inline; font-family:'MyriadPro-Regular'; font-size:15px;">png_number_of_colors: 128</tspan><tspan x="0" y="180" style="display:inline; font-family:'MyriadPro-Regular'; font-size:15px;">jpg_quality: 60</tspan><tspan x="0" y="198" style="display:inline; font-family:'MyriadPro-Regular'; font-size:15px;">headline: Ai Graphic Headline</tspan><tspan x="0" y="216" style="display:inline; font-family:'MyriadPro-Regular'; font-size:15px;">leadin: Introductory text here.</tspan><tspan x="0" y="234" style="display:inline; font-family:'MyriadPro-Regular'; font-size:15px;">notes: Notes: Text goes here.</tspan><tspan x="0" y="252" style="display:inline; font-family:'MyriadPro-Regular'; font-size:15px;">sources: Source: Name goes here.</tspan><tspan x="0" y="270" style="display:inline; font-family:'MyriadPro-Regular'; font-size:15px;">credit: By ai2html</tspan></text>
</g>
</svg>
