<?xml version="1.0" encoding="utf-8"?>
<!-- Generator: Adobe Illustrator 20.1.0, SVG Export Plug-In . SVG Version: 6.00 Build 0)  -->
<svg version="1.1" id="Layer_1" xmlns="http://www.w3.org/2000/svg" xmlns:xlink="http://www.w3.org/1999/xlink" x="0px" y="0px"
	 viewBox="0 0 2160 2160" style="enable-background:new 0 0 2160 2160;" xml:space="preserve">
<g>
	<path style="fill:#1A5436;" d="M1500.464,1351.444c-5.592,0-9.907-0.14-12.511-0.268l4.315-91.407l-2.158,45.704l2.068-45.704
		c29.082,1.187,69.858-4.736,81.781-15.332c26.516-23.58,57.347-83.977,57.347-126.515c0-29.982-4.928-69.136-28.405-85.407
		c-21.371-14.815-52.47-8.119-59.006-5.662l-32.12-85.688c28.916-10.832,91.65-19.641,143.264,16.143
		c30.92,21.435,67.777,66.698,67.777,160.614c0,72.041-45.716,157.256-88.063,194.905
		C1596.02,1347.256,1530.171,1351.444,1500.464,1351.444z"/>
</g>
<g>
	<path style="fill:#1A5436;" d="M1512.001,1185.616c-1.569,12.942-3.137,26.407-4.837,40.264
		c-3.53,28.106-8.367,54.644-14.119,79.613c-12.681,55.036-29.806,102.098-47.454,140.663
		c-36.342,79.613-116.479,129.813-203.935,129.813H903.725c-87.326,0-167.593-50.33-203.805-129.813
		c-25.623-56.082-50.33-129.943-61.704-220.276c0,0,102.268-26.773,217.701-28.473c115.432-1.83,144.154,30.695,216.838,32.263
		C1145.441,1231.24,1268.586,1179.08,1512.001,1185.616z"/>
	<path style="fill:#1A5436;" d="M1241.651,1595.575H903.725c-95.544,0-182.547-55.457-221.65-141.286
		c-31.929-69.896-53.236-145.92-63.315-225.952l-2.151-17.069l16.641-4.353c4.27-1.111,105.91-27.409,222.378-29.12
		c69.079-1.06,108.521,9.677,143.328,19.175c24.524,6.702,45.71,12.473,74.224,13.085c23.458,0.626,54.544-5.426,93.954-12.971
		c78.169-14.911,185.355-35.337,345.395-31.061l21.537,0.574l-7.43,61.674c-3.46,27.435-8.324,54.87-14.477,81.616
		c-11.668,50.657-28.061,99.246-48.729,144.426C1424.249,1540.118,1337.195,1595.575,1241.651,1595.575z M660.065,1240.874
		c10.347,69.692,29.727,135.924,57.691,197.139c32.759,71.9,105.75,118.344,185.968,118.344h337.926
		c80.237,0,153.286-46.457,186.108-118.344c19.571-42.793,35.108-88.854,46.176-136.919c5.86-25.456,10.494-51.589,13.775-77.658
		l2.247-18.639c-144.171-1.813-242.625,16.903-315.458,30.818c-41.695,7.953-74.594,14.234-102.163,13.66
		c-33.339-0.715-57.806-7.392-83.709-14.464c-33.856-9.243-68.773-18.843-132.4-17.796
		C771.612,1218.252,693.36,1233.482,660.065,1240.874z"/>
</g>
<g>
	<path style="fill:#1A5436;" d="M621.562,1250.513l-2.802-22.175c-11.579-91.765-18.403-176.176-20.279-250.872
		c-0.766-30.078,10.392-58.527,31.431-80.109c21.116-21.658,49.412-33.588,79.681-33.588h726.197
		c30.295,0,58.598,11.917,79.688,33.55c21.026,21.569,32.184,50.031,31.431,80.154l-0.013,0.019
		c-1.672,63.736-6.856,134.507-15.409,210.326l-2.017,17.886l-17.988-0.485c-156.095-4.187-260.613,15.805-337.02,30.41
		c-41.67,7.966-74.709,14.26-102.125,13.66c-33.333-0.728-57.8-7.405-83.696-14.477c-33.863-9.256-68.913-18.932-132.413-17.796
		c-111.783,1.647-212.043,27.575-213.046,27.844L621.562,1250.513z M865.234,1177.719c63.213,0,100.574,10.2,133.734,19.264
		c24.524,6.69,45.704,12.473,74.211,13.086c23.458,0.626,54.532-5.438,93.929-12.971c75.181-14.362,176.993-33.69,327.369-31.469
		c7.251-67.994,11.694-131.551,13.226-189.172c0.485-19.45-6.728-37.833-20.299-51.755c-13.66-14.005-31.98-21.716-51.615-21.716
		H709.592c-19.603,0-37.929,7.724-51.602,21.747c-13.59,13.941-20.803,32.318-20.305,51.742
		c1.698,67.502,7.519,143.194,17.324,225.308c36.557-8.03,114.54-22.724,200.617-23.988
		C858.889,1177.744,862.1,1177.719,865.234,1177.719z"/>
</g>
<g>
	<g>
		<g>
			<path style="fill:#1A5436;" d="M908.222,770.869c28.956-38.878,71.652-100.543,61.834-151.984
				c-3.896-20.38-17.138-33.126-32.421-46.081c-34.185-28.969-55.167-50.356-57.69-98.412c-1.32-25.113-40.539-25.27-39.218,0
				c3.177,60.775,27.544,89.562,70.959,127.63c45.493,39.898-8.38,110.19-37.323,149.056
				C859.277,771.327,893.306,790.897,908.222,770.869L908.222,770.869z"/>
		</g>
	</g>
</g>
<g>
	<g>
		<g>
			<path style="fill:#1A5436;" d="M1077.41,771.457c28.956-38.878,71.652-100.543,61.834-151.984
				c-3.896-20.38-17.138-33.126-32.421-46.081c-34.185-28.969-55.167-50.356-57.69-98.412c-1.321-25.113-40.539-25.27-39.218,0
				c3.19,60.775,27.544,89.562,70.959,127.63c45.493,39.898-8.38,110.19-37.323,149.056
				C1028.465,771.915,1062.494,791.485,1077.41,771.457L1077.41,771.457z"/>
		</g>
	</g>
</g>
<g>
	<g>
		<g>
			<path style="fill:#1A5436;" d="M1224.727,771.457c28.956-38.878,71.652-100.543,61.834-151.984
				c-3.896-20.38-17.138-33.126-32.421-46.081c-34.185-28.969-55.167-50.356-57.69-98.412c-1.321-25.113-40.539-25.27-39.218,0
				c3.177,60.775,27.544,89.562,70.959,127.63c45.493,39.898-8.38,110.19-37.323,149.056
				C1175.782,771.915,1209.811,791.485,1224.727,771.457L1224.727,771.457z"/>
		</g>
	</g>
</g>
<g>
	<path style="fill:#1A5436;" d="M1079.837,2126.044c-576.671,0-1045.823-469.152-1045.823-1045.816
		c0-576.671,469.152-1045.823,1045.823-1045.823S2125.66,503.557,2125.66,1080.228
		C2125.66,1656.892,1656.507,2126.044,1079.837,2126.044z M1079.837,73.624c-555.044,0-1006.604,451.56-1006.604,1006.604
		c0,555.038,451.56,1006.598,1006.604,1006.598s1006.604-451.56,1006.604-1006.598
		C2086.441,525.184,1634.881,73.624,1079.837,73.624z"/>
</g>
</svg>
