<?xml version="1.0" encoding="utf-8"?>
<!-- Generator: Adobe Illustrator 20.1.0, SVG Export Plug-In . SVG Version: 6.00 Build 0)  -->
<svg version="1.1" xmlns="http://www.w3.org/2000/svg" xmlns:xlink="http://www.w3.org/1999/xlink" x="0px" y="0px"
	 viewBox="0 0 750 1334" style="enable-background:new 0 0 750 1334;" xml:space="preserve">
<g id="background">
	<rect x="0.861" style="fill:#E5E5E5;" width="749.139" height="1334"/>
</g>
<g id="halfway" style="display:none;">
	
		<line style="display:inline;stroke:#FFFFFF;stroke-width:8;stroke-miterlimit:10;" x1="373.41" y1="-45.588" x2="375.431" y2="1556"/>
</g>
<g id="stuff">
	<rect x="-1844.78" y="0" style="fill:#1A5436;" width="4439.561" height="175.271"/>
	<path id="path2651_1_" style="fill:#FFFFFF;" d="M332.484,144.758h85.893V72.53h-85.893V144.758z M389.111,130.041h-20.009V96.142
		h10.051v27.901h9.663c6.672,0,9.478-4.361,9.478-15.543c0-11.268-3.192-14.539-9.958-14.539h-22.037v36.079h-9.958V93.962h-14.596
		v-6.003h49.681c11.988,0,17.69,5.815,17.69,20.452C409.116,127.677,400.609,130.041,389.111,130.041"/>
	<g>
		<path style="fill:#1A5436;" d="M69.739,207.441l-5.833,22.442h-3.361l-4.717-18.629l-4.612,18.629H47.93l-5.938-22.442h3.06
			l4.717,18.659l4.642-18.659h3.029l4.688,18.84l4.688-18.84H69.739z"/>
		<path style="fill:#1A5436;" d="M87.435,229.883h-2.833v-9.585c0-0.774-0.045-1.5-0.136-2.178c-0.09-0.678-0.256-1.208-0.497-1.59
			c-0.251-0.422-0.613-0.736-1.085-0.942s-1.085-0.309-1.838-0.309c-0.774,0-1.583,0.191-2.427,0.573s-1.653,0.869-2.427,1.462
			v12.57h-2.833v-23.452h2.833v8.485c0.884-0.733,1.799-1.306,2.743-1.718c0.944-0.412,1.914-0.618,2.909-0.618
			c1.819,0,3.206,0.548,4.16,1.643c0.954,1.095,1.432,2.673,1.432,4.732V229.883z"/>
		<path style="fill:#1A5436;" d="M105.417,229.883h-2.818v-1.793c-0.251,0.171-0.59,0.41-1.018,0.716
			c-0.427,0.307-0.841,0.55-1.243,0.731c-0.473,0.231-1.015,0.424-1.628,0.58s-1.332,0.234-2.155,0.234
			c-1.517,0-2.803-0.502-3.858-1.507c-1.055-1.004-1.583-2.286-1.583-3.843c0-1.276,0.274-2.308,0.821-3.097
			c0.548-0.789,1.329-1.409,2.344-1.861c1.025-0.452,2.256-0.759,3.693-0.919c1.437-0.161,2.979-0.281,4.627-0.362v-0.437
			c0-0.643-0.113-1.176-0.339-1.598s-0.55-0.753-0.972-0.995c-0.402-0.231-0.884-0.387-1.447-0.467
			c-0.563-0.08-1.15-0.121-1.763-0.121c-0.744,0-1.573,0.098-2.487,0.294c-0.915,0.196-1.859,0.48-2.833,0.852h-0.151v-2.879
			c0.552-0.15,1.351-0.316,2.396-0.497c1.045-0.181,2.075-0.271,3.09-0.271c1.185,0,2.218,0.098,3.097,0.294
			c0.879,0.196,1.64,0.53,2.283,1.002c0.633,0.462,1.115,1.06,1.447,1.793s0.498,1.643,0.498,2.728V229.883z M102.599,225.738
			v-4.688c-0.864,0.05-1.882,0.126-3.052,0.226c-1.17,0.101-2.098,0.246-2.781,0.437c-0.814,0.231-1.472,0.59-1.974,1.078
			c-0.503,0.487-0.754,1.158-0.754,2.012c0,0.964,0.292,1.69,0.875,2.178c0.583,0.487,1.472,0.731,2.667,0.731
			c0.995,0,1.904-0.193,2.728-0.58C101.132,226.746,101.896,226.281,102.599,225.738z"/>
		<path style="fill:#1A5436;" d="M119.06,229.732c-0.533,0.141-1.113,0.256-1.741,0.347s-1.188,0.136-1.681,0.136
			c-1.718,0-3.024-0.462-3.918-1.387c-0.895-0.924-1.341-2.406-1.341-4.446v-8.953h-1.914v-2.381h1.914v-4.838h2.833v4.838h5.848
			v2.381h-5.848v7.671c0,0.884,0.02,1.575,0.06,2.072s0.181,0.962,0.422,1.394c0.221,0.402,0.525,0.696,0.912,0.882
			s0.977,0.279,1.771,0.279c0.462,0,0.944-0.068,1.447-0.204c0.502-0.135,0.864-0.249,1.085-0.339h0.15V229.732z"/>
		<path style="fill:#1A5436;" d="M144.67,228.828c-0.944,0.452-1.841,0.804-2.69,1.055c-0.849,0.251-1.751,0.377-2.706,0.377
			c-1.216,0-2.331-0.179-3.346-0.535c-1.015-0.356-1.884-0.897-2.607-1.62c-0.734-0.724-1.301-1.638-1.703-2.743
			c-0.402-1.105-0.603-2.396-0.603-3.874c0-2.753,0.756-4.914,2.269-6.481c1.512-1.567,3.509-2.351,5.991-2.351
			c0.965,0,1.912,0.136,2.841,0.407c0.929,0.271,1.781,0.603,2.554,0.995v3.15h-0.15c-0.864-0.673-1.756-1.191-2.675-1.552
			c-0.919-0.362-1.816-0.543-2.69-0.543c-1.607,0-2.876,0.541-3.806,1.621s-1.394,2.665-1.394,4.755c0,2.03,0.455,3.59,1.364,4.68
			c0.909,1.09,2.188,1.635,3.835,1.635c0.573,0,1.155-0.075,1.749-0.226c0.593-0.15,1.125-0.347,1.598-0.587
			c0.412-0.211,0.799-0.435,1.16-0.671c0.362-0.236,0.648-0.439,0.859-0.61h0.15V228.828z"/>
		<path style="fill:#1A5436;" d="M160.83,229.883h-2.818v-1.793c-0.251,0.171-0.59,0.41-1.018,0.716
			c-0.427,0.307-0.841,0.55-1.243,0.731c-0.473,0.231-1.015,0.424-1.628,0.58s-1.332,0.234-2.155,0.234
			c-1.517,0-2.803-0.502-3.858-1.507c-1.055-1.004-1.583-2.286-1.583-3.843c0-1.276,0.274-2.308,0.821-3.097
			c0.548-0.789,1.329-1.409,2.344-1.861c1.025-0.452,2.256-0.759,3.693-0.919c1.437-0.161,2.979-0.281,4.627-0.362v-0.437
			c0-0.643-0.113-1.176-0.339-1.598s-0.55-0.753-0.972-0.995c-0.402-0.231-0.884-0.387-1.447-0.467
			c-0.563-0.08-1.15-0.121-1.763-0.121c-0.744,0-1.573,0.098-2.487,0.294c-0.915,0.196-1.859,0.48-2.833,0.852h-0.151v-2.879
			c0.552-0.15,1.351-0.316,2.396-0.497c1.045-0.181,2.075-0.271,3.09-0.271c1.185,0,2.218,0.098,3.097,0.294
			c0.879,0.196,1.64,0.53,2.283,1.002c0.633,0.462,1.115,1.06,1.447,1.793s0.498,1.643,0.498,2.728V229.883z M158.011,225.738
			v-4.688c-0.864,0.05-1.882,0.126-3.052,0.226c-1.17,0.101-2.098,0.246-2.781,0.437c-0.814,0.231-1.472,0.59-1.974,1.078
			c-0.503,0.487-0.754,1.158-0.754,2.012c0,0.964,0.292,1.69,0.875,2.178c0.583,0.487,1.472,0.731,2.667,0.731
			c0.995,0,1.904-0.193,2.728-0.58C156.544,226.746,157.308,226.281,158.011,225.738z"/>
		<path style="fill:#1A5436;" d="M179.807,229.883h-2.833v-9.585c0-0.774-0.045-1.5-0.136-2.178c-0.09-0.678-0.256-1.208-0.497-1.59
			c-0.251-0.422-0.613-0.736-1.085-0.942s-1.085-0.309-1.838-0.309c-0.774,0-1.583,0.191-2.427,0.573s-1.653,0.869-2.427,1.462
			v12.57h-2.833v-16.835h2.833v1.869c0.884-0.733,1.799-1.306,2.743-1.718c0.944-0.412,1.914-0.618,2.909-0.618
			c1.819,0,3.206,0.548,4.16,1.643c0.954,1.095,1.432,2.673,1.432,4.732V229.883z"/>
		<path style="fill:#1A5436;" d="M216.179,213.048l-4.386,16.835h-2.623l-4.325-12.977l-4.296,12.977h-2.607l-4.431-16.835h2.954
			l3.09,13.037l4.205-13.037h2.336l4.311,13.037l2.924-13.037H216.179z"/>
		<path style="fill:#1A5436;" d="M233.8,221.759h-12.404c0,1.035,0.156,1.937,0.467,2.705c0.312,0.769,0.739,1.399,1.281,1.892
			c0.522,0.482,1.143,0.844,1.861,1.085c0.718,0.241,1.51,0.361,2.374,0.361c1.146,0,2.298-0.228,3.459-0.686
			c1.16-0.457,1.987-0.907,2.479-1.349h0.151v3.09c-0.955,0.402-1.929,0.739-2.924,1.01c-0.995,0.271-2.04,0.407-3.135,0.407
			c-2.793,0-4.974-0.756-6.541-2.269s-2.351-3.66-2.351-6.443c0-2.753,0.751-4.938,2.253-6.556c1.502-1.618,3.479-2.426,5.931-2.426
			c2.271,0,4.021,0.663,5.252,1.989c1.23,1.326,1.846,3.21,1.846,5.652V221.759z M231.042,219.589
			c-0.01-1.487-0.384-2.638-1.123-3.452c-0.739-0.813-1.861-1.221-3.369-1.221c-1.517,0-2.726,0.447-3.625,1.341
			c-0.899,0.895-1.409,2.005-1.53,3.331H231.042z"/>
		<path style="fill:#1A5436;" d="M261.913,229.883h-2.833v-9.585c0-0.774-0.045-1.5-0.136-2.178c-0.09-0.678-0.256-1.208-0.497-1.59
			c-0.251-0.422-0.613-0.736-1.085-0.942s-1.085-0.309-1.838-0.309c-0.774,0-1.583,0.191-2.427,0.573s-1.653,0.869-2.427,1.462
			v12.57h-2.833v-23.452h2.833v8.485c0.884-0.733,1.799-1.306,2.743-1.718c0.944-0.412,1.914-0.618,2.909-0.618
			c1.819,0,3.206,0.548,4.16,1.643c0.954,1.095,1.432,2.673,1.432,4.732V229.883z"/>
		<path style="fill:#1A5436;" d="M280.905,221.759h-12.404c0,1.035,0.156,1.937,0.467,2.705c0.312,0.769,0.739,1.399,1.281,1.892
			c0.522,0.482,1.143,0.844,1.861,1.085c0.718,0.241,1.51,0.361,2.374,0.361c1.146,0,2.298-0.228,3.459-0.686
			c1.16-0.457,1.987-0.907,2.479-1.349h0.151v3.09c-0.955,0.402-1.929,0.739-2.924,1.01c-0.995,0.271-2.04,0.407-3.135,0.407
			c-2.793,0-4.974-0.756-6.541-2.269s-2.351-3.66-2.351-6.443c0-2.753,0.751-4.938,2.253-6.556c1.502-1.618,3.479-2.426,5.931-2.426
			c2.271,0,4.021,0.663,5.252,1.989c1.23,1.326,1.846,3.21,1.846,5.652V221.759z M278.147,219.589
			c-0.01-1.487-0.384-2.638-1.123-3.452c-0.739-0.813-1.861-1.221-3.369-1.221c-1.517,0-2.726,0.447-3.625,1.341
			c-0.899,0.895-1.409,2.005-1.53,3.331H278.147z"/>
		<path style="fill:#1A5436;" d="M287.509,229.883h-2.833v-23.452h2.833V229.883z"/>
		<path style="fill:#1A5436;" d="M307.375,221.262c0,1.367-0.196,2.615-0.588,3.746c-0.392,1.13-0.945,2.087-1.658,2.871
			c-0.663,0.744-1.444,1.319-2.343,1.726c-0.899,0.407-1.852,0.61-2.856,0.61c-0.874,0-1.665-0.096-2.374-0.286
			c-0.708-0.191-1.43-0.487-2.163-0.89v7.054h-2.833v-23.044h2.833v1.763c0.754-0.633,1.6-1.163,2.54-1.59
			c0.939-0.427,1.942-0.641,3.007-0.641c2.03,0,3.61,0.766,4.74,2.298S307.375,218.539,307.375,221.262z M304.451,221.337
			c0-2.029-0.347-3.546-1.04-4.551c-0.693-1.005-1.759-1.507-3.195-1.507c-0.814,0-1.633,0.176-2.457,0.527
			c-0.824,0.352-1.612,0.814-2.366,1.387v9.541c0.804,0.362,1.495,0.608,2.073,0.738c0.578,0.131,1.233,0.196,1.967,0.196
			c1.577,0,2.808-0.533,3.692-1.598S304.451,223.427,304.451,221.337z"/>
		<path style="fill:#1A5436;" d="M336.091,213.048l-9.827,23.044h-3.03l3.135-7.023l-6.707-16.021h3.075l5.169,12.479l5.215-12.479
			H336.091z"/>
		<path style="fill:#1A5436;" d="M353.32,221.473c0,2.743-0.703,4.909-2.11,6.496c-1.406,1.588-3.291,2.381-5.651,2.381
			c-2.382,0-4.273-0.793-5.675-2.381c-1.402-1.587-2.103-3.753-2.103-6.496s0.701-4.911,2.103-6.503
			c1.401-1.592,3.293-2.389,5.675-2.389c2.36,0,4.245,0.796,5.651,2.389C352.617,216.562,353.32,218.729,353.32,221.473z
			 M350.396,221.473c0-2.18-0.428-3.8-1.281-4.86c-0.854-1.06-2.04-1.59-3.557-1.59c-1.537,0-2.731,0.53-3.58,1.59
			s-1.273,2.68-1.273,4.86c0,2.11,0.427,3.71,1.281,4.8c0.854,1.09,2.045,1.635,3.572,1.635c1.507,0,2.689-0.54,3.549-1.62
			C349.967,225.208,350.396,223.603,350.396,221.473z"/>
		<path style="fill:#1A5436;" d="M371.107,229.883h-2.834v-1.869c-0.955,0.754-1.869,1.332-2.743,1.733s-1.839,0.603-2.894,0.603
			c-1.769,0-3.146-0.54-4.13-1.62s-1.477-2.665-1.477-4.755v-10.927h2.833v9.585c0,0.854,0.04,1.585,0.121,2.193
			c0.08,0.608,0.251,1.128,0.512,1.56c0.271,0.442,0.623,0.764,1.056,0.964c0.432,0.201,1.06,0.302,1.884,0.302
			c0.733,0,1.535-0.191,2.404-0.573c0.868-0.382,1.68-0.869,2.434-1.462v-12.57h2.834V229.883z"/>
		<path style="fill:#1A5436;" d="M407.6,213.048l-4.386,16.835h-2.622l-4.326-12.977l-4.295,12.977h-2.607l-4.432-16.835h2.954
			l3.09,13.037l4.205-13.037h2.336l4.311,13.037l2.924-13.037H407.6z"/>
		<path style="fill:#1A5436;" d="M414.173,210.229h-3.195v-2.939h3.195V210.229z M413.992,229.883h-2.834v-16.835h2.834V229.883z"/>
		<path style="fill:#1A5436;" d="M427.785,229.732c-0.533,0.141-1.113,0.256-1.741,0.347s-1.188,0.136-1.681,0.136
			c-1.718,0-3.024-0.462-3.918-1.387c-0.895-0.924-1.342-2.406-1.342-4.446v-8.953h-1.914v-2.381h1.914v-4.838h2.833v4.838h5.849
			v2.381h-5.849v7.671c0,0.884,0.021,1.575,0.061,2.072s0.181,0.962,0.422,1.394c0.221,0.402,0.525,0.696,0.912,0.882
			s0.978,0.279,1.771,0.279c0.463,0,0.944-0.068,1.447-0.204c0.502-0.135,0.864-0.249,1.085-0.339h0.151V229.732z"/>
		<path style="fill:#1A5436;" d="M444.728,229.883h-2.833v-9.585c0-0.774-0.046-1.5-0.136-2.178
			c-0.091-0.678-0.257-1.208-0.498-1.59c-0.251-0.422-0.612-0.736-1.085-0.942s-1.085-0.309-1.839-0.309
			c-0.773,0-1.582,0.191-2.427,0.573c-0.844,0.382-1.652,0.869-2.426,1.462v12.57h-2.834v-23.452h2.834v8.485
			c0.884-0.733,1.798-1.306,2.743-1.718c0.944-0.412,1.914-0.618,2.908-0.618c1.818,0,3.205,0.548,4.16,1.643
			c0.954,1.095,1.432,2.673,1.432,4.732V229.883z"/>
		<path style="fill:#1A5436;" d="M468.666,229.732c-0.533,0.141-1.113,0.256-1.741,0.347s-1.188,0.136-1.681,0.136
			c-1.718,0-3.024-0.462-3.918-1.387c-0.895-0.924-1.342-2.406-1.342-4.446v-8.953h-1.914v-2.381h1.914v-4.838h2.833v4.838h5.849
			v2.381h-5.849v7.671c0,0.884,0.021,1.575,0.061,2.072s0.181,0.962,0.422,1.394c0.221,0.402,0.525,0.696,0.912,0.882
			s0.978,0.279,1.771,0.279c0.463,0,0.944-0.068,1.447-0.204c0.502-0.135,0.864-0.249,1.085-0.339h0.151V229.732z"/>
		<path style="fill:#1A5436;" d="M485.88,221.473c0,2.743-0.703,4.909-2.11,6.496c-1.406,1.588-3.291,2.381-5.651,2.381
			c-2.382,0-4.273-0.793-5.675-2.381c-1.401-1.587-2.103-3.753-2.103-6.496s0.701-4.911,2.103-6.503
			c1.401-1.592,3.293-2.389,5.675-2.389c2.36,0,4.245,0.796,5.651,2.389C485.177,216.562,485.88,218.729,485.88,221.473z
			 M482.956,221.473c0-2.18-0.428-3.8-1.281-4.86c-0.854-1.06-2.04-1.59-3.557-1.59c-1.538,0-2.73,0.53-3.58,1.59
			c-0.849,1.06-1.273,2.68-1.273,4.86c0,2.11,0.427,3.71,1.281,4.8c0.854,1.09,2.045,1.635,3.572,1.635
			c1.507,0,2.689-0.54,3.549-1.62C482.526,225.208,482.956,223.603,482.956,221.473z"/>
		<path style="fill:#1A5436;" d="M503.365,229.883h-2.834v-1.763c-0.813,0.703-1.663,1.251-2.547,1.643
			c-0.884,0.392-1.844,0.588-2.879,0.588c-2.01,0-3.604-0.773-4.785-2.321c-1.181-1.547-1.771-3.692-1.771-6.436
			c0-1.427,0.203-2.698,0.61-3.813s0.957-2.065,1.65-2.849c0.683-0.764,1.479-1.346,2.389-1.749
			c0.909-0.401,1.852-0.603,2.826-0.603c0.884,0,1.668,0.093,2.351,0.279c0.684,0.186,1.402,0.475,2.155,0.867v-7.295h2.834V229.883
			z M500.531,225.738v-9.661c-0.764-0.341-1.446-0.578-2.05-0.708c-0.603-0.13-1.261-0.196-1.974-0.196
			c-1.588,0-2.824,0.553-3.708,1.658c-0.884,1.105-1.326,2.673-1.326,4.703c0,2,0.342,3.519,1.024,4.559
			c0.684,1.04,1.779,1.56,3.286,1.56c0.804,0,1.617-0.178,2.441-0.535C499.05,226.761,499.818,226.301,500.531,225.738z"/>
		<path style="fill:#1A5436;" d="M521.468,229.883h-2.818v-1.793c-0.251,0.171-0.59,0.41-1.017,0.716
			c-0.428,0.307-0.842,0.55-1.244,0.731c-0.472,0.231-1.015,0.424-1.627,0.58c-0.613,0.156-1.332,0.234-2.155,0.234
			c-1.518,0-2.804-0.502-3.858-1.507c-1.056-1.004-1.583-2.286-1.583-3.843c0-1.276,0.273-2.308,0.821-3.097
			c0.548-0.789,1.329-1.409,2.344-1.861c1.025-0.452,2.256-0.759,3.692-0.919c1.438-0.161,2.979-0.281,4.627-0.362v-0.437
			c0-0.643-0.112-1.176-0.339-1.598c-0.226-0.422-0.55-0.753-0.972-0.995c-0.402-0.231-0.885-0.387-1.447-0.467
			c-0.562-0.08-1.15-0.121-1.764-0.121c-0.743,0-1.572,0.098-2.486,0.294c-0.915,0.196-1.859,0.48-2.834,0.852h-0.15v-2.879
			c0.553-0.15,1.352-0.316,2.396-0.497c1.045-0.181,2.074-0.271,3.09-0.271c1.186,0,2.218,0.098,3.097,0.294
			c0.88,0.196,1.641,0.53,2.284,1.002c0.633,0.462,1.115,1.06,1.446,1.793c0.332,0.733,0.497,1.643,0.497,2.728V229.883z
			 M518.649,225.738v-4.688c-0.864,0.05-1.881,0.126-3.052,0.226c-1.171,0.101-2.098,0.246-2.78,0.437
			c-0.814,0.231-1.473,0.59-1.975,1.078c-0.503,0.487-0.754,1.158-0.754,2.012c0,0.964,0.291,1.69,0.874,2.178
			s1.472,0.731,2.668,0.731c0.995,0,1.904-0.193,2.729-0.58C517.183,226.746,517.946,226.281,518.649,225.738z"/>
		<path style="fill:#1A5436;" d="M540.687,213.048l-9.827,23.044h-3.029l3.135-7.023l-6.707-16.021h3.075l5.17,12.479l5.215-12.479
			H540.687z"/>
		<path style="fill:#1A5436;" d="M556.198,212.716c0,0.985-0.176,1.861-0.528,2.63c-0.352,0.769-0.813,1.449-1.386,2.042
			c-0.563,0.573-1.211,1.11-1.944,1.613c-0.734,0.502-1.513,0.99-2.337,1.462v3.391h-2.697v-4.597
			c0.653-0.372,1.358-0.779,2.117-1.221c0.759-0.442,1.379-0.89,1.861-1.342c0.583-0.522,1.035-1.062,1.356-1.62
			c0.322-0.558,0.482-1.268,0.482-2.132c0-1.136-0.384-1.982-1.152-2.54c-0.77-0.558-1.762-0.836-2.978-0.836
			c-1.085,0-2.112,0.171-3.082,0.513c-0.97,0.342-1.735,0.688-2.298,1.04h-0.151v-3.075c0.703-0.271,1.596-0.515,2.676-0.731
			c1.08-0.216,2.103-0.324,3.067-0.324c2.16,0,3.865,0.525,5.116,1.575S556.198,210.998,556.198,212.716z M550.244,229.883h-3.074
			v-3.18h3.074V229.883z"/>
	</g>
	<g>
		<path style="fill:#1A5436;" d="M59.625,945.75h-8.018v19.789h-2.984V945.75h-8.018v-2.653h19.021V945.75z"/>
		<path style="fill:#1A5436;" d="M75.935,965.539h-2.833v-9.586c0-0.773-0.045-1.5-0.136-2.178c-0.09-0.679-0.256-1.208-0.497-1.59
			c-0.251-0.422-0.613-0.736-1.085-0.942s-1.085-0.309-1.838-0.309c-0.774,0-1.583,0.19-2.427,0.572s-1.653,0.869-2.427,1.462v12.57
			h-2.833v-23.452h2.833v8.485c0.884-0.733,1.799-1.306,2.743-1.718s1.914-0.618,2.909-0.618c1.819,0,3.206,0.548,4.16,1.643
			c0.954,1.096,1.432,2.673,1.432,4.732V965.539z"/>
		<path style="fill:#1A5436;" d="M83.88,945.886h-3.195v-2.939h3.195V945.886z M83.699,965.539h-2.833v-16.835h2.833V965.539z"/>
		<path style="fill:#1A5436;" d="M102.827,965.539h-2.833v-9.586c0-0.773-0.045-1.5-0.136-2.178c-0.09-0.679-0.256-1.208-0.497-1.59
			c-0.251-0.422-0.613-0.736-1.085-0.942s-1.085-0.309-1.838-0.309c-0.774,0-1.583,0.19-2.427,0.572s-1.653,0.869-2.427,1.462v12.57
			H88.75v-16.835h2.833v1.868c0.884-0.733,1.799-1.306,2.743-1.718s1.914-0.618,2.909-0.618c1.819,0,3.206,0.548,4.16,1.643
			c0.954,1.096,1.432,2.673,1.432,4.732V965.539z"/>
		<path style="fill:#1A5436;" d="M121.383,963.625c0,2.854-0.648,4.948-1.944,6.284c-1.296,1.337-3.291,2.005-5.983,2.005
			c-0.895,0-1.766-0.062-2.615-0.188s-1.686-0.304-2.509-0.535v-2.894h0.151c0.462,0.181,1.195,0.404,2.2,0.671
			c1.005,0.266,2.01,0.399,3.015,0.399c0.964,0,1.763-0.116,2.396-0.347c0.633-0.231,1.125-0.553,1.477-0.965
			c0.352-0.392,0.603-0.864,0.753-1.417s0.226-1.17,0.226-1.854v-1.537c-0.854,0.684-1.671,1.193-2.449,1.529
			c-0.779,0.337-1.771,0.505-2.977,0.505c-2.01,0-3.605-0.726-4.786-2.178c-1.181-1.451-1.771-3.499-1.771-6.142
			c0-1.447,0.203-2.695,0.61-3.745c0.407-1.05,0.962-1.957,1.666-2.721c0.653-0.713,1.447-1.269,2.381-1.665
			c0.934-0.397,1.863-0.596,2.788-0.596c0.975,0,1.791,0.098,2.449,0.294c0.658,0.196,1.354,0.495,2.087,0.896l0.181-0.723h2.653
			V963.625z M118.549,960.912v-9.179c-0.753-0.342-1.455-0.586-2.103-0.731s-1.294-0.219-1.937-0.219
			c-1.558,0-2.784,0.522-3.678,1.567c-0.895,1.046-1.341,2.562-1.341,4.552c0,1.89,0.332,3.321,0.995,4.296s1.763,1.462,3.301,1.462
			c0.824,0,1.65-0.158,2.479-0.475C117.095,961.869,117.856,961.444,118.549,960.912z"/>
		<path style="fill:#1A5436;" d="M138.431,960.686c0,1.537-0.636,2.799-1.906,3.783c-1.271,0.984-3.007,1.477-5.208,1.477
			c-1.246,0-2.389-0.147-3.429-0.444c-1.04-0.296-1.912-0.62-2.615-0.972v-3.181h0.151c0.894,0.674,1.889,1.209,2.984,1.605
			c1.095,0.396,2.145,0.596,3.15,0.596c1.246,0,2.22-0.201,2.924-0.604c0.703-0.401,1.055-1.034,1.055-1.898
			c0-0.663-0.191-1.166-0.573-1.508c-0.382-0.341-1.115-0.633-2.201-0.874c-0.402-0.091-0.927-0.196-1.575-0.316
			c-0.648-0.12-1.239-0.251-1.771-0.392c-1.477-0.393-2.524-0.967-3.143-1.726s-0.927-1.69-0.927-2.796
			c0-0.693,0.143-1.347,0.429-1.96c0.287-0.612,0.721-1.16,1.304-1.643c0.563-0.472,1.279-0.847,2.148-1.123
			s1.841-0.414,2.917-0.414c1.004,0,2.022,0.123,3.052,0.369s1.886,0.545,2.57,0.896v3.029h-0.151
			c-0.723-0.532-1.603-0.981-2.637-1.349c-1.035-0.366-2.05-0.55-3.044-0.55c-1.035,0-1.909,0.198-2.623,0.595
			c-0.714,0.397-1.07,0.987-1.07,1.771c0,0.693,0.216,1.216,0.648,1.567c0.422,0.352,1.105,0.638,2.05,0.859
			c0.522,0.12,1.108,0.241,1.756,0.361c0.648,0.12,1.188,0.231,1.621,0.332c1.316,0.301,2.331,0.818,3.044,1.552
			C138.074,958.476,138.431,959.46,138.431,960.686z"/>
		<path style="fill:#1A5436;" d="M166.785,948.704l-9.827,23.044h-3.03l3.135-7.023l-6.707-16.021h3.075l5.169,12.479l5.215-12.479
			H166.785z"/>
		<path style="fill:#1A5436;" d="M184.014,957.129c0,2.743-0.704,4.908-2.11,6.496s-3.291,2.381-5.652,2.381
			c-2.381,0-4.273-0.793-5.674-2.381c-1.402-1.588-2.103-3.753-2.103-6.496s0.701-4.911,2.103-6.504
			c1.401-1.592,3.293-2.389,5.674-2.389c2.361,0,4.245,0.797,5.652,2.389C183.311,952.218,184.014,954.386,184.014,957.129z
			 M181.09,957.129c0-2.181-0.427-3.801-1.281-4.86c-0.854-1.061-2.04-1.591-3.557-1.591c-1.537,0-2.73,0.53-3.58,1.591
			c-0.849,1.06-1.273,2.68-1.273,4.86c0,2.11,0.427,3.71,1.281,4.8c0.854,1.091,2.044,1.636,3.572,1.636
			c1.507,0,2.69-0.54,3.549-1.62C180.661,960.864,181.09,959.259,181.09,957.129z"/>
		<path style="fill:#1A5436;" d="M201.801,965.539h-2.833v-1.869c-0.955,0.754-1.869,1.331-2.743,1.733
			c-0.874,0.401-1.838,0.603-2.894,0.603c-1.769,0-3.145-0.54-4.13-1.62s-1.477-2.665-1.477-4.755v-10.927h2.833v9.585
			c0,0.854,0.04,1.585,0.121,2.193c0.081,0.607,0.251,1.128,0.513,1.56c0.271,0.442,0.623,0.764,1.055,0.965
			c0.432,0.201,1.06,0.302,1.884,0.302c0.733,0,1.535-0.191,2.404-0.573s1.681-0.869,2.434-1.462v-12.569h2.833V965.539z"/>
		<path style="fill:#1A5436;" d="M241.685,965.539h-2.833v-9.586c0-0.724-0.033-1.422-0.098-2.095
			c-0.065-0.673-0.204-1.211-0.415-1.613c-0.231-0.432-0.563-0.758-0.995-0.979c-0.432-0.221-1.055-0.331-1.869-0.331
			c-0.793,0-1.587,0.198-2.381,0.595c-0.793,0.397-1.587,0.902-2.381,1.515c0.03,0.231,0.055,0.5,0.076,0.807
			c0.02,0.307,0.03,0.61,0.03,0.912v10.776h-2.833v-9.586c0-0.743-0.033-1.449-0.098-2.117c-0.065-0.668-0.204-1.203-0.415-1.605
			c-0.231-0.432-0.563-0.756-0.995-0.972c-0.432-0.217-1.055-0.324-1.869-0.324c-0.774,0-1.55,0.19-2.329,0.572
			s-1.555,0.869-2.329,1.462v12.57h-2.833v-16.835h2.833v1.868c0.884-0.733,1.766-1.306,2.646-1.718
			c0.879-0.412,1.816-0.618,2.811-0.618c1.146,0,2.118,0.241,2.917,0.724s1.394,1.15,1.786,2.005
			c1.146-0.965,2.19-1.661,3.135-2.088s1.954-0.641,3.029-0.641c1.849,0,3.213,0.561,4.092,1.681
			c0.879,1.12,1.319,2.686,1.319,4.694V965.539z"/>
		<path style="fill:#1A5436;" d="M259.667,965.539h-2.818v-1.794c-0.251,0.171-0.59,0.41-1.018,0.716
			c-0.427,0.307-0.841,0.551-1.243,0.731c-0.473,0.231-1.015,0.424-1.628,0.58c-0.613,0.155-1.332,0.233-2.155,0.233
			c-1.517,0-2.803-0.502-3.858-1.507c-1.055-1.005-1.583-2.286-1.583-3.844c0-1.275,0.274-2.308,0.821-3.097
			c0.548-0.789,1.329-1.409,2.344-1.861c1.025-0.452,2.256-0.759,3.693-0.92c1.437-0.16,2.979-0.281,4.627-0.361v-0.438
			c0-0.643-0.113-1.176-0.339-1.598s-0.55-0.753-0.972-0.994c-0.402-0.231-0.884-0.387-1.447-0.468
			c-0.563-0.08-1.15-0.12-1.763-0.12c-0.744,0-1.573,0.098-2.487,0.294c-0.915,0.195-1.859,0.479-2.833,0.852h-0.151v-2.879
			c0.552-0.15,1.351-0.316,2.396-0.497c1.045-0.182,2.075-0.271,3.09-0.271c1.185,0,2.218,0.098,3.097,0.294
			c0.879,0.195,1.64,0.53,2.283,1.002c0.633,0.463,1.115,1.061,1.447,1.794s0.498,1.643,0.498,2.728V965.539z M256.849,961.395
			v-4.688c-0.864,0.05-1.882,0.126-3.052,0.226c-1.17,0.101-2.098,0.246-2.781,0.438c-0.814,0.231-1.472,0.59-1.974,1.077
			c-0.503,0.487-0.754,1.158-0.754,2.013c0,0.964,0.292,1.69,0.875,2.178c0.583,0.487,1.472,0.73,2.667,0.73
			c0.995,0,1.904-0.193,2.728-0.58C255.382,962.401,256.146,961.937,256.849,961.395z"/>
		<path style="fill:#1A5436;" d="M278.886,948.704l-9.827,23.044h-3.03l3.135-7.023l-6.707-16.021h3.075l5.169,12.479l5.215-12.479
			H278.886z"/>
		<path style="fill:#1A5436;" d="M307.149,956.993c0,1.407-0.199,2.673-0.596,3.798c-0.397,1.126-0.932,2.07-1.605,2.834
			c-0.713,0.794-1.497,1.389-2.351,1.786c-0.854,0.396-1.793,0.595-2.818,0.595c-0.955,0-1.789-0.113-2.502-0.339
			c-0.714-0.227-1.417-0.53-2.11-0.912l-0.181,0.784h-2.653v-23.452h2.833v8.38c0.794-0.652,1.638-1.188,2.532-1.604
			c0.894-0.417,1.899-0.626,3.014-0.626c1.99,0,3.56,0.764,4.71,2.291S307.149,954.21,307.149,956.993z M304.225,957.068
			c0-2.01-0.332-3.534-0.995-4.574s-1.733-1.56-3.21-1.56c-0.824,0-1.658,0.179-2.502,0.535c-0.844,0.356-1.628,0.816-2.352,1.379
			v9.646c0.804,0.362,1.495,0.613,2.073,0.754c0.578,0.141,1.233,0.211,1.967,0.211c1.567,0,2.796-0.515,3.685-1.545
			S304.225,959.269,304.225,957.068z"/>
		<path style="fill:#1A5436;" d="M325.102,957.415h-12.404c0,1.035,0.156,1.937,0.467,2.705c0.312,0.77,0.739,1.399,1.281,1.892
			c0.522,0.482,1.143,0.845,1.861,1.086c0.718,0.24,1.51,0.361,2.374,0.361c1.146,0,2.298-0.229,3.459-0.686
			c1.16-0.457,1.987-0.907,2.479-1.35h0.151v3.09c-0.955,0.402-1.929,0.739-2.924,1.01c-0.995,0.271-2.04,0.407-3.135,0.407
			c-2.793,0-4.974-0.756-6.541-2.269c-1.567-1.512-2.351-3.659-2.351-6.443c0-2.753,0.751-4.938,2.253-6.556
			c1.502-1.618,3.479-2.427,5.931-2.427c2.271,0,4.021,0.663,5.252,1.989c1.23,1.326,1.846,3.211,1.846,5.652V957.415z
			 M322.344,955.245c-0.01-1.487-0.384-2.638-1.123-3.452c-0.739-0.813-1.861-1.221-3.369-1.221c-1.517,0-2.726,0.447-3.625,1.342
			c-0.899,0.895-1.409,2.005-1.53,3.331H322.344z"/>
		<path style="fill:#1A5436;" d="M342.183,945.886h-3.195v-2.939h3.195V945.886z M342.001,965.539h-2.833v-16.835h2.833V965.539z"/>
		<path style="fill:#1A5436;" d="M361.129,965.539h-2.833v-9.586c0-0.773-0.046-1.5-0.136-2.178
			c-0.091-0.679-0.257-1.208-0.498-1.59c-0.251-0.422-0.612-0.736-1.085-0.942s-1.085-0.309-1.839-0.309
			c-0.773,0-1.582,0.19-2.427,0.572c-0.844,0.382-1.652,0.869-2.426,1.462v12.57h-2.834v-16.835h2.834v1.868
			c0.884-0.733,1.798-1.306,2.743-1.718c0.944-0.412,1.914-0.618,2.908-0.618c1.818,0,3.205,0.548,4.16,1.643
			c0.954,1.096,1.432,2.673,1.432,4.732V965.539z"/>
		<path style="fill:#1A5436;" d="M374.771,965.388c-0.533,0.142-1.113,0.257-1.741,0.347c-0.628,0.091-1.188,0.136-1.681,0.136
			c-1.718,0-3.024-0.462-3.918-1.387c-0.895-0.924-1.342-2.406-1.342-4.445v-8.953h-1.914v-2.381h1.914v-4.839h2.833v4.839h5.849
			v2.381h-5.849v7.672c0,0.884,0.021,1.574,0.061,2.072c0.04,0.497,0.181,0.962,0.422,1.394c0.221,0.402,0.525,0.696,0.912,0.882
			c0.387,0.187,0.978,0.279,1.771,0.279c0.463,0,0.944-0.068,1.447-0.204c0.502-0.135,0.864-0.248,1.085-0.339h0.151V965.388z"/>
		<path style="fill:#1A5436;" d="M391.729,957.415h-12.403c0,1.035,0.155,1.937,0.467,2.705c0.312,0.77,0.738,1.399,1.281,1.892
			c0.522,0.482,1.143,0.845,1.861,1.086c0.719,0.24,1.51,0.361,2.374,0.361c1.146,0,2.298-0.229,3.459-0.686
			c1.16-0.457,1.986-0.907,2.479-1.35h0.15v3.09c-0.955,0.402-1.93,0.739-2.924,1.01c-0.995,0.271-2.04,0.407-3.135,0.407
			c-2.794,0-4.974-0.756-6.541-2.269c-1.568-1.512-2.352-3.659-2.352-6.443c0-2.753,0.751-4.938,2.253-6.556
			s3.479-2.427,5.931-2.427c2.271,0,4.021,0.663,5.253,1.989c1.23,1.326,1.846,3.211,1.846,5.652V957.415z M388.971,955.245
			c-0.01-1.487-0.384-2.638-1.123-3.452c-0.738-0.813-1.861-1.221-3.368-1.221c-1.518,0-2.726,0.447-3.625,1.342
			s-1.409,2.005-1.529,3.331H388.971z"/>
		<path style="fill:#1A5436;" d="M405.974,951.793h-0.15c-0.422-0.1-0.832-0.173-1.229-0.218c-0.396-0.046-0.866-0.068-1.409-0.068
			c-0.874,0-1.718,0.193-2.532,0.58c-0.813,0.388-1.598,0.888-2.351,1.5v11.952h-2.834v-16.835h2.834v2.486
			c1.125-0.904,2.117-1.545,2.977-1.922s1.735-0.564,2.63-0.564c0.492,0,0.849,0.013,1.07,0.037
			c0.221,0.025,0.552,0.073,0.994,0.144V951.793z"/>
		<path style="fill:#1A5436;" d="M422.178,957.415h-12.403c0,1.035,0.155,1.937,0.467,2.705c0.312,0.77,0.738,1.399,1.281,1.892
			c0.522,0.482,1.143,0.845,1.861,1.086c0.719,0.24,1.51,0.361,2.374,0.361c1.146,0,2.298-0.229,3.459-0.686
			c1.16-0.457,1.986-0.907,2.479-1.35h0.15v3.09c-0.955,0.402-1.93,0.739-2.924,1.01c-0.995,0.271-2.04,0.407-3.135,0.407
			c-2.794,0-4.974-0.756-6.541-2.269c-1.568-1.512-2.352-3.659-2.352-6.443c0-2.753,0.751-4.938,2.253-6.556
			s3.479-2.427,5.931-2.427c2.271,0,4.021,0.663,5.253,1.989c1.23,1.326,1.846,3.211,1.846,5.652V957.415z M419.42,955.245
			c-0.01-1.487-0.384-2.638-1.123-3.452c-0.738-0.813-1.861-1.221-3.368-1.221c-1.518,0-2.726,0.447-3.625,1.342
			s-1.409,2.005-1.529,3.331H419.42z"/>
		<path style="fill:#1A5436;" d="M437.945,960.686c0,1.537-0.636,2.799-1.906,3.783c-1.271,0.984-3.007,1.477-5.207,1.477
			c-1.246,0-2.39-0.147-3.43-0.444c-1.04-0.296-1.911-0.62-2.614-0.972v-3.181h0.15c0.895,0.674,1.889,1.209,2.984,1.605
			c1.095,0.396,2.145,0.596,3.149,0.596c1.246,0,2.221-0.201,2.925-0.604c0.703-0.401,1.055-1.034,1.055-1.898
			c0-0.663-0.191-1.166-0.573-1.508c-0.382-0.341-1.115-0.633-2.2-0.874c-0.402-0.091-0.927-0.196-1.575-0.316
			c-0.647-0.12-1.238-0.251-1.771-0.392c-1.478-0.393-2.524-0.967-3.143-1.726s-0.927-1.69-0.927-2.796
			c0-0.693,0.143-1.347,0.43-1.96c0.286-0.612,0.721-1.16,1.304-1.643c0.562-0.472,1.278-0.847,2.147-1.123s1.841-0.414,2.916-0.414
			c1.005,0,2.022,0.123,3.053,0.369c1.029,0.246,1.886,0.545,2.569,0.896v3.029h-0.15c-0.724-0.532-1.604-0.981-2.638-1.349
			c-1.035-0.366-2.05-0.55-3.045-0.55c-1.035,0-1.909,0.198-2.622,0.595c-0.714,0.397-1.07,0.987-1.07,1.771
			c0,0.693,0.216,1.216,0.648,1.567c0.422,0.352,1.104,0.638,2.05,0.859c0.522,0.12,1.107,0.241,1.756,0.361
			c0.647,0.12,1.188,0.231,1.62,0.332c1.316,0.301,2.331,0.818,3.044,1.552C437.589,958.476,437.945,959.46,437.945,960.686z"/>
		<path style="fill:#1A5436;" d="M450.186,965.388c-0.533,0.142-1.113,0.257-1.741,0.347c-0.628,0.091-1.188,0.136-1.681,0.136
			c-1.718,0-3.024-0.462-3.918-1.387c-0.895-0.924-1.342-2.406-1.342-4.445v-8.953h-1.914v-2.381h1.914v-4.839h2.833v4.839h5.849
			v2.381h-5.849v7.672c0,0.884,0.021,1.574,0.061,2.072c0.04,0.497,0.181,0.962,0.422,1.394c0.221,0.402,0.525,0.696,0.912,0.882
			c0.387,0.187,0.978,0.279,1.771,0.279c0.463,0,0.944-0.068,1.447-0.204c0.502-0.135,0.864-0.248,1.085-0.339h0.151V965.388z"/>
		<path style="fill:#1A5436;" d="M467.143,957.415h-12.403c0,1.035,0.155,1.937,0.467,2.705c0.312,0.77,0.738,1.399,1.281,1.892
			c0.522,0.482,1.143,0.845,1.861,1.086c0.719,0.24,1.51,0.361,2.374,0.361c1.146,0,2.298-0.229,3.459-0.686
			c1.16-0.457,1.986-0.907,2.479-1.35h0.15v3.09c-0.955,0.402-1.93,0.739-2.924,1.01c-0.995,0.271-2.04,0.407-3.135,0.407
			c-2.794,0-4.974-0.756-6.541-2.269c-1.568-1.512-2.352-3.659-2.352-6.443c0-2.753,0.751-4.938,2.253-6.556
			s3.479-2.427,5.931-2.427c2.271,0,4.021,0.663,5.253,1.989c1.23,1.326,1.846,3.211,1.846,5.652V957.415z M464.385,955.245
			c-0.01-1.487-0.384-2.638-1.123-3.452c-0.738-0.813-1.861-1.221-3.368-1.221c-1.518,0-2.726,0.447-3.625,1.342
			s-1.409,2.005-1.529,3.331H464.385z"/>
		<path style="fill:#1A5436;" d="M484.538,965.539h-2.834v-1.764c-0.813,0.703-1.663,1.251-2.547,1.643
			c-0.884,0.393-1.844,0.588-2.879,0.588c-2.01,0-3.604-0.773-4.785-2.321c-1.181-1.547-1.771-3.692-1.771-6.436
			c0-1.427,0.203-2.697,0.61-3.812s0.957-2.065,1.65-2.849c0.683-0.764,1.479-1.347,2.389-1.749
			c0.909-0.401,1.852-0.603,2.826-0.603c0.884,0,1.668,0.093,2.351,0.279c0.684,0.186,1.402,0.475,2.155,0.866v-7.295h2.834V965.539
			z M481.704,961.395v-9.661c-0.764-0.342-1.446-0.578-2.05-0.709c-0.603-0.13-1.261-0.195-1.974-0.195
			c-1.588,0-2.824,0.553-3.708,1.657c-0.884,1.105-1.326,2.673-1.326,4.703c0,1.999,0.342,3.519,1.024,4.559
			c0.684,1.04,1.779,1.561,3.286,1.561c0.804,0,1.617-0.179,2.441-0.535S480.991,961.957,481.704,961.395z"/>
		<path style="fill:#1A5436;" d="M502.899,945.886h-3.195v-2.939h3.195V945.886z M502.719,965.539h-2.834v-16.835h2.834V965.539z"/>
		<path style="fill:#1A5436;" d="M521.847,965.539h-2.833v-9.586c0-0.773-0.046-1.5-0.136-2.178
			c-0.091-0.679-0.257-1.208-0.498-1.59c-0.251-0.422-0.612-0.736-1.085-0.942s-1.085-0.309-1.839-0.309
			c-0.773,0-1.582,0.19-2.427,0.572c-0.844,0.382-1.652,0.869-2.426,1.462v12.57h-2.834v-16.835h2.834v1.868
			c0.884-0.733,1.798-1.306,2.743-1.718c0.944-0.412,1.914-0.618,2.908-0.618c1.818,0,3.205,0.548,4.16,1.643
			c0.954,1.096,1.432,2.673,1.432,4.732V965.539z"/>
		<path style="fill:#1A5436;" d="M532.776,952.999h-3.603v-4.295h3.603V952.999z M532.776,965.539h-3.603v-4.296h3.603V965.539z"/>
	</g>
	<rect x="380.889" y="590.423" style="fill:#FFFFFF;stroke:#C4C4C4;stroke-miterlimit:10;" width="330.457" height="311.359"/>
	<rect x="31.835" y="590.423" style="fill:#FFFFFF;stroke:#C4C4C4;stroke-miterlimit:10;" width="330.457" height="311.359"/>
	<line style="fill:none;stroke:#7F7E7E;stroke-miterlimit:10;" x1="31.835" y1="901.783" x2="362.292" y2="901.783"/>
	<line style="fill:none;stroke:#7F7E7E;stroke-miterlimit:10;" x1="380.889" y1="901.783" x2="711.346" y2="901.783"/>
	<g>
		<path d="M91.983,797.875h-8.018v19.789H80.98v-19.789h-8.018v-2.652h19.021V797.875z"/>
		<path d="M113.01,817.664h-3.873l-7.506-8.922h-4.205v8.922h-2.984v-22.441h6.285c1.356,0,2.487,0.088,3.391,0.264
			s1.718,0.489,2.441,0.941c0.814,0.513,1.449,1.158,1.907,1.938c0.457,0.778,0.686,1.766,0.686,2.961
			c0,1.618-0.407,2.972-1.221,4.062c-0.814,1.09-1.934,1.911-3.361,2.464L113.01,817.664z M106.032,801.537
			c0-0.643-0.113-1.213-0.339-1.71c-0.226-0.498-0.601-0.917-1.123-1.259c-0.432-0.291-0.945-0.495-1.537-0.61
			c-0.593-0.115-1.292-0.174-2.095-0.174h-3.512v8.471h3.014c0.944,0,1.769-0.083,2.472-0.249c0.703-0.165,1.301-0.475,1.793-0.927
			c0.452-0.422,0.786-0.906,1.002-1.454C105.924,803.077,106.032,802.382,106.032,801.537z"/>
		<path d="M133.042,817.664h-3.18l-2.2-6.255h-9.707l-2.2,6.255h-3.029l8.168-22.441h3.979L133.042,817.664z M126.743,808.848
			l-3.934-11.018l-3.949,11.018H126.743z"/>
		<path d="M153.015,817.664h-3.692l-10.641-20.075v20.075h-2.789v-22.441h4.627l9.706,18.327v-18.327h2.788V817.664z"/>
		<path d="M174.735,811.259c0,0.874-0.203,1.738-0.61,2.593c-0.407,0.854-0.977,1.577-1.71,2.17
			c-0.804,0.644-1.741,1.146-2.811,1.507c-1.07,0.362-2.358,0.543-3.866,0.543c-1.618,0-3.072-0.15-4.363-0.452
			c-1.292-0.302-2.605-0.748-3.941-1.342v-3.737h0.211c1.135,0.944,2.447,1.673,3.934,2.186c1.487,0.512,2.883,0.769,4.19,0.769
			c1.849,0,3.288-0.347,4.318-1.04c1.03-0.693,1.545-1.618,1.545-2.773c0-0.994-0.244-1.728-0.731-2.2
			c-0.488-0.473-1.229-0.839-2.223-1.101c-0.753-0.2-1.57-0.366-2.449-0.497c-0.879-0.131-1.811-0.296-2.796-0.497
			c-1.989-0.423-3.464-1.144-4.423-2.163c-0.96-1.02-1.439-2.349-1.439-3.986c0-1.879,0.793-3.419,2.381-4.62
			c1.587-1.2,3.602-1.801,6.044-1.801c1.577,0,3.024,0.15,4.34,0.452s2.482,0.674,3.497,1.115v3.527h-0.211
			c-0.854-0.724-1.977-1.324-3.368-1.802c-1.392-0.477-2.816-0.716-4.273-0.716c-1.598,0-2.881,0.332-3.851,0.995
			s-1.454,1.518-1.454,2.562c0,0.934,0.241,1.668,0.723,2.2s1.332,0.939,2.547,1.221c0.643,0.141,1.557,0.312,2.743,0.513
			s2.19,0.406,3.015,0.617c1.667,0.442,2.924,1.11,3.768,2.005C174.313,808.4,174.735,809.651,174.735,811.259z"/>
		<path d="M193.306,797.875h-11.349v6.33h9.751v2.652h-9.751v10.807h-2.984v-22.441h14.333V797.875z"/>
		<path d="M210.941,817.664h-14.786v-22.441h14.786v2.652H199.14v6.149h11.801v2.652H199.14v8.335h11.801V817.664z"/>
		<path d="M233.687,817.664h-3.873l-7.506-8.922h-4.205v8.922h-2.984v-22.441h6.285c1.356,0,2.487,0.088,3.391,0.264
			s1.718,0.489,2.441,0.941c0.814,0.513,1.449,1.158,1.907,1.938c0.457,0.778,0.686,1.766,0.686,2.961
			c0,1.618-0.407,2.972-1.221,4.062c-0.814,1.09-1.934,1.911-3.361,2.464L233.687,817.664z M226.708,801.537
			c0-0.643-0.113-1.213-0.339-1.71c-0.226-0.498-0.601-0.917-1.123-1.259c-0.432-0.291-0.945-0.495-1.537-0.61
			c-0.593-0.115-1.292-0.174-2.095-0.174h-3.512v8.471h3.014c0.944,0,1.769-0.083,2.472-0.249c0.703-0.165,1.301-0.475,1.793-0.927
			c0.452-0.422,0.786-0.906,1.002-1.454C226.601,803.077,226.708,802.382,226.708,801.537z"/>
		<path d="M90.31,834.916H78.961v6.33h9.751v2.652h-9.751v10.807h-2.984v-22.442H90.31V834.916z"/>
		<path d="M110.056,845.692c0,1.627-0.178,3.047-0.535,4.257c-0.356,1.211-0.942,2.219-1.756,3.022
			c-0.773,0.764-1.678,1.321-2.713,1.673c-1.035,0.352-2.241,0.527-3.617,0.527c-1.407,0-2.632-0.186-3.677-0.558
			c-1.045-0.371-1.924-0.919-2.638-1.643c-0.814-0.824-1.399-1.818-1.756-2.984c-0.357-1.165-0.535-2.598-0.535-4.295v-13.43h2.984
			v13.58c0,1.216,0.083,2.176,0.249,2.879c0.166,0.703,0.445,1.341,0.836,1.914c0.442,0.653,1.042,1.146,1.801,1.477
			c0.758,0.332,1.67,0.497,2.735,0.497c1.075,0,1.99-0.163,2.743-0.489s1.356-0.821,1.809-1.484
			c0.392-0.573,0.671-1.229,0.836-1.967c0.166-0.739,0.249-1.655,0.249-2.751v-13.655h2.984V845.692z"/>
		<path d="M132.319,854.705h-3.692l-10.641-20.076v20.076h-2.789v-22.442h4.627l9.706,18.327v-18.327h2.788V854.705z"/>
		<path d="M156.692,843.507c0,2.04-0.445,3.889-1.334,5.546c-0.889,1.658-2.072,2.944-3.549,3.858
			c-1.025,0.633-2.168,1.091-3.429,1.372c-1.261,0.281-2.921,0.422-4.981,0.422h-5.667v-22.442h5.607
			c2.19,0,3.931,0.158,5.222,0.475c1.291,0.317,2.384,0.752,3.278,1.304c1.527,0.955,2.718,2.227,3.572,3.813
			C156.265,839.442,156.692,841.326,156.692,843.507z M153.572,843.461c0-1.758-0.307-3.24-0.919-4.445
			c-0.613-1.206-1.528-2.155-2.743-2.849c-0.884-0.503-1.824-0.852-2.818-1.048s-2.186-0.294-3.572-0.294h-2.803v17.317h2.803
			c1.437,0,2.69-0.105,3.761-0.316c1.07-0.211,2.052-0.603,2.946-1.176c1.115-0.713,1.952-1.652,2.509-2.818
			C153.293,846.667,153.572,845.21,153.572,843.461z"/>
		<path d="M177.267,848.3c0,0.874-0.203,1.738-0.61,2.592c-0.407,0.854-0.977,1.578-1.71,2.171
			c-0.804,0.643-1.741,1.145-2.811,1.507c-1.07,0.361-2.358,0.542-3.866,0.542c-1.618,0-3.072-0.15-4.363-0.452
			c-1.292-0.301-2.605-0.748-3.941-1.341v-3.738h0.211c1.135,0.945,2.447,1.673,3.934,2.186c1.487,0.513,2.883,0.769,4.19,0.769
			c1.849,0,3.288-0.347,4.318-1.04c1.03-0.693,1.545-1.617,1.545-2.772c0-0.995-0.244-1.729-0.731-2.201
			c-0.488-0.472-1.229-0.839-2.223-1.1c-0.753-0.201-1.57-0.367-2.449-0.498c-0.879-0.13-1.811-0.296-2.796-0.497
			c-1.989-0.422-3.464-1.143-4.423-2.163c-0.96-1.02-1.439-2.349-1.439-3.986c0-1.879,0.793-3.418,2.381-4.619
			c1.587-1.2,3.602-1.801,6.044-1.801c1.577,0,3.024,0.15,4.34,0.452c1.316,0.301,2.482,0.673,3.497,1.115v3.526h-0.211
			c-0.854-0.724-1.977-1.323-3.368-1.801c-1.392-0.478-2.816-0.716-4.273-0.716c-1.598,0-2.881,0.331-3.851,0.994
			s-1.454,1.518-1.454,2.562c0,0.935,0.241,1.668,0.723,2.2c0.482,0.533,1.332,0.939,2.547,1.221
			c0.643,0.142,1.557,0.312,2.743,0.513s2.19,0.407,3.015,0.618c1.667,0.442,2.924,1.11,3.768,2.005
			C176.845,845.44,177.267,846.691,177.267,848.3z"/>
	</g>
	<g>
		<g>
			<path d="M439.669,797.8c0.914,1.005,1.615,2.235,2.103,3.692s0.73,3.11,0.73,4.959s-0.248,3.504-0.746,4.966
				c-0.497,1.462-1.193,2.681-2.087,3.655c-0.925,1.015-2.018,1.778-3.278,2.291c-1.261,0.512-2.7,0.769-4.318,0.769
				c-1.577,0-3.012-0.262-4.303-0.784s-2.389-1.281-3.293-2.275c-0.904-0.995-1.601-2.216-2.088-3.663
				c-0.487-1.446-0.73-3.1-0.73-4.958c0-1.829,0.241-3.469,0.724-4.921s1.186-2.695,2.109-3.73c0.885-0.984,1.982-1.738,3.294-2.261
				c1.311-0.522,2.74-0.784,4.287-0.784c1.607,0,3.053,0.264,4.334,0.792C437.687,796.074,438.774,796.825,439.669,797.8z
				 M439.397,806.451c0-2.914-0.653-5.162-1.959-6.745c-1.307-1.582-3.09-2.374-5.351-2.374c-2.281,0-4.072,0.792-5.373,2.374
				c-1.302,1.583-1.952,3.831-1.952,6.745c0,2.944,0.663,5.197,1.989,6.76c1.327,1.562,3.105,2.344,5.336,2.344
				s4.006-0.781,5.328-2.344C438.736,811.648,439.397,809.396,439.397,806.451z"/>
			<path d="M461.359,802.005c0,0.994-0.174,1.917-0.521,2.766s-0.831,1.585-1.454,2.208c-0.773,0.773-1.688,1.354-2.743,1.74
				c-1.055,0.388-2.387,0.581-3.994,0.581h-2.983v8.364h-2.984v-22.441h6.089c1.346,0,2.486,0.113,3.421,0.339
				c0.935,0.227,1.764,0.58,2.487,1.062c0.854,0.573,1.515,1.286,1.981,2.141C461.126,799.618,461.359,800.698,461.359,802.005z
				 M458.255,802.08c0-0.773-0.136-1.447-0.407-2.02c-0.271-0.573-0.684-1.04-1.236-1.401c-0.482-0.312-1.032-0.535-1.65-0.671
				c-0.617-0.136-1.399-0.204-2.344-0.204h-2.953v8.968h2.517c1.206,0,2.186-0.107,2.938-0.323c0.754-0.217,1.367-0.561,1.839-1.033
				c0.473-0.481,0.807-0.989,1.003-1.521C458.156,803.341,458.255,802.743,458.255,802.08z"/>
			<path d="M479.522,817.664h-14.785v-22.441h14.785v2.652h-11.801v6.149h11.801v2.652h-11.801v8.335h11.801V817.664z"/>
			<path d="M500.821,817.664h-3.692l-10.641-20.075v20.075H483.7v-22.441h4.627l9.706,18.327v-18.327h2.788V817.664z"/>
			<path d="M533.455,810.762c0,1.115-0.211,2.1-0.633,2.954c-0.422,0.854-0.989,1.558-1.703,2.109
				c-0.844,0.663-1.771,1.136-2.78,1.417s-2.294,0.422-3.851,0.422h-7.958v-22.441h6.646c1.638,0,2.863,0.061,3.678,0.181
				c0.813,0.12,1.592,0.372,2.336,0.754c0.823,0.432,1.422,0.987,1.793,1.665c0.372,0.679,0.558,1.49,0.558,2.435
				c0,1.064-0.271,1.972-0.813,2.72c-0.543,0.749-1.266,1.35-2.17,1.802v0.12c1.517,0.312,2.713,0.978,3.587,1.997
				S533.455,809.204,533.455,810.762z M528.437,800.648c0-0.543-0.09-1-0.271-1.372c-0.181-0.371-0.472-0.673-0.874-0.904
				c-0.473-0.271-1.045-0.439-1.718-0.505c-0.674-0.064-1.508-0.098-2.502-0.098h-3.557v6.48h3.857c0.935,0,1.679-0.047,2.231-0.143
				c0.552-0.096,1.064-0.294,1.537-0.596c0.472-0.301,0.807-0.69,1.002-1.168C528.339,801.867,528.437,801.302,528.437,800.648z
				 M530.351,810.882c0-0.904-0.136-1.622-0.407-2.155c-0.271-0.532-0.764-0.984-1.477-1.356c-0.482-0.251-1.067-0.414-1.756-0.489
				c-0.688-0.076-1.524-0.113-2.51-0.113h-4.687v8.35h3.948c1.307,0,2.376-0.067,3.21-0.203s1.518-0.385,2.05-0.746
				c0.562-0.393,0.975-0.839,1.236-1.342C530.22,812.324,530.351,811.676,530.351,810.882z"/>
			<path d="M554.83,817.664h-3.181l-2.2-6.255h-9.706l-2.201,6.255h-3.029l8.169-22.441h3.979L554.83,817.664z M548.529,808.848
				l-3.934-11.018l-3.948,11.018H548.529z"/>
			<path d="M574.801,817.664h-3.692l-10.641-20.075v20.075h-2.788v-22.441h4.627l9.706,18.327v-18.327h2.788V817.664z"/>
			<path d="M598.256,817.664h-3.874l-8.877-9.992l-2.23,2.381v7.611h-2.984v-22.441h2.984v11.711l10.896-11.711h3.617l-10.022,10.55
				L598.256,817.664z"/>
			<path d="M440.634,854.705h-3.181l-2.2-6.255h-9.706l-2.201,6.255h-3.029l8.169-22.442h3.979L440.634,854.705z M434.333,845.888
				l-3.934-11.018l-3.948,11.018H434.333z"/>
			<path d="M460.816,853.077c-0.553,0.241-1.053,0.467-1.499,0.678c-0.447,0.212-1.033,0.433-1.756,0.664
				c-0.613,0.19-1.279,0.354-1.997,0.489c-0.719,0.136-1.51,0.203-2.374,0.203c-1.628,0-3.107-0.229-4.438-0.686
				c-1.332-0.457-2.489-1.173-3.475-2.147c-0.964-0.954-1.718-2.168-2.261-3.64c-0.542-1.472-0.813-3.183-0.813-5.132
				c0-1.849,0.261-3.502,0.783-4.959s1.276-2.688,2.261-3.692c0.955-0.975,2.107-1.719,3.459-2.23
				c1.352-0.513,2.852-0.769,4.499-0.769c1.206,0,2.409,0.146,3.61,0.437c1.2,0.292,2.534,0.804,4.001,1.537v3.542h-0.226
				c-1.236-1.034-2.462-1.788-3.678-2.261c-1.216-0.472-2.517-0.708-3.903-0.708c-1.136,0-2.158,0.184-3.067,0.55
				c-0.909,0.367-1.721,0.938-2.435,1.711c-0.693,0.754-1.233,1.706-1.62,2.856s-0.58,2.479-0.58,3.986
				c0,1.577,0.214,2.934,0.641,4.069s0.978,2.06,1.65,2.772c0.703,0.744,1.524,1.294,2.464,1.65
				c0.939,0.357,1.932,0.535,2.978,0.535c1.437,0,2.782-0.246,4.039-0.738c1.256-0.492,2.432-1.23,3.526-2.216h0.211V853.077z"/>
			<path d="M481.813,853.077c-0.553,0.241-1.053,0.467-1.499,0.678c-0.447,0.212-1.033,0.433-1.756,0.664
				c-0.613,0.19-1.279,0.354-1.997,0.489c-0.719,0.136-1.51,0.203-2.374,0.203c-1.628,0-3.107-0.229-4.438-0.686
				c-1.332-0.457-2.489-1.173-3.475-2.147c-0.964-0.954-1.718-2.168-2.261-3.64c-0.542-1.472-0.813-3.183-0.813-5.132
				c0-1.849,0.261-3.502,0.783-4.959s1.276-2.688,2.261-3.692c0.955-0.975,2.107-1.719,3.459-2.23
				c1.352-0.513,2.852-0.769,4.499-0.769c1.206,0,2.409,0.146,3.61,0.437c1.2,0.292,2.534,0.804,4.001,1.537v3.542h-0.226
				c-1.236-1.034-2.462-1.788-3.678-2.261c-1.216-0.472-2.517-0.708-3.903-0.708c-1.136,0-2.158,0.184-3.067,0.55
				c-0.909,0.367-1.721,0.938-2.435,1.711c-0.693,0.754-1.233,1.706-1.62,2.856s-0.58,2.479-0.58,3.986
				c0,1.577,0.214,2.934,0.641,4.069s0.978,2.06,1.65,2.772c0.703,0.744,1.524,1.294,2.464,1.65
				c0.939,0.357,1.932,0.535,2.978,0.535c1.437,0,2.782-0.246,4.039-0.738c1.256-0.492,2.432-1.23,3.526-2.216h0.211V853.077z"/>
			<path d="M502.208,834.84c0.914,1.005,1.615,2.236,2.103,3.693s0.73,3.109,0.73,4.958s-0.248,3.505-0.746,4.967
				c-0.497,1.462-1.193,2.68-2.087,3.654c-0.925,1.016-2.018,1.778-3.278,2.291s-2.7,0.769-4.318,0.769
				c-1.577,0-3.012-0.261-4.303-0.783s-2.389-1.281-3.293-2.276c-0.904-0.994-1.601-2.216-2.088-3.662
				c-0.487-1.447-0.73-3.1-0.73-4.959c0-1.828,0.241-3.469,0.724-4.921c0.482-1.451,1.186-2.695,2.109-3.73
				c0.885-0.984,1.982-1.737,3.294-2.261c1.311-0.521,2.74-0.783,4.287-0.783c1.607,0,3.053,0.264,4.334,0.791
				C500.226,833.114,501.313,833.866,502.208,834.84z M501.937,843.491c0-2.913-0.653-5.162-1.959-6.744
				c-1.307-1.583-3.09-2.374-5.351-2.374c-2.281,0-4.072,0.791-5.373,2.374c-1.302,1.582-1.952,3.831-1.952,6.744
				c0,2.944,0.663,5.197,1.989,6.76c1.327,1.562,3.105,2.344,5.336,2.344s4.006-0.781,5.328-2.344
				C501.275,848.688,501.937,846.436,501.937,843.491z"/>
			<path d="M526.114,845.692c0,1.627-0.179,3.047-0.535,4.257c-0.357,1.211-0.942,2.219-1.756,3.022
				c-0.774,0.764-1.679,1.321-2.713,1.673c-1.035,0.352-2.241,0.527-3.617,0.527c-1.407,0-2.633-0.186-3.678-0.558
				c-1.045-0.371-1.925-0.919-2.638-1.643c-0.813-0.824-1.399-1.818-1.756-2.984c-0.356-1.165-0.535-2.598-0.535-4.295v-13.43h2.984
				v13.58c0,1.216,0.083,2.176,0.249,2.879c0.165,0.703,0.444,1.341,0.836,1.914c0.442,0.653,1.043,1.146,1.801,1.477
				c0.759,0.332,1.671,0.497,2.736,0.497c1.075,0,1.989-0.163,2.743-0.489c0.753-0.326,1.356-0.821,1.809-1.484
				c0.392-0.573,0.67-1.229,0.836-1.967c0.166-0.739,0.249-1.655,0.249-2.751v-13.655h2.984V845.692z"/>
			<path d="M548.376,854.705h-3.692l-10.641-20.076v20.076h-2.788v-22.442h4.627l9.706,18.327v-18.327h2.788V854.705z"/>
			<path d="M569.796,834.916h-8.019v19.789h-2.983v-19.789h-8.019v-2.653h19.021V834.916z"/>
		</g>
	</g>
	<circle style="fill:#8700DF;" cx="134.316" cy="690.914" r="55.189"/>
	<g>
		<g>
			<g>
				<path style="fill:#FFFFFF;" d="M135.029,719.594c-1.503-3.006-3.006-6.013-4.51-9.019c-1.618-3.235-2.989-7.854-5.319-10.639
					c-1.645-1.966-4.876-3.105-7.073-4.361c-3.273-1.87-6.545-3.74-9.818-5.61c0,0.863,0,1.727,0,2.59
					c17.843-8.339,35.685-16.679,53.528-25.018c-0.684-0.684-1.368-1.368-2.052-2.052c-9.115,18.036-18.23,36.073-27.346,54.109
					c-0.869,1.719,1.718,3.24,2.59,1.514c9.115-18.036,18.23-36.073,27.346-54.109c0.703-1.39-0.692-2.688-2.052-2.052
					c-17.843,8.339-35.685,16.679-53.528,25.018c-1.04,0.486-0.914,2.068,0,2.59c3.135,1.791,6.27,3.583,9.405,5.374
					c1.694,0.968,3.388,1.936,5.083,2.904c0.479,0.274,1.17,0.53,1.582,0.904c0.509,0.462-0.761-0.874-0.099,0.023
					c2.163,2.934,3.535,7.07,5.164,10.328c1.503,3.006,3.006,6.013,4.51,9.019C133.303,722.835,135.891,721.317,135.029,719.594z"/>
			</g>
		</g>
		<g>
			<g>
				<path style="fill:#FFFFFF;" d="M124.904,701.629c12.412-11.443,24.824-22.885,37.237-34.328
					c1.423-1.311-0.703-3.429-2.121-2.121c-12.412,11.443-24.824,22.885-37.237,34.327
					C121.36,700.82,123.486,702.937,124.904,701.629L124.904,701.629z"/>
			</g>
		</g>
	</g>
	<circle style="fill:#00B41B;" cx="474.206" cy="691.094" r="54.281"/>
	<g>
		<g>
			<g>
				<path style="fill:#FFFFFF;" d="M472.706,652.76c0,25.556,0,51.112,0,76.668c0,1.93,3,1.934,3,0c0-25.556,0-51.112,0-76.668
					C475.706,650.83,472.706,650.826,472.706,652.76L472.706,652.76z"/>
			</g>
		</g>
		<g>
			<g>
				<path style="fill:#FFFFFF;" d="M512.54,689.594c-25.556,0-51.112,0-76.668,0c-1.93,0-1.934,3,0,3c25.556,0,51.112,0,76.668,0
					C514.47,692.594,514.473,689.594,512.54,689.594L512.54,689.594z"/>
			</g>
		</g>
	</g>
	<rect x="382.11" y="255.049" style="fill:#FFFFFF;stroke:#C4C4C4;stroke-miterlimit:10;" width="329.237" height="310.209"/>
	<rect x="31.835" y="255.049" style="fill:#FFFFFF;stroke:#C4C4C4;stroke-miterlimit:10;" width="329.237" height="310.209"/>
	<line style="fill:none;stroke:#7F7E7E;stroke-miterlimit:10;" x1="31.835" y1="565.258" x2="361.071" y2="565.258"/>
	<line style="fill:none;stroke:#7F7E7E;stroke-miterlimit:10;" x1="382.11" y1="565.258" x2="711.346" y2="565.258"/>
	<g>
		<path d="M94.704,470.293c0,2.032-0.443,3.874-1.329,5.526c-0.886,1.651-2.064,2.934-3.536,3.844
			c-1.021,0.631-2.16,1.087-3.416,1.366c-1.257,0.281-2.911,0.421-4.963,0.421h-5.646v-22.359H81.4c2.182,0,3.917,0.158,5.203,0.474
			c1.286,0.315,2.375,0.748,3.266,1.299c1.521,0.951,2.708,2.218,3.559,3.799C94.278,466.244,94.704,468.121,94.704,470.293z
			 M91.596,470.248c0-1.752-0.306-3.229-0.916-4.43c-0.611-1.201-1.522-2.147-2.733-2.838c-0.881-0.501-1.817-0.849-2.808-1.044
			s-2.177-0.293-3.559-0.293h-2.793v17.254h2.793c1.431,0,2.68-0.105,3.747-0.315c1.066-0.21,2.044-0.601,2.936-1.171
			c1.111-0.711,1.944-1.646,2.5-2.809C91.318,473.441,91.596,471.99,91.596,470.248z"/>
		<path d="M113.686,481.45h-14.73v-22.359h14.73v2.644h-11.757v6.126h11.757v2.644h-11.757v8.304h11.757V481.45z"/>
		<path d="M132.474,465.849c0,0.991-0.173,1.909-0.518,2.755c-0.345,0.847-0.829,1.58-1.449,2.2
			c-0.771,0.771-1.682,1.35-2.733,1.734c-1.051,0.386-2.377,0.578-3.979,0.578h-2.973v8.334h-2.973v-22.359h6.066
			c1.341,0,2.478,0.113,3.409,0.338c0.931,0.226,1.757,0.578,2.478,1.059c0.851,0.571,1.509,1.282,1.975,2.133
			S132.474,464.547,132.474,465.849z M129.38,465.924c0-0.771-0.135-1.441-0.406-2.013c-0.27-0.57-0.681-1.036-1.231-1.396
			c-0.48-0.31-1.029-0.533-1.645-0.668s-1.394-0.203-2.335-0.203h-2.943v8.935h2.507c1.202,0,2.178-0.107,2.928-0.322
			c0.751-0.215,1.361-0.558,1.832-1.028c0.471-0.48,0.803-0.986,0.999-1.517C129.283,467.18,129.38,466.584,129.38,465.924z"/>
		<path d="M152.507,461.659c0.911,1.001,1.609,2.228,2.095,3.679c0.486,1.452,0.729,3.099,0.729,4.94s-0.248,3.491-0.743,4.947
			c-0.496,1.457-1.189,2.671-2.08,3.642c-0.921,1.012-2.01,1.772-3.266,2.282c-1.257,0.511-2.69,0.767-4.302,0.767
			c-1.572,0-3.001-0.261-4.287-0.781c-1.287-0.521-2.38-1.276-3.281-2.268c-0.901-0.991-1.594-2.207-2.08-3.648
			c-0.486-1.441-0.728-3.088-0.728-4.94c0-1.822,0.24-3.456,0.721-4.902c0.48-1.447,1.181-2.686,2.102-3.717
			c0.881-0.981,1.975-1.732,3.281-2.253c1.306-0.521,2.73-0.78,4.272-0.78c1.602,0,3.041,0.263,4.317,0.788
			S151.616,460.688,152.507,461.659z M152.237,470.278c0-2.903-0.651-5.144-1.952-6.72c-1.302-1.577-3.078-2.365-5.331-2.365
			c-2.273,0-4.057,0.788-5.354,2.365c-1.296,1.576-1.944,3.816-1.944,6.72c0,2.934,0.661,5.178,1.982,6.734s3.093,2.335,5.316,2.335
			c2.222,0,3.992-0.778,5.308-2.335C151.578,475.456,152.237,473.212,152.237,470.278z"/>
		<path d="M175.739,475.068c0,0.871-0.203,1.732-0.608,2.583c-0.406,0.851-0.974,1.571-1.705,2.162
			c-0.801,0.641-1.734,1.142-2.8,1.502c-1.066,0.36-2.35,0.54-3.852,0.54c-1.612,0-3.061-0.15-4.347-0.45
			c-1.287-0.301-2.596-0.746-3.927-1.337v-3.724h0.21c1.131,0.941,2.438,1.667,3.919,2.178c1.481,0.51,2.873,0.766,4.174,0.766
			c1.842,0,3.276-0.346,4.302-1.036c1.026-0.691,1.539-1.612,1.539-2.763c0-0.991-0.243-1.722-0.728-2.192
			c-0.486-0.471-1.224-0.836-2.215-1.097c-0.751-0.2-1.564-0.365-2.44-0.495s-1.804-0.296-2.785-0.496
			c-1.982-0.42-3.452-1.139-4.407-2.154c-0.957-1.017-1.434-2.34-1.434-3.972c0-1.872,0.791-3.406,2.373-4.603
			c1.582-1.196,3.589-1.795,6.021-1.795c1.571,0,3.013,0.15,4.324,0.451c1.312,0.3,2.473,0.67,3.484,1.11v3.515h-0.21
			c-0.851-0.722-1.97-1.319-3.356-1.795s-2.806-0.713-4.257-0.713c-1.592,0-2.871,0.33-3.837,0.991
			c-0.966,0.66-1.449,1.511-1.449,2.553c0,0.931,0.24,1.661,0.721,2.191c0.48,0.531,1.326,0.937,2.538,1.217
			c0.641,0.141,1.552,0.311,2.733,0.511s2.182,0.405,3.003,0.615c1.662,0.44,2.913,1.106,3.754,1.997
			C175.318,472.221,175.739,473.467,175.739,475.068z"/>
		<path d="M187.844,481.45h-8.83v-2.282h2.928v-17.794h-2.928v-2.283h8.83v2.283h-2.928v17.794h2.928V481.45z"/>
		<path d="M208.298,461.734h-7.988v19.716h-2.973v-19.716h-7.989v-2.644h18.95V461.734z"/>
		<path d="M95.725,518.354h-2.973v-19.266l-6.217,13.109h-1.772l-6.171-13.109v19.266h-2.778v-22.359h4.054l5.961,12.449
			l5.766-12.449h4.129V518.354z"/>
		<path d="M117.846,498.562c0.911,1.001,1.609,2.228,2.095,3.679c0.486,1.452,0.729,3.099,0.729,4.94s-0.248,3.491-0.743,4.947
			c-0.496,1.457-1.189,2.671-2.08,3.642c-0.921,1.012-2.01,1.772-3.266,2.282c-1.257,0.511-2.69,0.767-4.302,0.767
			c-1.572,0-3.001-0.261-4.287-0.781c-1.287-0.521-2.38-1.276-3.281-2.268c-0.901-0.991-1.594-2.207-2.08-3.648
			c-0.486-1.441-0.728-3.088-0.728-4.94c0-1.822,0.24-3.456,0.721-4.902c0.48-1.447,1.181-2.686,2.102-3.717
			c0.881-0.981,1.975-1.732,3.281-2.253c1.306-0.521,2.73-0.78,4.272-0.78c1.602,0,3.041,0.263,4.317,0.788
			S116.955,497.592,117.846,498.562z M117.576,507.182c0-2.903-0.651-5.144-1.952-6.72c-1.302-1.577-3.078-2.365-5.331-2.365
			c-2.273,0-4.057,0.788-5.354,2.365c-1.296,1.576-1.944,3.816-1.944,6.72c0,2.934,0.661,5.178,1.982,6.734s3.093,2.335,5.316,2.335
			c2.222,0,3.992-0.778,5.308-2.335C116.917,512.359,117.576,510.115,117.576,507.182z"/>
		<path d="M141.889,518.354h-3.679l-10.601-20.001v20.001h-2.778v-22.359h4.61l9.67,18.26v-18.26h2.778V518.354z"/>
		<path d="M162.012,518.354h-14.73v-22.359h14.73v2.644h-11.757v6.126h11.757v2.644h-11.757v8.304h11.757V518.354z"/>
		<path d="M182,495.994l-7.868,12.554v9.806h-2.973v-9.49l-7.898-12.869h3.288l6.112,10.001l6.171-10.001H182z"/>
	</g>
	<g>
		<g>
			<path d="M450.028,459.091l-5.812,22.359h-3.349l-4.7-18.56l-4.595,18.56H428.3l-5.916-22.359h3.048l4.7,18.591l4.625-18.591
				h3.019l4.67,18.771l4.67-18.771H450.028z"/>
			<path d="M461.742,481.45h-8.829v-2.282h2.928v-17.794h-2.928v-2.283h8.829v2.283h-2.928v17.794h2.928V481.45z"/>
			<path d="M482.196,461.734h-7.988v19.716h-2.974v-19.716h-7.988v-2.644h18.95V461.734z"/>
			<path d="M501.749,481.45h-2.973v-10.946h-11.157v10.946h-2.974v-22.359h2.974v8.77h11.157v-8.77h2.973V481.45z"/>
			<path d="M526.093,470.293c0,2.032-0.443,3.874-1.329,5.526c-0.886,1.651-2.064,2.934-3.536,3.844
				c-1.021,0.631-2.16,1.087-3.416,1.366c-1.257,0.281-2.911,0.421-4.963,0.421h-5.646v-22.359h5.586
				c2.183,0,3.917,0.158,5.203,0.474s2.375,0.748,3.267,1.299c1.521,0.951,2.707,2.218,3.559,3.799
				C525.667,466.244,526.093,468.121,526.093,470.293z M522.984,470.248c0-1.752-0.306-3.229-0.916-4.43s-1.521-2.147-2.733-2.838
				c-0.881-0.501-1.816-0.849-2.808-1.044s-2.178-0.293-3.559-0.293h-2.793v17.254h2.793c1.432,0,2.681-0.105,3.746-0.315
				c1.066-0.21,2.045-0.601,2.936-1.171c1.111-0.711,1.945-1.646,2.501-2.809C522.706,473.441,522.984,471.99,522.984,470.248z"/>
			<path d="M548.844,481.45h-3.859l-7.478-8.89h-4.189v8.89h-2.974v-22.359h6.262c1.352,0,2.478,0.088,3.379,0.264
				c0.901,0.175,1.712,0.487,2.433,0.938c0.811,0.51,1.444,1.153,1.899,1.929c0.455,0.776,0.684,1.76,0.684,2.951
				c0,1.611-0.405,2.961-1.217,4.047c-0.811,1.086-1.927,1.904-3.349,2.455L548.844,481.45z M541.892,465.383
				c0-0.641-0.113-1.209-0.338-1.704c-0.226-0.495-0.599-0.913-1.119-1.254c-0.431-0.29-0.94-0.493-1.531-0.608
				c-0.591-0.114-1.286-0.173-2.087-0.173h-3.499v8.439h3.003c0.941,0,1.762-0.083,2.463-0.248c0.7-0.165,1.296-0.473,1.787-0.923
				c0.45-0.421,0.783-0.903,0.998-1.449C541.784,466.917,541.892,466.224,541.892,465.383z"/>
			<path d="M568.802,481.45h-3.168l-2.192-6.231h-9.671l-2.192,6.231h-3.018l8.139-22.359h3.964L568.802,481.45z M562.525,472.666
				l-3.919-10.977l-3.935,10.977H562.525z"/>
			<path d="M596.915,459.091l-5.812,22.359h-3.349l-4.7-18.56l-4.595,18.56h-3.273l-5.916-22.359h3.048l4.7,18.591l4.625-18.591
				h3.019l4.67,18.771l4.67-18.771H596.915z"/>
			<path d="M438.285,498.638h-11.307v6.307h9.715v2.643h-9.715v10.767h-2.974v-22.359h14.28V498.638z"/>
			<path d="M457.958,509.374c0,1.622-0.178,3.036-0.533,4.242s-0.938,2.21-1.749,3.011c-0.771,0.761-1.672,1.316-2.703,1.666
				c-1.031,0.351-2.232,0.526-3.604,0.526c-1.401,0-2.623-0.186-3.664-0.556s-1.917-0.916-2.628-1.637
				c-0.811-0.821-1.394-1.812-1.749-2.974s-0.533-2.588-0.533-4.279v-13.38h2.974v13.53c0,1.211,0.082,2.167,0.247,2.868
				c0.165,0.7,0.443,1.336,0.834,1.906c0.44,0.651,1.038,1.142,1.794,1.472c0.756,0.331,1.664,0.496,2.726,0.496
				c1.071,0,1.982-0.163,2.732-0.488c0.751-0.325,1.352-0.818,1.803-1.479c0.39-0.57,0.668-1.224,0.833-1.959
				c0.165-0.736,0.248-1.649,0.248-2.74v-13.605h2.973V509.374z"/>
			<path d="M480.14,518.354h-3.679l-10.602-20.001v20.001h-2.778v-22.359h4.61l9.67,18.26v-18.26h2.778V518.354z"/>
			<path d="M504.423,507.196c0,2.032-0.443,3.874-1.329,5.526c-0.886,1.651-2.064,2.934-3.536,3.844
				c-1.021,0.631-2.16,1.087-3.416,1.366c-1.257,0.281-2.911,0.421-4.963,0.421h-5.646v-22.359h5.586
				c2.183,0,3.917,0.158,5.203,0.474s2.375,0.748,3.267,1.299c1.521,0.951,2.707,2.218,3.559,3.799
				C503.997,503.147,504.423,505.024,504.423,507.196z M501.314,507.151c0-1.752-0.306-3.229-0.916-4.43s-1.521-2.147-2.733-2.838
				c-0.881-0.501-1.816-0.849-2.808-1.044s-2.178-0.293-3.559-0.293h-2.793v17.254h2.793c1.432,0,2.681-0.105,3.746-0.315
				c1.066-0.21,2.045-0.601,2.936-1.171c1.111-0.711,1.945-1.646,2.501-2.809C501.036,510.345,501.314,508.894,501.314,507.151z"/>
			<path d="M524.922,511.972c0,0.871-0.203,1.732-0.608,2.583s-0.974,1.571-1.704,2.162c-0.802,0.641-1.734,1.142-2.801,1.502
				s-2.35,0.54-3.852,0.54c-1.612,0-3.062-0.15-4.348-0.45c-1.286-0.301-2.595-0.746-3.927-1.337v-3.724h0.211
				c1.131,0.941,2.438,1.667,3.919,2.178c1.481,0.51,2.873,0.766,4.175,0.766c1.842,0,3.275-0.346,4.302-1.036
				c1.026-0.691,1.539-1.612,1.539-2.763c0-0.991-0.243-1.722-0.729-2.192s-1.224-0.836-2.215-1.097
				c-0.751-0.2-1.564-0.365-2.439-0.495c-0.877-0.13-1.805-0.296-2.786-0.496c-1.981-0.42-3.451-1.139-4.407-2.154
				c-0.956-1.017-1.434-2.34-1.434-3.972c0-1.872,0.791-3.406,2.372-4.603c1.582-1.196,3.589-1.795,6.021-1.795
				c1.572,0,3.014,0.15,4.325,0.451c1.311,0.3,2.473,0.67,3.483,1.11v3.515h-0.21c-0.852-0.722-1.97-1.319-3.356-1.795
				s-2.806-0.713-4.257-0.713c-1.592,0-2.871,0.33-3.837,0.991c-0.966,0.66-1.449,1.511-1.449,2.553c0,0.931,0.24,1.661,0.721,2.191
				c0.481,0.531,1.327,0.937,2.538,1.217c0.641,0.141,1.552,0.311,2.733,0.511c1.181,0.2,2.182,0.405,3.003,0.615
				c1.661,0.44,2.913,1.106,3.754,1.997C524.501,509.124,524.922,510.37,524.922,511.972z"/>
		</g>
	</g>
	<circle style="fill:#1A5436;" cx="475.082" cy="354.753" r="55.179"/>
	<g>
		<path style="fill:#FFFFFF;" d="M460.239,372.201l1.993-2.886c0.549-0.756,1.374-1.1,2.13-0.481
			c0.344,0.344,4.466,3.779,9.139,4.673c0-5.223,0.068-10.307,0.068-15.529c-6.871-2.68-12.849-6.046-13.33-13.673
			c-0.068-0.825,0-1.649,0.069-2.474c0.48-4.878,4.466-10.513,13.261-11.406v-2.199c0-0.755,0.618-1.305,1.306-1.305h0.687
			c0.688,0,1.306,0.55,1.306,1.305v2.268c6.047,0.481,10.513,3.504,11.131,3.917c0.55,0.344,1.031,1.306,0.413,2.336
			c-1.237,1.786-2.474,4.397-4.123,3.298c-0.412-0.206-3.917-2.542-7.421-3.367c0,5.016-0.068,10.101-0.068,15.116
			c7.146,3.023,13.879,6.803,13.879,15.048c0,7.146-5.702,12.299-13.948,12.917v7.146c0,0.824-0.687,1.236-1.442,1.236
			s-1.786-0.206-1.786-1.236v-7.146c-7.284-0.55-11.888-4.397-12.918-5.359C460.033,373.85,459.483,373.369,460.239,372.201z
			 M473.501,336.54c-4.673,0.481-6.597,3.642-6.597,5.978c0,3.504,2.336,5.84,6.597,7.902V336.54z M483.464,367.46
			c0-3.298-2.268-5.703-6.665-7.971v14.292C480.578,373.3,483.464,370.689,483.464,367.46z"/>
	</g>
	<g>
		<g>
			<path style="fill:#FFFFFF;stroke:#1A5436;stroke-width:3;stroke-miterlimit:10;" d="M507.938,298.53
				c-0.989-0.334-2.102-0.334-3.078,0c0.482-0.235,1.001-0.371,1.545-0.383C506.937,298.159,507.456,298.307,507.938,298.53z"/>
		</g>
		<g>
			<path style="fill:#FFFFFF;stroke:#1A5436;stroke-width:3;stroke-miterlimit:10;" d="M513.921,315.764
				c-1.112-1.113-2.225-2.225-3.338-3.338v27.075c0,5.39-8.37,5.378-8.37,0v-27.075l-3.338,3.338c-3.82,3.82-9.742-2.102-5.922-5.91
				c3.437-3.437,6.849-6.861,10.286-10.298c0.062-0.062,0.136-0.136,0.198-0.198c0.915-0.915,1.966-1.273,2.967-1.212
				c-0.544,0.012-1.063,0.148-1.545,0.383c0.977-0.334,2.089-0.334,3.078,0c-0.482-0.223-1.001-0.371-1.533-0.383
				c1.001-0.062,2.04,0.297,2.955,1.212c0.062,0.062,0.136,0.136,0.198,0.198c3.437,3.437,6.849,6.861,10.286,10.298
				C523.664,313.662,517.742,319.584,513.921,315.764z"/>
			<path style="fill:#FFFFFF;stroke:#1A5436;stroke-width:3;stroke-miterlimit:10;" d="M507.938,298.53
				c-0.989-0.334-2.102-0.334-3.078,0c0.482-0.235,1.001-0.371,1.545-0.383C506.937,298.159,507.456,298.307,507.938,298.53z"/>
		</g>
	</g>
	<circle style="fill:#1A5436;" cx="133.743" cy="355.47" r="55.179"/>
	<g>
		<g>
			<path style="fill:#FFFFFF;" d="M118.9,372.918l1.993-2.886c0.55-0.756,1.375-1.1,2.13-0.481c0.344,0.344,4.466,3.779,9.139,4.673
				c0-5.223,0.069-10.307,0.069-15.529c-6.871-2.68-12.849-6.046-13.33-13.673c-0.068-0.825,0-1.649,0.069-2.474
				c0.481-4.878,4.466-10.513,13.261-11.406v-2.199c0-0.755,0.618-1.305,1.305-1.305h0.688c0.687,0,1.305,0.55,1.305,1.305v2.268
				c6.047,0.481,10.513,3.504,11.131,3.917c0.549,0.344,1.031,1.306,0.412,2.336c-1.237,1.786-2.474,4.397-4.123,3.298
				c-0.412-0.206-3.917-2.542-7.421-3.367c0,5.016-0.068,10.101-0.068,15.116c7.146,3.023,13.879,6.803,13.879,15.048
				c0,7.146-5.703,12.299-13.948,12.917v7.146c0,0.824-0.687,1.236-1.443,1.236s-1.787-0.206-1.787-1.236v-7.146
				c-7.283-0.55-11.887-4.397-12.917-5.359C118.694,374.566,118.145,374.086,118.9,372.918z M132.162,337.257
				c-4.672,0.481-6.596,3.642-6.596,5.978c0,3.504,2.336,5.84,6.596,7.902V337.257z M142.125,368.177
				c0-3.298-2.267-5.703-6.665-7.971v14.292C139.239,374.017,142.125,371.406,142.125,368.177z"/>
		</g>
	</g>
	<g>
		<g>
			<path style="fill:#FFFFFF;stroke:#1A5436;stroke-width:3;stroke-miterlimit:10;" d="M163.52,343.865
				c0.989,0.334,2.102,0.334,3.078,0c-0.482,0.235-1.001,0.371-1.545,0.383C164.522,344.236,164.003,344.088,163.52,343.865z"/>
		</g>
		<g>
			<path style="fill:#FFFFFF;stroke:#1A5436;stroke-width:3;stroke-miterlimit:10;" d="M157.537,326.632
				c1.113,1.113,2.225,2.225,3.338,3.338v-27.075c0-5.39,8.37-5.378,8.37,0v27.075l3.338-3.338c3.82-3.82,9.742,2.102,5.922,5.91
				c-3.437,3.437-6.849,6.861-10.286,10.298c-0.062,0.062-0.136,0.136-0.198,0.198c-0.915,0.915-1.966,1.273-2.967,1.212
				c0.544-0.012,1.063-0.148,1.545-0.383c-0.977,0.334-2.089,0.334-3.078,0c0.482,0.223,1.001,0.371,1.533,0.383
				c-1.001,0.062-2.04-0.297-2.955-1.212c-0.062-0.062-0.136-0.136-0.198-0.198c-3.437-3.437-6.849-6.861-10.286-10.298
				C147.795,328.733,153.717,322.811,157.537,326.632z"/>
			<path style="fill:#FFFFFF;stroke:#1A5436;stroke-width:3;stroke-miterlimit:10;" d="M163.52,343.865
				c0.989,0.334,2.102,0.334,3.078,0c-0.482,0.235-1.001,0.371-1.545,0.383C164.522,344.236,164.003,344.088,163.52,343.865z"/>
		</g>
	</g>
	<rect x="382.11" y="997.828" style="fill:#FFFFFF;stroke:#C4C4C4;stroke-miterlimit:10;" width="329.237" height="310.209"/>
	<rect x="31.835" y="997.828" style="fill:#FFFFFF;stroke:#C4C4C4;stroke-miterlimit:10;" width="329.237" height="310.209"/>
	<line style="fill:none;stroke:#7F7E7E;stroke-miterlimit:10;" x1="31.835" y1="1308.037" x2="361.071" y2="1308.037"/>
	<line style="fill:none;stroke:#7F7E7E;stroke-miterlimit:10;" x1="382.11" y1="1308.037" x2="711.346" y2="1308.037"/>
	<g>
		<g>
			<path d="M92.555,1204.366c0.914,1.005,1.615,2.235,2.103,3.692c0.487,1.457,0.731,3.109,0.731,4.958
				c0,1.85-0.249,3.505-0.746,4.967c-0.498,1.462-1.193,2.681-2.087,3.654c-0.925,1.016-2.018,1.779-3.278,2.291
				c-1.261,0.513-2.7,0.769-4.318,0.769c-1.578,0-3.012-0.261-4.303-0.783s-2.389-1.281-3.293-2.276
				c-0.904-0.994-1.6-2.215-2.087-3.662c-0.488-1.447-0.731-3.1-0.731-4.959c0-1.828,0.241-3.469,0.723-4.921
				c0.482-1.451,1.186-2.694,2.11-3.729c0.884-0.985,1.982-1.738,3.293-2.261c1.312-0.522,2.741-0.784,4.288-0.784
				c1.607,0,3.052,0.264,4.333,0.791C90.573,1202.641,91.66,1203.392,92.555,1204.366z M92.283,1213.017
				c0-2.913-0.653-5.161-1.959-6.744s-3.089-2.374-5.35-2.374c-2.281,0-4.072,0.791-5.373,2.374
				c-1.302,1.583-1.952,3.831-1.952,6.744c0,2.944,0.663,5.198,1.99,6.76c1.326,1.562,3.104,2.344,5.335,2.344
				c2.23,0,4.006-0.781,5.328-2.344C91.623,1218.215,92.283,1215.961,92.283,1213.017z"/>
			<path d="M114.817,1204.441h-8.018v19.789h-2.984v-19.789h-8.018v-2.652h19.021V1204.441z"/>
			<path d="M134.443,1224.23h-2.984v-10.987H120.26v10.987h-2.984v-22.441h2.984v8.802h11.198v-8.802h2.984V1224.23z"/>
			<path d="M154.702,1224.23h-14.786v-22.441h14.786v2.652H142.9v6.149h11.801v2.652H142.9v8.335h11.801V1224.23z"/>
			<path d="M177.447,1224.23h-3.873l-7.506-8.923h-4.205v8.923h-2.984v-22.441h6.285c1.356,0,2.487,0.088,3.391,0.264
				s1.718,0.489,2.441,0.941c0.814,0.513,1.449,1.158,1.907,1.937c0.457,0.779,0.686,1.767,0.686,2.962
				c0,1.618-0.407,2.972-1.221,4.062c-0.814,1.091-1.934,1.912-3.361,2.465L177.447,1224.23z M170.469,1208.104
				c0-0.643-0.113-1.213-0.339-1.711c-0.226-0.497-0.601-0.916-1.123-1.258c-0.432-0.292-0.945-0.495-1.537-0.61
				c-0.593-0.115-1.292-0.174-2.095-0.174h-3.512v8.471h3.014c0.944,0,1.769-0.083,2.472-0.249c0.703-0.166,1.301-0.475,1.793-0.927
				c0.452-0.422,0.786-0.906,1.002-1.454C170.361,1209.644,170.469,1208.947,170.469,1208.104z"/>
		</g>
	</g>
	<g>
		<g>
			<path d="M431.929,1224.23h-8.862v-2.291h2.939v-17.86h-2.939v-2.29h8.862v2.29h-2.938v17.86h2.938V1224.23z"/>
			<path d="M453.574,1224.23h-3.692l-10.641-20.075v20.075h-2.788v-22.441h4.627l9.706,18.327v-18.327h2.788V1224.23z"/>
			<path d="M476.682,1201.789l-8.169,22.441h-3.979l-8.169-22.441h3.195l7.039,19.743l7.038-19.743H476.682z"/>
			<path d="M494.317,1224.23h-14.785v-22.441h14.785v2.652h-11.801v6.149h11.801v2.652h-11.801v8.335h11.801V1224.23z"/>
			<path d="M514.802,1217.825c0,0.874-0.204,1.738-0.61,2.592c-0.407,0.854-0.978,1.578-1.711,2.171
				c-0.804,0.643-1.741,1.146-2.811,1.507c-1.07,0.362-2.359,0.543-3.866,0.543c-1.618,0-3.072-0.151-4.363-0.452
				c-1.291-0.302-2.605-0.749-3.941-1.342v-3.737h0.211c1.136,0.944,2.446,1.673,3.934,2.185c1.487,0.513,2.884,0.77,4.19,0.77
				c1.849,0,3.288-0.347,4.317-1.04c1.03-0.693,1.545-1.618,1.545-2.773c0-0.995-0.243-1.729-0.73-2.2
				c-0.487-0.473-1.229-0.839-2.224-1.101c-0.753-0.201-1.569-0.366-2.448-0.497c-0.88-0.131-1.812-0.297-2.796-0.498
				c-1.99-0.422-3.465-1.143-4.424-2.162c-0.96-1.021-1.439-2.349-1.439-3.986c0-1.879,0.794-3.419,2.381-4.62
				c1.588-1.2,3.603-1.801,6.044-1.801c1.578,0,3.024,0.15,4.341,0.452s2.481,0.673,3.497,1.115v3.526h-0.211
				c-0.854-0.723-1.978-1.323-3.369-1.801s-2.815-0.716-4.272-0.716c-1.598,0-2.882,0.332-3.851,0.995
				c-0.97,0.663-1.455,1.517-1.455,2.562c0,0.935,0.241,1.668,0.724,2.201c0.482,0.532,1.331,0.939,2.547,1.221
				c0.644,0.141,1.558,0.312,2.743,0.512c1.186,0.201,2.19,0.407,3.015,0.618c1.668,0.442,2.924,1.11,3.768,2.005
				C514.38,1214.967,514.802,1216.218,514.802,1217.825z"/>
			<path d="M535.045,1204.441h-8.019v19.789h-2.983v-19.789h-8.019v-2.652h19.021V1204.441z"/>
			<path d="M545.416,1224.23h-8.862v-2.291h2.939v-17.86h-2.939v-2.29h8.862v2.29h-2.938v17.86h2.938V1224.23z"/>
			<path d="M567.062,1224.23h-3.692l-10.641-20.075v20.075h-2.788v-22.441h4.627l9.706,18.327v-18.327h2.788V1224.23z"/>
			<path d="M591.193,1222.572c-1.226,0.563-2.564,1.053-4.017,1.47s-2.856,0.626-4.213,0.626c-1.748,0-3.351-0.241-4.808-0.724
				s-2.697-1.206-3.723-2.171c-1.035-0.975-1.834-2.192-2.396-3.654s-0.844-3.173-0.844-5.132c0-3.588,1.047-6.418,3.143-8.493
				c2.095-2.075,4.971-3.112,8.628-3.112c1.276,0,2.58,0.153,3.911,0.46c1.332,0.307,2.766,0.826,4.304,1.56v3.542h-0.271
				c-0.312-0.241-0.764-0.558-1.356-0.95c-0.593-0.392-1.176-0.718-1.748-0.979c-0.693-0.311-1.48-0.57-2.359-0.776
				c-0.879-0.205-1.876-0.309-2.991-0.309c-2.513,0-4.499,0.807-5.961,2.419c-1.462,1.613-2.193,3.796-2.193,6.549
				c0,2.904,0.764,5.162,2.291,6.774c1.527,1.613,3.607,2.419,6.239,2.419c0.965,0,1.927-0.095,2.887-0.286
				c0.959-0.19,1.801-0.437,2.524-0.738v-5.501h-6.014v-2.623h8.968V1222.572z"/>
		</g>
	</g>
	<circle style="fill:#1A5436;" cx="475.082" cy="1097.533" r="55.179"/>
	<circle style="fill:#484C4A;" cx="133.743" cy="1098.25" r="55.179"/>
	<path style="fill:none;stroke:#FFFFFF;stroke-width:3;stroke-miterlimit:10;" d="M493.792,1087.085v30.75c0,1.657-1.343,3-3,3
		h-31.42c-1.657,0-3-1.343-3-3v-39.17c0-1.657,1.343-3,3-3h23L493.792,1087.085z"/>
	<g>
		<g>
			<path style="fill:#FFFFFF;" d="M465.082,1111.331c6.667,0,13.333,0,20,0c1.93,0,1.934-3,0-3c-6.667,0-13.333,0-20,0
				C463.152,1108.331,463.148,1111.331,465.082,1111.331L465.082,1111.331z"/>
		</g>
	</g>
	<g>
		<g>
			<path style="fill:#FFFFFF;" d="M465.082,1101.831c6.667,0,13.333,0,20,0c1.93,0,1.934-3,0-3c-6.667,0-13.333,0-20,0
				C463.152,1098.831,463.148,1101.831,465.082,1101.831L465.082,1101.831z"/>
		</g>
	</g>
	<g>
		<g>
			<path style="fill:#FFFFFF;" d="M480.872,1075.665c0,1.993,0,3.986,0,5.979c0,2.065-0.324,4.404,1.406,5.923
				c1.511,1.326,3.72,1.009,5.578,1.011c1.979,0.002,3.957,0.004,5.936,0.006c1.93,0.002,1.933-2.998,0-3
				c-1.473-0.002-2.946-0.003-4.419-0.005c-1.254-0.001-3.202,0.38-4.419-0.005c-1.79-0.567-1.082-3.992-1.082-5.27
				c0-1.547,0-3.094,0-4.641C483.872,1073.734,480.872,1073.731,480.872,1075.665L480.872,1075.665z"/>
		</g>
	</g>
	<g>
		<path style="fill:#FFFFFF;" d="M129.586,1097.574h2.268c1.512,0,2.862-0.24,4.054-0.724c1.191-0.483,2.199-1.139,3.023-1.966
			c0.825-0.828,1.454-1.805,1.89-2.933c0.435-1.126,0.653-2.333,0.653-3.622c0-2.758-0.79-4.919-2.371-6.482
			s-3.654-2.347-6.219-2.347c-2.336,0-4.226,0.493-5.669,1.478c-1.443,0.986-2.692,2.509-3.745,4.57l-3.985-2.062
			c1.145-2.747,2.874-4.809,5.188-6.184c2.313-1.375,5.051-2.062,8.212-2.062c2.015,0,3.859,0.32,5.532,0.962
			c1.671,0.642,3.103,1.535,4.295,2.68c1.19,1.146,2.106,2.521,2.749,4.123c0.641,1.604,0.962,3.391,0.962,5.36
			c0,1.833-0.298,3.517-0.893,5.051c-0.596,1.535-1.433,2.863-2.508,3.985c-1.077,1.123-2.371,2.027-3.883,2.715
			c-1.512,0.687-3.185,1.099-5.016,1.236v8.314h-4.535V1097.574z M131.785,1123c-0.962,0-1.81-0.344-2.542-1.031
			c-0.733-0.688-1.1-1.557-1.1-2.611c0-1.053,0.366-1.935,1.1-2.646c0.732-0.71,1.581-1.065,2.542-1.065s1.809,0.355,2.542,1.065
			c0.732,0.711,1.1,1.593,1.1,2.646c0,1.055-0.367,1.924-1.1,2.611C133.594,1122.656,132.747,1123,131.785,1123z"/>
	</g>
</g>
<g id="carrier" style="display:none;">
	<g style="display:inline;">
		<g>
			<path style="fill:#FFFFFF;" d="M223.599,18.736c4.382,0,8.375,1.635,11.438,4.315l2.127-2.381
				c-3.627-3.19-8.364-5.421-13.565-5.421c-5.194,0-9.924,2.224-13.547,5.408l2.123,2.381
				C215.235,20.362,219.222,18.736,223.599,18.736z"/>
			<path style="fill:#FFFFFF;" d="M223.599,25.602c2.626,0,5.026,0.964,6.877,2.557l2.248-2.518
				c-2.447-2.131-5.633-3.524-9.126-3.524c-3.488,0-6.67,1.388-9.117,3.513l2.246,2.52
				C218.579,26.564,220.976,25.602,223.599,25.602z"/>
			<path style="fill:#FFFFFF;" d="M228.226,30.678c-1.253-1.055-2.866-1.785-4.627-1.785c-1.761,0-3.371,0.728-4.622,1.778
				l4.622,5.187L228.226,30.678z"/>
		</g>
		<path style="fill-rule:evenodd;clip-rule:evenodd;fill:#FFFFFF;" d="M717.264,22.027c2.184,0,3.389,1.769,3.389,3.954
			s-1.205,3.954-3.389,3.954V22.027z"/>
		<path style="fill:#FFFFFF;" d="M712.745,16.379c1.246,0,2.259,1.014,2.259,2.259v14.685c0,1.246-1.013,2.259-2.259,2.259h-44.056
			c-1.246,0-2.259-1.014-2.259-2.259V18.638c0-1.246,1.013-2.259,2.259-2.259H712.745L712.745,16.379z M712.745,15.249h-44.056
			c-1.871,0-3.389,1.518-3.389,3.389v14.685c0,1.871,1.518,3.389,3.389,3.389h44.056c1.871,0,3.389-1.518,3.389-3.389V18.638
			C716.134,16.767,714.616,15.249,712.745,15.249L712.745,15.249z"/>
		<path style="fill-rule:evenodd;clip-rule:evenodd;fill:#FFFFFF;" d="M669.818,17.509h41.797c1.249,0,2.259,1.011,2.259,2.259
			v12.426c0,1.249-1.011,2.259-2.259,2.259h-41.797c-1.249,0-2.259-1.011-2.259-2.259V19.768
			C667.559,18.519,668.57,17.509,669.818,17.509z"/>
		<path style="fill-rule:evenodd;clip-rule:evenodd;fill:#FFFFFF;" d="M31.003,19.768c3.433,0,6.213,2.782,6.213,6.213
			s-2.78,6.213-6.213,6.213c-3.431,0-6.213-2.782-6.213-6.213S27.572,19.768,31.003,19.768z"/>
		<path style="fill-rule:evenodd;clip-rule:evenodd;fill:#FFFFFF;" d="M46.818,19.768c3.433,0,6.213,2.782,6.213,6.213
			s-2.78,6.213-6.213,6.213c-3.431,0-6.213-2.782-6.213-6.213S43.387,19.768,46.818,19.768z"/>
		<path style="fill-rule:evenodd;clip-rule:evenodd;fill:#FFFFFF;" d="M62.633,19.768c3.433,0,6.213,2.782,6.213,6.213
			s-2.78,6.213-6.213,6.213c-3.431,0-6.213-2.782-6.213-6.213S59.202,19.768,62.633,19.768z"/>
		<path style="fill:#FFFFFF;" d="M78.448,19.768c-3.431,0-6.213,2.782-6.213,6.213s2.782,6.213,6.213,6.213
			c3.433,0,6.213-2.782,6.213-6.213S81.881,19.768,78.448,19.768L78.448,19.768z"/>
		<path style="fill:#FFFFFF;" d="M94.263,20.333c3.114,0,5.648,2.534,5.648,5.648s-2.534,5.648-5.648,5.648
			s-5.648-2.534-5.648-5.648S91.149,20.333,94.263,20.333L94.263,20.333z M94.263,19.768c-3.431,0-6.213,2.782-6.213,6.213
			s2.782,6.213,6.213,6.213c3.433,0,6.213-2.782,6.213-6.213S97.696,19.768,94.263,19.768L94.263,19.768z"/>
		<g>
			
				<text transform="matrix(1 0 0 1 109.5124 35.096)" style="fill:#FFFFFF; font-family:'SFUIDisplay-Regular'; font-size:27.1115px;">Carrier</text>
		</g>
		<g>
			
				<text transform="matrix(1 0 0 1 594.572 35.096)" style="fill:#FFFFFF; font-family:'SFUIDisplay-Regular'; font-size:27.1115px;">100%</text>
		</g>
		<g>
			
				<text transform="matrix(1 0 0 1 321.2863 35.096)" style="fill:#FFFFFF; font-family:'SFUIDisplay-Medium'; font-size:27.1115px;">11:11AM</text>
		</g>
	</g>
</g>
<g id="ai2html-settings">
	<rect x="-450" style="fill:none;" width="400" height="462"/>
	<text transform="matrix(1 0 0 1 -450 10.6499)" style="display:none;"><tspan x="0" y="0" style="display:inline; font-family:'MyriadPro-Regular'; font-size:15px;">ai2html-settings</tspan><tspan x="0" y="18" style="display:inline; font-family:'MyriadPro-Regular'; font-size:15px;">settings_version: 0.61</tspan><tspan x="0" y="36" style="display:inline; font-family:'MyriadPro-Regular'; font-size:15px;">image_format: svg</tspan><tspan x="0" y="54" style="display:inline; font-family:'MyriadPro-Regular'; font-size:15px;">responsiveness: fixed</tspan><tspan x="0" y="72" style="display:inline; font-family:'MyriadPro-Regular'; font-size:15px;">output: one-file</tspan><tspan x="0" y="90" style="display:inline; font-family:'MyriadPro-Regular'; font-size:15px;">html_output_path: /ai2html-output/</tspan><tspan x="0" y="108" style="display:inline; font-family:'MyriadPro-Regular'; font-size:15px;">html_output_extension: .html</tspan><tspan x="0" y="126" style="display:inline; font-family:'MyriadPro-Regular'; font-size:15px;">image_output_path: </tspan><tspan x="0" y="144" style="display:inline; font-family:'MyriadPro-Regular'; font-size:15px;">local_preview_template: </tspan><tspan x="0" y="162" style="display:inline; font-family:'MyriadPro-Regular'; font-size:15px;">png_number_of_colors: 128</tspan><tspan x="0" y="180" style="display:inline; font-family:'MyriadPro-Regular'; font-size:15px;">jpg_quality: 60</tspan><tspan x="0" y="198" style="display:inline; font-family:'MyriadPro-Regular'; font-size:15px;">headline: Ai Graphic Headline</tspan><tspan x="0" y="216" style="display:inline; font-family:'MyriadPro-Regular'; font-size:15px;">leadin: Introductory text here.</tspan><tspan x="0" y="234" style="display:inline; font-family:'MyriadPro-Regular'; font-size:15px;">notes: Notes: Text goes here.</tspan><tspan x="0" y="252" style="display:inline; font-family:'MyriadPro-Regular'; font-size:15px;">sources: Source: Name goes here.</tspan><tspan x="0" y="270" style="display:inline; font-family:'MyriadPro-Regular'; font-size:15px;">credit: By ai2html</tspan></text>
</g>
</svg>
