<?xml version="1.0" encoding="utf-8"?>
<!-- Generator: Adobe Illustrator 20.1.0, SVG Export Plug-In . SVG Version: 6.00 Build 0)  -->
<svg version="1.1" xmlns="http://www.w3.org/2000/svg" xmlns:xlink="http://www.w3.org/1999/xlink" x="0px" y="0px"
	 viewBox="0 0 750 1334" style="enable-background:new 0 0 750 1334;" xml:space="preserve">
<g id="background">
	<rect x="0.861" style="fill:#E5E5E5;" width="749.139" height="1334"/>
</g>
<g id="stuff">
	<line style="fill:none;" x1="251.596" y1="436.822" x2="251.596" y2="527.305"/>
	<line style="fill:none;" x1="500.543" y1="436.822" x2="500.543" y2="527.305"/>
	<line style="fill:#FFFFFF;" x1="251.596" y1="436.822" x2="251.596" y2="527.305"/>
	<line style="fill:#FFFFFF;" x1="500.543" y1="436.822" x2="500.543" y2="527.305"/>
	
		<rect x="56.406" y="788.625" style="fill:#1A5436;stroke:#666666;stroke-width:0.5;stroke-miterlimit:10;" width="642.354" height="100.996"/>
	
		<rect x="56.42" y="924.45" style="fill:none;stroke:#1A5436;stroke-width:2;stroke-miterlimit:10;" width="642.354" height="100.996"/>
	<g>
		<path style="fill:#FFFFFF;" d="M225.284,853.156H207.93v-23.992h17.354v4.641h-11.199v4.141h10.393v4.641h-10.393v5.93h11.199
			V853.156z"/>
		<path style="fill:#FFFFFF;" d="M249.893,853.156h-6.769l-3.866-5.418l-3.971,5.418h-6.632l7.138-9.059l-7.025-9.036h6.767
			l3.802,5.31l3.822-5.31h6.652l-7.041,8.913L249.893,853.156z"/>
		<path style="fill:#FFFFFF;" d="M259.854,832.483h-6.139v-4.399h6.139V832.483z M259.692,853.156h-5.817v-18.095h5.817V853.156z"/>
		<path style="fill:#FFFFFF;" d="M281.707,847.42c0,1.869-0.838,3.377-2.514,4.52c-1.676,1.145-3.969,1.717-6.88,1.717
			c-1.611,0-3.072-0.15-4.383-0.451s-2.363-0.634-3.158-0.999v-4.77h0.532c0.29,0.204,0.625,0.427,1.007,0.669
			s0.921,0.502,1.62,0.781c0.602,0.247,1.284,0.459,2.046,0.637s1.579,0.266,2.449,0.266c1.139,0,1.982-0.126,2.53-0.379
			c0.548-0.252,0.822-0.625,0.822-1.119c0-0.441-0.161-0.76-0.483-0.959s-0.935-0.39-1.837-0.572
			c-0.43-0.097-1.013-0.201-1.748-0.314c-0.736-0.113-1.405-0.25-2.006-0.41c-1.644-0.43-2.863-1.099-3.658-2.006
			c-0.795-0.908-1.192-2.039-1.192-3.393c0-1.74,0.824-3.188,2.474-4.342c1.648-1.155,3.902-1.732,6.759-1.732
			c1.354,0,2.651,0.137,3.891,0.41c1.241,0.273,2.21,0.566,2.909,0.879v4.576h-0.5c-0.859-0.592-1.84-1.072-2.94-1.443
			c-1.102-0.369-2.216-0.555-3.344-0.555c-0.935,0-1.722,0.129-2.36,0.387c-0.64,0.258-0.959,0.623-0.959,1.096
			c0,0.43,0.145,0.757,0.435,0.982s0.972,0.451,2.046,0.677c0.591,0.118,1.227,0.233,1.909,0.347s1.367,0.255,2.055,0.427
			c1.525,0.397,2.653,1.022,3.384,1.878C281.341,845.076,281.707,846.143,281.707,847.42z"/>
		<path style="fill:#FFFFFF;" d="M297.952,852.998c-0.623,0.16-1.284,0.285-1.982,0.377c-0.698,0.091-1.552,0.137-2.562,0.137
			c-2.256,0-3.935-0.457-5.035-1.37c-1.102-0.913-1.652-2.476-1.652-4.688v-8.46h-2.385v-3.932h2.385v-5.173h5.817v5.173h5.414
			v3.932h-5.414v6.423c0,0.635,0.005,1.189,0.016,1.662c0.011,0.474,0.096,0.898,0.257,1.275c0.15,0.377,0.415,0.675,0.795,0.895
			c0.38,0.221,0.935,0.332,1.663,0.332c0.299,0,0.693-0.064,1.18-0.193c0.488-0.129,0.828-0.248,1.021-0.355h0.482V852.998z"/>
		<path style="fill:#FFFFFF;" d="M308.219,832.483h-6.139v-4.399h6.139V832.483z M308.058,853.156h-5.817v-18.095h5.817V853.156z"/>
		<path style="fill:#FFFFFF;" d="M332.521,853.156h-5.817v-8.975c0-0.73-0.038-1.459-0.113-2.184s-0.204-1.26-0.387-1.604
			c-0.215-0.396-0.529-0.688-0.942-0.869c-0.414-0.184-0.991-0.274-1.732-0.274c-0.526,0-1.061,0.086-1.604,0.258
			s-1.13,0.446-1.764,0.821v12.826h-5.817v-18.095h5.817v1.998c1.03-0.806,2.02-1.423,2.969-1.853
			c0.95-0.43,2.004-0.645,3.163-0.645c1.952,0,3.478,0.568,4.578,1.707c1.1,1.139,1.649,2.842,1.649,5.108V853.156z"/>
		<path style="fill:#FFFFFF;" d="M356.275,851.078c0,1.697-0.242,3.126-0.725,4.286s-1.16,2.067-2.03,2.724
			c-0.87,0.666-1.92,1.146-3.15,1.441c-1.23,0.295-2.619,0.443-4.166,0.443c-1.257,0-2.495-0.075-3.714-0.226
			s-2.274-0.333-3.166-0.548v-4.527h0.708c0.708,0.279,1.571,0.533,2.59,0.766c1.019,0.23,1.931,0.346,2.735,0.346
			c1.073,0,1.944-0.1,2.615-0.299c0.67-0.198,1.183-0.48,1.537-0.846c0.333-0.344,0.574-0.783,0.724-1.32
			c0.15-0.537,0.225-1.182,0.225-1.934v-0.339c-0.697,0.569-1.47,1.021-2.317,1.354c-0.848,0.333-1.792,0.499-2.833,0.499
			c-2.532,0-4.485-0.762-5.858-2.287c-1.374-1.525-2.06-3.846-2.06-6.961c0-1.494,0.209-2.783,0.627-3.867
			c0.418-1.086,1.009-2.031,1.771-2.836c0.708-0.752,1.58-1.338,2.615-1.757c1.035-0.419,2.095-0.628,3.178-0.628
			c0.977,0,1.864,0.115,2.664,0.346c0.799,0.231,1.526,0.551,2.181,0.959l0.21-0.806h5.639V851.078z M350.458,847.453v-8.202
			c-0.333-0.14-0.74-0.249-1.222-0.331c-0.482-0.08-0.917-0.12-1.302-0.12c-1.522,0-2.664,0.438-3.425,1.313
			c-0.761,0.875-1.141,2.098-1.141,3.666c0,1.74,0.324,2.953,0.973,3.641s1.61,1.031,2.886,1.031c0.579,0,1.146-0.091,1.704-0.273
			C349.488,847.995,349.998,847.754,350.458,847.453z"/>
		<path style="fill:#FFFFFF;" d="M385.85,853.624c-1.783,0-3.43-0.263-4.939-0.79c-1.508-0.525-2.807-1.311-3.891-2.352
			c-1.085-1.043-1.925-2.342-2.522-3.9c-0.596-1.557-0.894-3.356-0.894-5.397c0-1.901,0.285-3.626,0.854-5.173
			s1.396-2.873,2.482-3.979c1.041-1.063,2.334-1.886,3.875-2.466s3.225-0.869,5.051-0.869c1.01,0,1.92,0.057,2.732,0.168
			c0.811,0.113,1.559,0.262,2.246,0.443c0.721,0.205,1.373,0.434,1.959,0.686s1.098,0.486,1.539,0.701v5.816h-0.709
			c-0.301-0.256-0.68-0.561-1.137-0.914c-0.457-0.353-0.975-0.699-1.555-1.042c-0.592-0.342-1.23-0.63-1.918-0.866
			c-0.688-0.234-1.424-0.352-2.207-0.352c-0.871,0-1.697,0.137-2.482,0.41c-0.783,0.273-1.508,0.727-2.174,1.358
			c-0.635,0.61-1.146,1.421-1.539,2.428c-0.393,1.008-0.588,2.229-0.588,3.667c0,1.5,0.211,2.754,0.637,3.762
			c0.424,1.008,0.957,1.802,1.602,2.381c0.656,0.589,1.387,1.01,2.191,1.262c0.807,0.252,1.602,0.378,2.385,0.378
			c0.752,0,1.496-0.112,2.232-0.337s1.416-0.529,2.039-0.914c0.525-0.309,1.014-0.641,1.465-0.993s0.822-0.657,1.113-0.914h0.645
			v5.736c-0.602,0.269-1.178,0.521-1.725,0.757c-0.549,0.236-1.123,0.441-1.725,0.613c-0.783,0.225-1.52,0.396-2.207,0.516
			C387.998,853.564,387.053,853.624,385.85,853.624z"/>
		<path style="fill:#FFFFFF;" d="M417.418,853.156h-5.816v-1.998c-1.073,0.816-2.055,1.438-2.945,1.861s-1.952,0.637-3.186,0.637
			c-1.996,0-3.533-0.574-4.611-1.725c-1.078-1.148-1.617-2.846-1.617-5.092v-11.778h5.817v8.976c0,0.912,0.029,1.673,0.089,2.279
			c0.059,0.607,0.195,1.109,0.41,1.507c0.204,0.397,0.514,0.688,0.927,0.87c0.414,0.183,0.991,0.273,1.732,0.273
			c0.494,0,1.042-0.091,1.644-0.273s1.182-0.451,1.74-0.806v-12.826h5.816V853.156z"/>
		<path style="fill:#FFFFFF;" d="M439.449,847.42c0,1.869-0.838,3.377-2.514,4.52c-1.676,1.145-3.97,1.717-6.88,1.717
			c-1.611,0-3.073-0.15-4.383-0.451c-1.312-0.301-2.364-0.634-3.158-0.999v-4.77h0.531c0.29,0.204,0.626,0.427,1.007,0.669
			c0.382,0.242,0.921,0.502,1.62,0.781c0.601,0.247,1.283,0.459,2.046,0.637s1.579,0.266,2.449,0.266
			c1.139,0,1.981-0.126,2.53-0.379c0.547-0.252,0.821-0.625,0.821-1.119c0-0.441-0.161-0.76-0.483-0.959s-0.935-0.39-1.837-0.572
			c-0.43-0.097-1.013-0.201-1.748-0.314c-0.736-0.113-1.405-0.25-2.007-0.41c-1.643-0.43-2.862-1.099-3.657-2.006
			c-0.795-0.908-1.192-2.039-1.192-3.393c0-1.74,0.824-3.188,2.474-4.342c1.648-1.155,3.901-1.732,6.759-1.732
			c1.354,0,2.651,0.137,3.892,0.41c1.241,0.273,2.21,0.566,2.909,0.879v4.576h-0.5c-0.859-0.592-1.84-1.072-2.94-1.443
			c-1.102-0.369-2.216-0.555-3.344-0.555c-0.935,0-1.722,0.129-2.36,0.387c-0.64,0.258-0.959,0.623-0.959,1.096
			c0,0.43,0.145,0.757,0.436,0.982c0.289,0.226,0.972,0.451,2.046,0.677c0.591,0.118,1.228,0.233,1.909,0.347
			c0.683,0.113,1.367,0.255,2.055,0.427c1.525,0.397,2.653,1.022,3.384,1.878C439.084,845.076,439.449,846.143,439.449,847.42z"/>
		<path style="fill:#FFFFFF;" d="M455.694,852.998c-0.623,0.16-1.284,0.285-1.982,0.377c-0.698,0.091-1.552,0.137-2.562,0.137
			c-2.256,0-3.935-0.457-5.035-1.37c-1.102-0.913-1.651-2.476-1.651-4.688v-8.46h-2.385v-3.932h2.385v-5.173h5.816v5.173h5.414
			v3.932h-5.414v6.423c0,0.635,0.005,1.189,0.016,1.662c0.011,0.474,0.097,0.898,0.258,1.275c0.149,0.377,0.415,0.675,0.795,0.895
			c0.38,0.221,0.935,0.332,1.663,0.332c0.3,0,0.693-0.064,1.181-0.193s0.827-0.248,1.021-0.355h0.481V852.998z"/>
		<path style="fill:#FFFFFF;" d="M478.481,844.117c0,2.976-0.867,5.32-2.603,7.033c-1.734,1.714-4.171,2.57-7.307,2.57
			c-3.138,0-5.573-0.856-7.308-2.57c-1.735-1.713-2.603-4.058-2.603-7.033c0-2.997,0.873-5.35,2.618-7.058
			c1.746-1.708,4.176-2.562,7.292-2.562c3.158,0,5.599,0.859,7.323,2.578C477.619,838.795,478.481,841.142,478.481,844.117z
			 M471.344,848.516c0.375-0.461,0.657-1.018,0.846-1.668c0.188-0.648,0.281-1.549,0.281-2.698c0-1.063-0.096-1.955-0.289-2.675
			s-0.463-1.295-0.807-1.725c-0.344-0.439-0.757-0.752-1.24-0.934c-0.483-0.184-1.005-0.274-1.562-0.274
			c-0.56,0-1.056,0.075-1.491,0.226c-0.435,0.15-0.852,0.451-1.249,0.902c-0.354,0.419-0.636,0.994-0.846,1.725
			c-0.209,0.73-0.314,1.648-0.314,2.755c0,0.988,0.092,1.845,0.274,2.569c0.183,0.727,0.451,1.309,0.806,1.749
			c0.344,0.419,0.755,0.726,1.232,0.919c0.479,0.193,1.023,0.289,1.636,0.289c0.526,0,1.028-0.088,1.507-0.266
			C470.604,849.232,471.01,848.936,471.344,848.516z"/>
		<path style="fill:#FFFFFF;" d="M501.141,840.33v12.826h-5.817v-9.039c0-0.881-0.021-1.63-0.064-2.248
			c-0.043-0.617-0.161-1.119-0.354-1.506s-0.486-0.67-0.878-0.846c-0.393-0.178-0.942-0.267-1.651-0.267
			c-0.57,0-1.123,0.116-1.66,0.347s-1.021,0.475-1.45,0.732v12.826h-5.817v-18.095h5.817v1.998c0.998-0.784,1.953-1.396,2.864-1.837
			c0.912-0.44,1.921-0.66,3.026-0.66c1.19,0,2.242,0.266,3.153,0.797c0.912,0.531,1.626,1.313,2.141,2.345
			c1.158-0.978,2.284-1.745,3.379-2.304c1.094-0.559,2.167-0.838,3.218-0.838c1.952,0,3.436,0.585,4.449,1.756
			s1.521,2.857,1.521,5.06v11.778h-5.816v-9.039c0-0.892-0.02-1.644-0.057-2.256c-0.038-0.612-0.153-1.111-0.347-1.498
			c-0.183-0.387-0.473-0.67-0.87-0.846c-0.397-0.178-0.956-0.267-1.676-0.267c-0.483,0-0.956,0.083-1.418,0.249
			C502.37,839.668,501.806,839.943,501.141,840.33z"/>
		<path style="fill:#FFFFFF;" d="M537.027,845.181H523.75c0.086,1.418,0.626,2.503,1.619,3.255c0.994,0.752,2.457,1.128,4.391,1.128
			c1.225,0,2.412-0.22,3.562-0.661c1.149-0.439,2.057-0.912,2.724-1.418h0.645v4.657c-1.312,0.526-2.547,0.907-3.707,1.144
			s-2.443,0.355-3.851,0.355c-3.631,0-6.413-0.816-8.347-2.449s-2.9-3.959-2.9-6.978c0-2.986,0.916-5.353,2.747-7.099
			c1.832-1.744,4.343-2.617,7.533-2.617c2.943,0,5.156,0.744,6.639,2.23c1.482,1.488,2.224,3.629,2.224,6.422V845.181z
			 M531.259,841.781c-0.032-1.215-0.333-2.127-0.902-2.74c-0.569-0.611-1.456-0.918-2.659-0.918c-1.117,0-2.035,0.29-2.755,0.87
			s-1.123,1.509-1.208,2.788H531.259z"/>
		<path style="fill:#FFFFFF;" d="M555.062,840.588h-0.515c-0.246-0.086-0.643-0.15-1.189-0.193s-1.002-0.064-1.367-0.064
			c-0.825,0-1.554,0.055-2.187,0.162c-0.632,0.107-1.312,0.289-2.041,0.547v12.117h-5.817v-18.095h5.817v2.659
			c1.275-1.096,2.385-1.824,3.327-2.184c0.943-0.359,1.812-0.54,2.605-0.54c0.203,0,0.434,0.005,0.691,0.017
			c0.257,0.01,0.482,0.026,0.675,0.048V840.588z"/>
	</g>
	<g>
		<path style="fill:#1A5436;" d="M265.188,989.649h-5.962l-10.184-16.468v16.468h-5.672v-23.992h7.396l8.75,13.744v-13.744h5.672
			V989.649z"/>
		<path style="fill:#1A5436;" d="M289.635,981.674h-13.277c0.086,1.418,0.625,2.503,1.619,3.255s2.458,1.128,4.391,1.128
			c1.225,0,2.412-0.221,3.561-0.661s2.057-0.913,2.723-1.418h0.645v4.657c-1.311,0.526-2.546,0.907-3.706,1.144
			s-2.444,0.354-3.851,0.354c-3.631,0-6.413-0.816-8.347-2.449s-2.9-3.958-2.9-6.977c0-2.986,0.916-5.353,2.747-7.099
			c1.832-1.745,4.343-2.618,7.533-2.618c2.943,0,5.156,0.744,6.639,2.231c1.482,1.488,2.224,3.629,2.224,6.422V981.674z
			 M283.867,978.273c-0.032-1.214-0.333-2.127-0.902-2.739s-1.456-0.918-2.659-0.918c-1.117,0-2.036,0.29-2.755,0.87
			s-1.123,1.509-1.208,2.787H283.867z"/>
		<path style="fill:#1A5436;" d="M323.412,971.555l-5.607,18.095h-6.158l-3.688-12.197l-3.642,12.197h-6.219l-5.559-18.095h6.085
			l3.106,12.472l3.86-12.472h5.14l3.671,12.472l3.055-12.472H323.412z"/>
		<path style="fill:#1A5436;" d="M350.972,990.117c-1.783,0-3.43-0.264-4.939-0.79s-2.806-1.311-3.891-2.353
			s-1.925-2.342-2.522-3.899c-0.596-1.558-0.894-3.356-0.894-5.397c0-1.901,0.285-3.626,0.854-5.173s1.396-2.873,2.481-3.979
			c1.042-1.063,2.333-1.886,3.875-2.466s3.226-0.87,5.052-0.87c1.01,0,1.92,0.057,2.731,0.169c0.811,0.113,1.56,0.261,2.248,0.443
			c0.72,0.204,1.372,0.433,1.958,0.685c0.585,0.253,1.099,0.486,1.539,0.701v5.817h-0.709c-0.301-0.257-0.68-0.562-1.136-0.914
			c-0.457-0.353-0.975-0.7-1.555-1.042c-0.591-0.342-1.23-0.631-1.917-0.866c-0.688-0.234-1.423-0.353-2.208-0.353
			c-0.87,0-1.697,0.137-2.481,0.41s-1.509,0.727-2.175,1.359c-0.634,0.61-1.147,1.42-1.539,2.428s-0.588,2.229-0.588,3.666
			c0,1.501,0.212,2.755,0.637,3.763c0.424,1.008,0.958,1.802,1.603,2.38c0.655,0.59,1.386,1.011,2.191,1.263
			s1.601,0.378,2.385,0.378c0.752,0,1.496-0.112,2.232-0.337c0.735-0.225,1.415-0.529,2.038-0.914
			c0.526-0.31,1.015-0.641,1.466-0.993c0.451-0.354,0.822-0.658,1.112-0.914h0.645v5.736c-0.602,0.269-1.176,0.521-1.724,0.757
			s-1.123,0.44-1.724,0.612c-0.784,0.226-1.52,0.397-2.208,0.516S352.175,990.117,350.972,990.117z"/>
		<path style="fill:#1A5436;" d="M382.541,989.649h-5.816v-1.998c-1.074,0.816-2.055,1.438-2.945,1.861
			c-0.891,0.424-1.953,0.637-3.186,0.637c-1.996,0-3.533-0.575-4.611-1.725s-1.617-2.847-1.617-5.092v-11.778h5.817v8.975
			c0,0.913,0.029,1.674,0.089,2.28c0.059,0.607,0.196,1.109,0.411,1.507c0.204,0.397,0.513,0.688,0.926,0.87
			s0.991,0.273,1.732,0.273c0.494,0,1.042-0.091,1.644-0.273s1.181-0.451,1.741-0.806v-12.826h5.816V989.649z"/>
		<path style="fill:#1A5436;" d="M404.571,983.913c0,1.869-0.838,3.376-2.514,4.52c-1.676,1.145-3.97,1.717-6.88,1.717
			c-1.611,0-3.073-0.15-4.383-0.451c-1.312-0.301-2.364-0.634-3.158-0.999v-4.77h0.531c0.29,0.204,0.626,0.427,1.007,0.668
			c0.382,0.242,0.921,0.503,1.62,0.782c0.601,0.247,1.283,0.459,2.046,0.636c0.763,0.178,1.579,0.267,2.449,0.267
			c1.139,0,1.981-0.126,2.53-0.379c0.547-0.252,0.821-0.626,0.821-1.12c0-0.44-0.161-0.76-0.483-0.959
			c-0.322-0.198-0.935-0.389-1.837-0.571c-0.43-0.097-1.013-0.202-1.748-0.314c-0.736-0.113-1.405-0.25-2.007-0.411
			c-1.643-0.43-2.862-1.098-3.657-2.006c-0.795-0.907-1.192-2.038-1.192-3.392c0-1.74,0.824-3.188,2.474-4.343
			c1.648-1.154,3.901-1.732,6.759-1.732c1.354,0,2.651,0.137,3.892,0.411c1.241,0.273,2.21,0.566,2.909,0.878v4.576h-0.5
			c-0.859-0.591-1.84-1.071-2.94-1.442c-1.102-0.37-2.216-0.556-3.344-0.556c-0.935,0-1.722,0.129-2.36,0.387
			c-0.64,0.258-0.959,0.623-0.959,1.096c0,0.43,0.145,0.758,0.436,0.983c0.289,0.226,0.972,0.451,2.046,0.677
			c0.591,0.118,1.228,0.233,1.909,0.346c0.683,0.113,1.367,0.256,2.055,0.428c1.525,0.397,2.653,1.022,3.384,1.877
			C404.206,981.568,404.571,982.635,404.571,983.913z"/>
		<path style="fill:#1A5436;" d="M420.816,989.49c-0.623,0.161-1.284,0.286-1.982,0.378c-0.698,0.091-1.552,0.136-2.562,0.136
			c-2.256,0-3.935-0.456-5.035-1.369c-1.102-0.913-1.651-2.477-1.651-4.689v-8.459h-2.385v-3.932h2.385v-5.173h5.816v5.173h5.414
			v3.932h-5.414v6.423c0,0.635,0.005,1.188,0.016,1.662s0.097,0.898,0.258,1.274c0.149,0.377,0.415,0.676,0.795,0.896
			c0.38,0.221,0.935,0.331,1.663,0.331c0.3,0,0.693-0.064,1.181-0.193s0.827-0.247,1.021-0.354h0.481V989.49z"/>
		<path style="fill:#1A5436;" d="M443.604,980.61c0,2.976-0.867,5.32-2.603,7.033c-1.734,1.714-4.171,2.57-7.307,2.57
			c-3.138,0-5.573-0.856-7.308-2.57c-1.735-1.713-2.603-4.058-2.603-7.033c0-2.997,0.873-5.35,2.618-7.058
			c1.746-1.708,4.176-2.562,7.292-2.562c3.158,0,5.599,0.859,7.323,2.578C442.741,975.287,443.604,977.635,443.604,980.61z
			 M436.466,985.009c0.375-0.462,0.657-1.018,0.846-1.668c0.188-0.649,0.281-1.549,0.281-2.698c0-1.063-0.096-1.955-0.289-2.675
			s-0.463-1.295-0.807-1.725c-0.344-0.44-0.757-0.752-1.24-0.935s-1.005-0.273-1.562-0.273c-0.56,0-1.056,0.075-1.491,0.226
			c-0.435,0.15-0.852,0.451-1.249,0.902c-0.354,0.419-0.636,0.993-0.846,1.724c-0.209,0.73-0.314,1.649-0.314,2.756
			c0,0.988,0.092,1.845,0.274,2.569c0.183,0.726,0.451,1.309,0.806,1.749c0.344,0.419,0.755,0.725,1.232,0.918
			c0.479,0.193,1.023,0.29,1.636,0.29c0.526,0,1.028-0.089,1.507-0.266C435.727,985.726,436.132,985.428,436.466,985.009z"/>
		<path style="fill:#1A5436;" d="M466.263,976.823v12.826h-5.817v-9.039c0-0.881-0.021-1.63-0.064-2.248
			c-0.043-0.617-0.161-1.12-0.354-1.507s-0.486-0.669-0.878-0.846c-0.393-0.178-0.942-0.266-1.651-0.266
			c-0.57,0-1.123,0.115-1.66,0.346c-0.537,0.231-1.021,0.476-1.45,0.733v12.826h-5.817v-18.095h5.817v1.998
			c0.998-0.784,1.953-1.396,2.864-1.837c0.912-0.44,1.921-0.661,3.026-0.661c1.19,0,2.242,0.266,3.153,0.798
			c0.912,0.531,1.626,1.313,2.141,2.345c1.158-0.978,2.284-1.746,3.379-2.305c1.094-0.559,2.167-0.838,3.218-0.838
			c1.952,0,3.436,0.586,4.449,1.757s1.521,2.857,1.521,5.06v11.778h-5.816v-9.039c0-0.892-0.02-1.644-0.057-2.256
			c-0.038-0.612-0.153-1.112-0.347-1.499c-0.183-0.387-0.473-0.669-0.87-0.846c-0.397-0.178-0.956-0.266-1.676-0.266
			c-0.483,0-0.956,0.083-1.418,0.249C467.492,976.16,466.928,976.437,466.263,976.823z"/>
		<path style="fill:#1A5436;" d="M502.15,981.674h-13.277c0.086,1.418,0.626,2.503,1.619,3.255c0.994,0.752,2.457,1.128,4.391,1.128
			c1.225,0,2.412-0.221,3.562-0.661s2.057-0.913,2.724-1.418h0.645v4.657c-1.312,0.526-2.547,0.907-3.707,1.144
			s-2.443,0.354-3.851,0.354c-3.631,0-6.413-0.816-8.347-2.449s-2.9-3.958-2.9-6.977c0-2.986,0.916-5.353,2.747-7.099
			c1.832-1.745,4.343-2.618,7.533-2.618c2.943,0,5.156,0.744,6.639,2.231c1.482,1.488,2.224,3.629,2.224,6.422V981.674z
			 M496.382,978.273c-0.032-1.214-0.333-2.127-0.902-2.739s-1.456-0.918-2.659-0.918c-1.117,0-2.035,0.29-2.755,0.87
			s-1.123,1.509-1.208,2.787H496.382z"/>
		<path style="fill:#1A5436;" d="M520.184,977.081h-0.515c-0.246-0.086-0.643-0.15-1.189-0.193s-1.002-0.064-1.367-0.064
			c-0.825,0-1.554,0.054-2.187,0.161c-0.632,0.107-1.312,0.29-2.041,0.548v12.117h-5.817v-18.095h5.817v2.658
			c1.275-1.096,2.385-1.823,3.327-2.184c0.943-0.359,1.812-0.539,2.605-0.539c0.203,0,0.434,0.005,0.691,0.016
			c0.257,0.011,0.482,0.027,0.675,0.049V977.081z"/>
	</g>
	<g>
		<path style="fill:#1A5436;" d="M262.059,331.013l-6.461,23.993h-6.859l-4.291-15.63l-4.195,15.63h-6.843l-6.461-23.993h6.458
			l3.681,16.516l4.427-16.516h6.171l4.201,16.516l3.865-16.516H262.059z"/>
		<path style="fill:#1A5436;" d="M283.538,355.005h-17.354v-23.993h17.354v4.641h-11.199v4.141h10.393v4.641h-10.393v5.93h11.199
			V355.005z"/>
		<path style="fill:#1A5436;" d="M306.032,355.005h-17.306v-23.993h6.188v19.352h11.118V355.005z"/>
		<path style="fill:#1A5436;" d="M320.599,355.473c-1.783,0-3.43-0.263-4.939-0.79s-2.806-1.311-3.891-2.353
			s-1.925-2.342-2.522-3.899c-0.596-1.558-0.894-3.357-0.894-5.398c0-1.901,0.285-3.625,0.854-5.172s1.396-2.874,2.481-3.98
			c1.042-1.063,2.333-1.885,3.875-2.465s3.226-0.87,5.052-0.87c1.01,0,1.92,0.057,2.731,0.169c0.811,0.113,1.56,0.261,2.248,0.443
			c0.72,0.204,1.372,0.433,1.958,0.685c0.585,0.253,1.099,0.486,1.539,0.701v5.817h-0.709c-0.301-0.256-0.68-0.561-1.136-0.914
			c-0.457-0.353-0.975-0.7-1.555-1.042c-0.591-0.342-1.23-0.63-1.917-0.866c-0.688-0.235-1.423-0.353-2.208-0.353
			c-0.87,0-1.697,0.137-2.481,0.41s-1.509,0.727-2.175,1.359c-0.634,0.611-1.147,1.42-1.539,2.428
			c-0.392,1.008-0.588,2.23-0.588,3.667c0,1.501,0.212,2.755,0.637,3.763c0.424,1.008,0.958,1.801,1.603,2.38
			c0.655,0.589,1.386,1.01,2.191,1.262s1.601,0.378,2.385,0.378c0.752,0,1.496-0.112,2.232-0.336
			c0.735-0.225,1.415-0.529,2.038-0.914c0.526-0.31,1.015-0.641,1.466-0.994c0.451-0.353,0.822-0.658,1.112-0.914h0.645v5.736
			c-0.602,0.269-1.176,0.521-1.724,0.757s-1.123,0.44-1.724,0.612c-0.784,0.226-1.52,0.397-2.208,0.516
			S321.802,355.473,320.599,355.473z"/>
		<path style="fill:#1A5436;" d="M356.966,343.017c0,3.824-1.096,6.862-3.287,9.112s-5.221,3.375-9.088,3.375
			c-3.856,0-6.88-1.125-9.072-3.375s-3.287-5.288-3.287-9.112c0-3.856,1.096-6.904,3.287-9.145c2.191-2.239,5.215-3.359,9.072-3.359
			c3.846,0,6.87,1.12,9.072,3.359C355.865,336.113,356.966,339.161,356.966,343.017z M348.765,349.092
			c0.602-0.73,1.047-1.592,1.337-2.586c0.29-0.993,0.435-2.162,0.435-3.504c0-1.439-0.167-2.664-0.5-3.674s-0.768-1.826-1.305-2.449
			c-0.548-0.645-1.179-1.112-1.893-1.402c-0.715-0.29-1.458-0.435-2.232-0.435c-0.784,0-1.523,0.14-2.215,0.419
			c-0.693,0.279-1.33,0.741-1.91,1.386c-0.537,0.602-0.975,1.432-1.313,2.49c-0.339,1.058-0.508,2.285-0.508,3.682
			c0,1.429,0.164,2.646,0.491,3.649c0.328,1.005,0.76,1.824,1.297,2.458s1.166,1.101,1.885,1.402s1.477,0.451,2.272,0.451
			s1.552-0.153,2.272-0.459C347.599,350.211,348.228,349.736,348.765,349.092z"/>
		<path style="fill:#1A5436;" d="M386.841,355.005h-6.156V338.94l-4.447,10.425h-4.27l-4.447-10.425v16.065h-5.833v-23.993h7.187
			l5.398,12.037l5.381-12.037h7.188V355.005z"/>
		<path style="fill:#1A5436;" d="M410.318,355.005h-17.354v-23.993h17.354v4.641h-11.199v4.141h10.393v4.641h-10.393v5.93h11.199
			V355.005z"/>
		<path style="fill:#1A5436;" d="M445.558,335.653h-7.493v19.352h-6.188v-19.352h-7.493v-4.641h21.174V335.653z"/>
		<path style="fill:#1A5436;" d="M472.611,343.017c0,3.824-1.096,6.862-3.287,9.112s-5.221,3.375-9.088,3.375
			c-3.856,0-6.88-1.125-9.071-3.375s-3.287-5.288-3.287-9.112c0-3.856,1.096-6.904,3.287-9.145c2.191-2.239,5.215-3.359,9.071-3.359
			c3.846,0,6.869,1.12,9.071,3.359C471.51,336.113,472.611,339.161,472.611,343.017z M464.409,349.092
			c0.602-0.73,1.048-1.592,1.338-2.586c0.29-0.993,0.436-2.162,0.436-3.504c0-1.439-0.167-2.664-0.5-3.674s-0.769-1.826-1.305-2.449
			c-0.549-0.645-1.18-1.112-1.894-1.402c-0.715-0.29-1.458-0.435-2.231-0.435c-0.785,0-1.523,0.14-2.216,0.419
			c-0.693,0.279-1.329,0.741-1.909,1.386c-0.538,0.602-0.976,1.432-1.313,2.49c-0.339,1.058-0.508,2.285-0.508,3.682
			c0,1.429,0.164,2.646,0.491,3.649c0.328,1.005,0.76,1.824,1.297,2.458s1.166,1.101,1.886,1.402s1.477,0.451,2.272,0.451
			c0.794,0,1.552-0.153,2.271-0.459C463.244,350.211,463.872,349.736,464.409,349.092z"/>
		<path style="fill:#1A5436;" d="M507.385,335.653h-7.493v19.352h-6.188v-19.352h-7.493v-4.641h21.174V335.653z"/>
		<path style="fill:#1A5436;" d="M533.777,343.033c0,2.234-0.51,4.235-1.53,6.002s-2.31,3.123-3.867,4.068
			c-1.171,0.709-2.455,1.203-3.851,1.482c-1.397,0.279-3.052,0.419-4.963,0.419h-8.46v-23.993h8.701c1.955,0,3.642,0.164,5.06,0.492
			s2.61,0.792,3.577,1.394c1.654,1.01,2.957,2.372,3.907,4.085C533.303,338.696,533.777,340.713,533.777,343.033z M527.381,342.985
			c0-1.579-0.287-2.93-0.862-4.053c-0.574-1.122-1.485-2-2.731-2.634c-0.634-0.312-1.28-0.524-1.941-0.636
			c-0.66-0.113-1.657-0.169-2.988-0.169h-1.563v15.018h1.563c1.471,0,2.551-0.067,3.238-0.202c0.688-0.134,1.358-0.378,2.014-0.733
			c1.129-0.645,1.955-1.506,2.482-2.586C527.117,345.91,527.381,344.575,527.381,342.985z"/>
	</g>
	<g>
		<rect id="rect2641" x="246.284" y="408.049" style="fill:#FFFFFF;" width="268.474" height="224.769"/>
		<path id="path2651" style="fill:#54B848;" d="M242.881,632.818h274.717V401.805H242.881V632.818z M423.214,582.844h-63.997
			v-108.42h32.148v89.24h30.906c21.341,0,30.313-13.948,30.313-49.711c0-36.038-10.208-46.502-31.848-46.502h-70.484v115.394
			h-31.848V467.45H271.72v-19.199h158.899c38.342,0,56.579,18.6,56.579,65.414C487.198,575.283,459.988,582.844,423.214,582.844"/>
	</g>
	
		<line style="fill:none;stroke:#828282;stroke-width:2;stroke-miterlimit:10;" x1="298.165" y1="704.589" x2="463.157" y2="704.589"/>
	<rect x="-405.976" y="177.049" style="fill:none;" width="400" height="462"/>
	<text transform="matrix(1 0 0 1 -405.9763 187.699)" style="display:none;"><tspan x="0" y="0" style="display:inline; font-family:'MyriadPro-Regular'; font-size:15px;">ai2html-settings</tspan><tspan x="0" y="18" style="display:inline; font-family:'MyriadPro-Regular'; font-size:15px;">settings_version: 0.61</tspan><tspan x="0" y="36" style="display:inline; font-family:'MyriadPro-Regular'; font-size:15px;">image_format: svg</tspan><tspan x="0" y="54" style="display:inline; font-family:'MyriadPro-Regular'; font-size:15px;">responsiveness: fixed</tspan><tspan x="0" y="72" style="display:inline; font-family:'MyriadPro-Regular'; font-size:15px;">output: one-file</tspan><tspan x="0" y="90" style="display:inline; font-family:'MyriadPro-Regular'; font-size:15px;">html_output_path: /ai2html-output/</tspan><tspan x="0" y="108" style="display:inline; font-family:'MyriadPro-Regular'; font-size:15px;">html_output_extension: .html</tspan><tspan x="0" y="126" style="display:inline; font-family:'MyriadPro-Regular'; font-size:15px;">image_output_path: </tspan><tspan x="0" y="144" style="display:inline; font-family:'MyriadPro-Regular'; font-size:15px;">local_preview_template: </tspan><tspan x="0" y="162" style="display:inline; font-family:'MyriadPro-Regular'; font-size:15px;">png_number_of_colors: 128</tspan><tspan x="0" y="180" style="display:inline; font-family:'MyriadPro-Regular'; font-size:15px;">jpg_quality: 60</tspan><tspan x="0" y="198" style="display:inline; font-family:'MyriadPro-Regular'; font-size:15px;">headline: Ai Graphic Headline</tspan><tspan x="0" y="216" style="display:inline; font-family:'MyriadPro-Regular'; font-size:15px;">leadin: Introductory text here.</tspan><tspan x="0" y="234" style="display:inline; font-family:'MyriadPro-Regular'; font-size:15px;">notes: Notes: Text goes here.</tspan><tspan x="0" y="252" style="display:inline; font-family:'MyriadPro-Regular'; font-size:15px;">sources: Source: Name goes here.</tspan><tspan x="0" y="270" style="display:inline; font-family:'MyriadPro-Regular'; font-size:15px;">credit: By ai2html</tspan></text>
</g>
<g id="Layer_5">
</g>
<g id="carrier" style="display:none;">
	<g style="display:inline;">
		<g>
			<path style="fill:#1A5436;" d="M223.599,18.736c4.382,0,8.375,1.635,11.438,4.315l2.127-2.381
				c-3.627-3.19-8.364-5.421-13.565-5.421c-5.194,0-9.924,2.224-13.547,5.408l2.123,2.381
				C215.235,20.362,219.222,18.736,223.599,18.736z"/>
			<path style="fill:#1A5436;" d="M223.599,25.602c2.626,0,5.026,0.964,6.877,2.557l2.248-2.518
				c-2.447-2.131-5.633-3.524-9.126-3.524c-3.488,0-6.67,1.388-9.117,3.513l2.246,2.52
				C218.579,26.564,220.976,25.602,223.599,25.602z"/>
			<path style="fill:#1A5436;" d="M228.226,30.678c-1.253-1.055-2.866-1.785-4.627-1.785c-1.761,0-3.371,0.728-4.622,1.778
				l4.622,5.187L228.226,30.678z"/>
		</g>
		<path style="fill-rule:evenodd;clip-rule:evenodd;fill:#1A5436;" d="M717.264,22.027c2.184,0,3.389,1.769,3.389,3.954
			s-1.205,3.954-3.389,3.954V22.027z"/>
		<path style="fill:#1A5436;" d="M712.745,16.379c1.246,0,2.259,1.014,2.259,2.259v14.685c0,1.246-1.013,2.259-2.259,2.259h-44.056
			c-1.246,0-2.259-1.014-2.259-2.259V18.638c0-1.246,1.013-2.259,2.259-2.259H712.745L712.745,16.379z M712.745,15.249h-44.056
			c-1.871,0-3.389,1.518-3.389,3.389v14.685c0,1.871,1.518,3.389,3.389,3.389h44.056c1.871,0,3.389-1.518,3.389-3.389V18.638
			C716.134,16.767,714.616,15.249,712.745,15.249L712.745,15.249z"/>
		<path style="fill-rule:evenodd;clip-rule:evenodd;fill:#1A5436;" d="M669.818,17.509h41.797c1.249,0,2.259,1.011,2.259,2.259
			v12.426c0,1.249-1.011,2.259-2.259,2.259h-41.797c-1.249,0-2.259-1.011-2.259-2.259V19.768
			C667.559,18.519,668.57,17.509,669.818,17.509z"/>
		<path style="fill-rule:evenodd;clip-rule:evenodd;fill:#1A5436;" d="M31.003,19.768c3.433,0,6.213,2.782,6.213,6.213
			s-2.78,6.213-6.213,6.213c-3.431,0-6.213-2.782-6.213-6.213S27.572,19.768,31.003,19.768z"/>
		<path style="fill-rule:evenodd;clip-rule:evenodd;fill:#1A5436;" d="M46.818,19.768c3.433,0,6.213,2.782,6.213,6.213
			s-2.78,6.213-6.213,6.213c-3.431,0-6.213-2.782-6.213-6.213S43.387,19.768,46.818,19.768z"/>
		<path style="fill-rule:evenodd;clip-rule:evenodd;fill:#1A5436;" d="M62.633,19.768c3.433,0,6.213,2.782,6.213,6.213
			s-2.78,6.213-6.213,6.213c-3.431,0-6.213-2.782-6.213-6.213S59.202,19.768,62.633,19.768z"/>
		<path style="fill:#1A5436;" d="M78.448,19.768c-3.431,0-6.213,2.782-6.213,6.213s2.782,6.213,6.213,6.213
			c3.433,0,6.213-2.782,6.213-6.213S81.881,19.768,78.448,19.768L78.448,19.768z"/>
		<path style="fill:#1A5436;" d="M94.263,20.333c3.114,0,5.648,2.534,5.648,5.648s-2.534,5.648-5.648,5.648
			s-5.648-2.534-5.648-5.648S91.149,20.333,94.263,20.333L94.263,20.333z M94.263,19.768c-3.431,0-6.213,2.782-6.213,6.213
			s2.782,6.213,6.213,6.213c3.433,0,6.213-2.782,6.213-6.213S97.696,19.768,94.263,19.768L94.263,19.768z"/>
		<g>
			
				<text transform="matrix(1 0 0 1 109.5124 35.096)" style="fill:#1A5436; font-family:'SFUIDisplay-Regular'; font-size:27.1115px;">Carrier</text>
		</g>
		<g>
			
				<text transform="matrix(1 0 0 1 594.572 35.096)" style="fill:#1A5436; font-family:'SFUIDisplay-Regular'; font-size:27.1115px;">100%</text>
		</g>
		<g>
			
				<text transform="matrix(1 0 0 1 321.2863 35.096)" style="fill:#1A5436; font-family:'SFUIDisplay-Medium'; font-size:27.1115px;">11:11AM</text>
		</g>
	</g>
</g>
<g id="ai2html-settings">
</g>
</svg>
